<?xml version="1.0" encoding="UTF-8" standalone="no"?>
<!DOCTYPE svg PUBLIC "-//W3C//DTD SVG 1.1//EN" "http://www.w3.org/Graphics/SVG/1.1/DTD/svg11.dtd">
<svg width="100%" height="100%" viewBox="0 0 440 100" version="1.1" xmlns="http://www.w3.org/2000/svg" xmlns:xlink="http://www.w3.org/1999/xlink" xml:space="preserve" xmlns:serif="http://www.serif.com/" style="fill-rule:evenodd;clip-rule:evenodd;stroke-linejoin:round;stroke-miterlimit:1.41421;">
    <g id="Artboard1" transform="matrix(0.774042,0,0,0.509541,-17.2019,-51.1084)">
        <rect x="22.223" y="100.303" width="568.444" height="196.255" style="fill:none;"/>
        <g transform="matrix(1.15335,0,0,1.45348,-19.4346,-89.9844)">
            <g transform="matrix(0.947407,0,0,1.14202,1.38053,-51.5933)">
                <rect x="36.874" y="159.815" width="118.233" height="118.233" style="fill:rgb(42,45,52);"/>
            </g>
            <g transform="matrix(2.30015,0,0,2.94263,56.2031,169.895)">
                <path d="M29.9,9.9C28.703,8.908 27.282,8.221 25.76,7.9C24.578,7.674 23.431,7.29 22.35,6.76C21.889,6.491 21.606,5.994 21.61,5.46C21.594,4.954 21.816,4.469 22.21,4.15C22.684,3.795 23.269,3.618 23.86,3.65C25.685,3.697 27.444,4.348 28.86,5.5L31,2.47C30.043,1.664 28.944,1.043 27.76,0.64C26.551,0.219 25.28,0.003 24,0C22.287,-0.062 20.601,0.448 19.21,1.45C18.47,1.999 17.912,2.759 17.61,3.63C17.37,3.332 17.113,3.048 16.84,2.78C14.982,0.942 12.453,-0.062 9.84,0C7.227,-0.062 4.698,0.942 2.84,2.78C0.968,4.579 -0.063,7.085 0,9.68C-0.066,12.279 0.966,14.789 2.84,16.59C4.698,18.428 7.227,19.432 9.84,19.37C12.453,19.431 14.981,18.427 16.84,16.59L16.94,16.48C19.02,18.346 21.716,19.383 24.51,19.39C26.31,19.481 28.085,18.924 29.51,17.82C30.745,16.829 31.445,15.313 31.4,13.73C31.49,12.295 30.94,10.892 29.9,9.9ZM13.81,14C12.805,15.151 11.338,15.796 9.81,15.76C8.314,15.77 6.885,15.127 5.9,14C4.822,12.833 4.244,11.288 4.29,9.7C4.255,8.12 4.832,6.585 5.9,5.42C6.903,4.265 8.371,3.615 9.9,3.65C11.429,3.615 12.897,4.265 13.9,5.42C14.936,6.599 15.48,8.132 15.42,9.7C15.466,11.288 14.888,12.833 13.81,14ZM26.4,15.19C25.868,15.55 25.232,15.726 24.59,15.69C22.903,15.69 21.07,14.833 19.09,13.12C19.441,12.137 19.634,11.104 19.66,10.06C20.894,10.725 22.218,11.21 23.59,11.5C24.558,11.682 25.49,12.02 26.35,12.5C26.797,12.797 27.061,13.304 27.05,13.84C27.072,14.37 26.828,14.877 26.4,15.19Z" style="fill:white;fill-rule:nonzero;"/>
            </g>
        </g>
        <g transform="matrix(1.85174,0,0,2.81297,174.139,157.544)">
            <path d="M22.02,12.09C22.02,9.01 20.96,6.435 18.84,4.365C16.72,2.295 14.11,1.26 11.01,1.26C7.91,1.26 5.3,2.295 3.18,4.365C1.06,6.435 0,9.01 0,12.09C0,15.17 1.06,17.745 3.18,19.815C5.3,21.885 7.91,22.92 11.01,22.92C14.11,22.92 16.72,21.885 18.84,19.815C20.96,17.745 22.02,15.17 22.02,12.09ZM15.45,16.875C14.25,18.185 12.774,18.84 11.024,18.84C9.274,18.84 7.8,18.185 6.6,16.875C5.4,15.565 4.8,13.975 4.8,12.105C4.8,10.235 5.4,8.64 6.6,7.32C7.8,6 9.274,5.34 11.024,5.34C12.774,5.34 14.25,6 15.45,7.32C16.65,8.64 17.25,10.236 17.25,12.105C17.25,13.975 16.65,15.565 15.45,16.875ZM28.38,20.58C29.58,22.16 31.164,22.95 33.135,22.95C35.105,22.95 36.825,22.15 38.295,20.55C39.765,18.95 40.5,16.96 40.5,14.58C40.5,12.2 39.765,10.225 38.295,8.655C36.825,7.085 35.15,6.3 33.27,6.3C31.39,6.3 29.76,6.99 28.38,8.37L28.38,6.57L23.88,6.57L23.88,26.402L28.38,26.402L28.38,20.58ZM29.414,11.385C30.144,10.515 31.039,10.08 32.1,10.08C33.16,10.08 34.07,10.52 34.83,11.4C35.59,12.28 35.97,13.37 35.97,14.67C35.97,15.97 35.58,17.035 34.8,17.865C34.02,18.695 33.11,19.11 32.07,19.11C31.03,19.11 30.145,18.695 29.415,17.865C28.685,17.035 28.32,15.965 28.32,14.655C28.32,13.345 28.684,12.255 29.414,11.385ZM49.934,22.95C52.384,22.95 54.52,22.09 56.339,20.37L53.817,17.64C52.797,18.7 51.497,19.23 49.917,19.23C48.939,19.23 48.057,18.95 47.277,18.39C46.497,17.83 46.037,17.11 45.897,16.23L57.657,16.23L57.657,13.83C57.657,11.49 56.883,9.65 55.333,8.31C53.783,6.97 51.897,6.3 49.679,6.3C47.459,6.3 45.533,7.05 43.904,8.55C42.274,10.05 41.459,12.07 41.459,14.61C41.459,17.15 42.259,19.175 43.859,20.685C45.459,22.195 47.483,22.95 49.933,22.95L49.934,22.95ZM47.31,10.83C48.05,10.29 48.864,10.02 49.754,10.02C50.644,10.02 51.399,10.28 52.02,10.8C52.64,11.32 53,12.06 53.1,13.02L46.02,13.02C46.14,12.1 46.568,11.37 47.31,10.83ZM63.898,13.71C63.898,12.45 64.233,11.495 64.903,10.845C65.573,10.195 66.358,9.87 67.258,9.87C69.078,9.87 69.988,11.11 69.988,13.59L69.988,22.71L74.488,22.71L74.488,12.9C74.488,10.9 73.913,9.3 72.762,8.1C71.612,6.9 70.187,6.3 68.487,6.3C66.787,6.3 65.257,6.99 63.897,8.37L63.897,6.57L59.397,6.57L59.397,22.71L63.897,22.71L63.897,13.71L63.898,13.71ZM86.924,18.255C86.434,18.625 85.758,18.81 84.899,18.81C82.979,18.81 80.889,17.82 78.629,15.84L75.839,19.26C78.497,21.72 81.487,22.95 84.809,22.95C87.109,22.95 88.963,22.365 90.373,21.195C91.783,20.025 92.487,18.5 92.487,16.62C92.487,14.74 91.937,13.31 90.837,12.33C89.737,11.35 88.192,10.615 86.202,10.125C84.212,9.635 82.942,9.21 82.392,8.85C81.842,8.49 81.567,8.005 81.567,7.395C81.567,6.785 81.793,6.295 82.243,5.925C82.693,5.555 83.307,5.37 84.088,5.37C86.026,5.37 87.906,6.06 89.728,7.44L92.098,4.02C91.058,3.14 89.836,2.46 88.438,1.98C87.038,1.5 85.638,1.26 84.238,1.26C82.098,1.26 80.312,1.8 78.883,2.88C77.453,3.96 76.737,5.495 76.737,7.485C76.737,9.475 77.301,10.935 78.431,11.865C79.561,12.795 81.346,13.551 83.786,14.13C85.324,14.51 86.354,14.885 86.876,15.255C87.396,15.625 87.654,16.125 87.654,16.755C87.654,17.385 87.41,17.885 86.92,18.255L86.924,18.255ZM99.027,20.58C100.227,22.16 101.812,22.95 103.783,22.95C105.753,22.95 107.473,22.15 108.943,20.55C110.413,18.95 111.148,16.96 111.148,14.58C111.148,12.2 110.412,10.225 108.943,8.655C107.473,7.085 105.797,6.3 103.918,6.3C102.038,6.3 100.408,6.99 99.028,8.37L99.028,6.57L94.528,6.57L94.528,26.402L99.028,26.402L99.028,20.58L99.027,20.58ZM100.062,11.385C100.792,10.515 101.687,10.08 102.748,10.08C103.808,10.08 104.718,10.52 105.478,11.4C106.238,12.28 106.618,13.37 106.618,14.67C106.618,15.97 106.228,17.035 105.448,17.865C104.668,18.695 103.758,19.11 102.718,19.11C101.678,19.11 100.793,18.695 100.063,17.865C99.333,17.035 98.968,15.965 98.968,14.655C98.968,13.345 99.332,12.255 100.062,11.385ZM120.582,22.95C123.032,22.95 125.168,22.09 126.988,20.37L124.468,17.64C123.448,18.7 122.148,19.23 120.568,19.23C119.588,19.23 118.708,18.95 117.928,18.39C117.148,17.83 116.688,17.11 116.548,16.23L128.308,16.23L128.308,13.83C128.308,11.49 127.532,9.65 125.983,8.31C124.433,6.97 122.547,6.3 120.329,6.3C118.107,6.3 116.182,7.05 114.553,8.55C112.923,10.05 112.108,12.07 112.108,14.61C112.108,17.15 112.906,19.175 114.508,20.685C116.105,22.195 118.131,22.95 120.58,22.95L120.582,22.95ZM117.957,10.83C118.697,10.29 119.512,10.02 120.402,10.02C121.292,10.02 122.047,10.28 122.668,10.8C123.288,11.32 123.648,12.06 123.748,13.02L116.668,13.02C116.788,12.1 117.218,11.37 117.958,10.83L117.957,10.83ZM134.547,13.71C134.547,12.45 134.883,11.495 135.553,10.845C136.223,10.195 137.008,9.87 137.908,9.87C139.726,9.87 140.638,11.11 140.638,13.59L140.638,22.71L145.138,22.71L145.138,12.9C145.138,10.9 144.563,9.3 143.412,8.1C142.262,6.9 140.838,6.3 139.137,6.3C137.437,6.3 135.907,6.99 134.547,8.37L134.547,6.57L130.047,6.57L130.047,22.71L134.547,22.71L134.547,13.71ZM154.182,22.95C156.092,22.95 157.678,22.16 158.938,20.58L158.938,22.71L163.438,22.71L163.438,0.45L158.938,0.45L158.938,8.37C157.698,6.99 156.098,6.3 154.138,6.3C152.178,6.3 150.468,7.065 149.008,8.595C147.548,10.125 146.818,12.09 146.818,14.49C146.818,16.89 147.568,18.9 149.068,20.52C150.568,22.14 152.271,22.95 154.182,22.95ZM152.488,11.4C153.248,10.52 154.156,10.08 155.218,10.08C156.28,10.08 157.172,10.515 157.903,11.385C158.633,12.255 158.999,13.345 158.999,14.655C158.999,15.965 158.633,17.035 157.902,17.865C157.172,18.695 156.287,19.11 155.248,19.11C154.206,19.11 153.296,18.695 152.518,17.865C151.738,17.035 151.348,15.97 151.348,14.67C151.346,13.37 151.725,12.28 152.486,11.4L152.488,11.4ZM168.447,5.28C169.187,5.28 169.812,5.025 170.322,4.515C170.832,4.005 171.086,3.38 171.086,2.64C171.086,1.9 170.832,1.275 170.322,0.765C169.812,0.255 169.188,0 168.447,0C167.706,0 167.082,0.255 166.572,0.765C166.062,1.275 165.806,1.9 165.806,2.64C165.806,3.38 166.062,4.005 166.572,4.515C167.082,5.025 167.707,5.28 168.447,5.28ZM166.197,6.57L170.697,6.57L170.697,22.71L166.197,22.71L166.197,6.57ZM177.957,13.71C177.957,12.45 178.291,11.495 178.961,10.845C179.631,10.195 180.417,9.87 181.317,9.87C183.137,9.87 184.047,11.11 184.047,13.59L184.047,22.71L188.547,22.71L188.547,12.9C188.547,10.9 187.971,9.3 186.822,8.1C185.672,6.9 184.247,6.3 182.548,6.3C180.848,6.3 179.318,6.99 177.958,8.37L177.958,6.57L173.458,6.57L173.458,22.71L177.958,22.71L177.958,13.71L177.957,13.71ZM202.377,6.54L202.377,8.67C201.117,7.09 199.527,6.3 197.607,6.3C195.687,6.3 193.98,7.065 192.492,8.595C191.002,10.125 190.256,12.085 190.256,14.475C190.256,16.865 190.981,18.775 192.432,20.205C193.882,21.635 195.662,22.35 197.772,22.35C199.882,22.35 201.647,21.56 203.067,19.98C203.067,21.76 202.587,23.06 201.627,23.88C200.667,24.7 199.362,25.11 197.712,25.11C196.064,25.11 194.497,24.55 193.017,23.43L191.279,26.82C192.217,27.54 193.311,28.095 194.563,28.485C195.811,28.875 197.038,29.07 198.237,29.07C200.497,29.07 202.457,28.41 204.117,27.09C204.957,26.45 205.627,25.57 206.127,24.45C206.627,23.33 206.877,22.05 206.877,20.61L206.877,6.54L202.377,6.54ZM201.357,17.4C200.637,18.18 199.737,18.57 198.657,18.57C197.577,18.57 196.662,18.175 195.912,17.385C195.162,16.595 194.787,15.56 194.787,14.28C194.787,13 195.172,11.99 195.941,11.25C196.711,10.51 197.628,10.14 198.688,10.14C199.748,10.14 200.638,10.51 201.358,11.25C202.078,11.99 202.438,13.005 202.438,14.295C202.438,15.585 202.078,16.62 201.358,17.4L201.357,17.4Z" style="fill:rgb(42,45,52);fill-rule:nonzero;"/>
        </g>
    </g>
</svg>