<?xml version="1.0" encoding="utf-8"?>
<!-- Generator: Adobe Illustrator 19.0.0, SVG Export Plug-In . SVG Version: 6.00 Build 0)  -->
<svg version="1.1" id="Layer_1" xmlns="http://www.w3.org/2000/svg" xmlns:xlink="http://www.w3.org/1999/xlink" x="0px" y="0px"
	 viewBox="-32 -19 340 340" style="enable-background:new 0 0 283.5 283.5;" xml:space="preserve">
<style type="text/css">
	.st0{fill:#FFFFFF;}
</style>
<g>
	<path class="st0" d="M-99.8,385.4c0-162.1,0-324.2,0-486.2c161,0,321.9,0,482.9,0c0,162.1,0,324.2,0,486.2
		C222.2,385.4,61.2,385.4-99.8,385.4z M-30.3-20.2c0,113.1,0,226.2,0,339.2c113.1,0,226.2,0,339.2,0c0-113.1,0-226.1,0-339.2
		C195.8-20.2,82.8-20.2-30.3-20.2z"/>
	<path d="M-30.3-20.2c113.1,0,226.1,0,339.2,0c0,113.1,0,226.1,0,339.2c-113,0-226.1,0-339.2,0C-30.3,206-30.3,93-30.3-20.2z
		 M222.8,211.1c0.2-0.1,0.3-0.2,0.4-0.2c4.1-2.5,6.3-6.2,6.9-10.9c0.8-6.9-1.4-13.1-7.7-16.8c-3.5-2.1-7.4-2.9-11.5-2.9
		c-7.5,0-15,0-22.4,0c-0.4,0-0.8,0-1.3,0.1c0,22.2,0,44.2,0,66.3c0.4,0,0.7,0.1,1,0.1c8.6,0,17.2,0,25.8,0c1.4,0,2.7-0.1,4.1-0.3
		c6.1-1,11-4,13.7-9.7c4-8.3,2-18.6-7.3-24.6C223.9,211.8,223.4,211.5,222.8,211.1z M5.2,120.4c6.7,0,13.2,0,19.7,0
		c2.4,0,4.9-0.1,7.3-0.5c10.5-1.6,17.7-7.2,20.6-17.5c2.9-10.2,2.7-20.5-0.5-30.6C50,64.4,45.3,59,37.9,56.1
		c-4-1.5-8.3-2.1-12.6-2.2c-6.3,0-12.6,0-19,0C6,54,5.6,54,5.2,54C5.2,76.2,5.2,98.2,5.2,120.4z M95.4,246.6c0-22.2,0-44.2,0-66.3
		c-2.5,0-4.8,0-7.3,0c0,9.3,0,18.5,0,27.8c-12,0-23.8,0-35.8,0c0-9.3,0-18.5,0-27.8c-2.6,0-5,0-7.4,0c0,22.1,0,44.2,0,66.3
		c2.5,0,4.9,0,7.5,0c0-10.5,0-20.9,0-31.3c12,0,23.9,0,35.8,0c0,10.5,0,20.9,0,31.4C90.6,246.6,93,246.6,95.4,246.6z M116.3,180.2
		c0,0.5,0,0.9,0,1.3c0,15-0.1,29.9,0,44.9c0.1,8.9,4.2,15.4,12.1,19.5c6.1,3.2,12.7,3.6,19.4,2.3c12.6-2.4,19.1-12.2,18.9-22.8
		c-0.2-14.6-0.1-29.2-0.1-43.8c0-0.5,0-0.9,0-1.4c-2.6,0-5,0-7.4,0c0,0.6,0,1.1,0,1.5c0,14.8,0,29.5,0,44.3c0,4.3-1.5,8.1-4.6,11.1
		c-3.2,3.1-7.1,4.5-11.5,4.8c-9.6,0.8-19.8-5-19.5-17.4c0.4-14.3,0.1-28.6,0.1-42.8c0-0.5,0-1,0-1.6
		C121.2,180.2,118.8,180.2,116.3,180.2z M130.1,120.4c-0.2-0.6-0.4-1.1-0.6-1.5c-3.7-9.3-7.5-18.7-11.2-28
		c-4.8-11.9-9.6-23.9-14.3-35.8c-0.3-0.9-0.8-1.2-1.7-1.1c-1.5,0.1-3,0.1-4.4,0c-0.8,0-1.3,0.2-1.6,1C88,76.5,79.5,97.9,71,119.4
		c-0.1,0.3-0.2,0.6-0.3,1c1.3,0,2.4,0,3.5,0c1.4,0,3.2,0.4,4.2-0.2c1-0.6,1.1-2.4,1.7-3.7c2.2-5.5,4.3-11.1,6.5-16.7
		c0.5,0,1,0,1.5,0c8.2,0,16.3,0,24.5,0c1.2,0,1.7,0.3,2.1,1.4c2.3,6.1,4.7,12.2,7.2,18.3c0.2,0.4,0.6,0.9,1,0.9
		C125.2,120.4,127.6,120.4,130.1,120.4z M210.3,120.4c2.2,0,4.3-0.1,6.4,0c1.1,0,1.7-0.3,2.1-1.4c2.3-6.1,4.7-12.2,7.1-18.3
		c0.3-0.7,0.6-1,1.4-1c8.5,0,17,0,25.4,0c0.7,0,1.2,0.2,1.4,0.9c0.3,1,0.8,1.9,1.1,2.9c2.1,5.3,4.2,10.6,6.3,15.9
		c0.1,0.4,0.6,0.9,0.9,0.9c2.4,0.1,4.9,0,7.4,0c-0.2-0.5-0.3-0.9-0.5-1.3c-4.9-12.3-9.8-24.6-14.8-36.9c-3.6-9-7.2-18.1-10.8-27.1
		c-0.3-0.8-0.7-1.1-1.6-1.1c-1.4,0.1-2.9,0.1-4.3,0c-1-0.1-1.5,0.2-1.8,1.2c-8,20.3-16,40.6-24,60.9
		C211.5,117.5,210.9,118.9,210.3,120.4z M195.6,60.2c0-2.2,0-4.2,0-6.1c-16.9,0-33.7,0-50.5,0c0,2.1,0,4.1,0,6.2
		c7.2,0,14.4,0,21.6,0c0,20.1,0,40.1,0,60.1c2.5,0,5,0,7.5,0c0-20.1,0-40,0-60.1C181.4,60.2,188.5,60.2,195.6,60.2z"/>
	<path class="st0" d="M222.8,211.1c0.7,0.4,1.2,0.7,1.7,1c9.3,6,11.3,16.3,7.3,24.6c-2.7,5.7-7.6,8.7-13.7,9.7
		c-1.3,0.2-2.7,0.3-4.1,0.3c-8.6,0-17.2,0-25.8,0c-0.3,0-0.6,0-1-0.1c0-22.1,0-44.2,0-66.3c0.4,0,0.8-0.1,1.3-0.1c7.5,0,15,0,22.4,0
		c4.1,0,8,0.8,11.5,2.9c6.3,3.7,8.5,9.9,7.7,16.8c-0.6,4.7-2.8,8.5-6.9,10.9C223.1,210.9,223,210.9,222.8,211.1z M194.6,214.5
		c0,8.6,0,17.1,0,25.6c0.2,0.1,0.2,0.1,0.3,0.1c3.8,0,7.6,0,11.4,0c3.1,0,6.2,0,9.2-0.3c5.1-0.5,8.7-3.5,9.8-8
		c2.3-8.6-4.2-17.3-13.1-17.4c-5.6-0.1-11.1-0.1-16.7-0.1C195.3,214.4,195,214.4,194.6,214.5z M194.6,207.6c0.2,0.1,0.2,0.1,0.3,0.1
		c5.9,0,11.8,0.2,17.7,0c5.6-0.2,9.6-3.7,10.2-8.6c0.7-5.9-2.1-10.3-7.6-11.9c-1.1-0.3-2.2-0.6-3.3-0.6c-5.6-0.1-11.3-0.1-16.9-0.1
		c-0.1,0-0.2,0.1-0.4,0.1C194.6,193.6,194.6,200.6,194.6,207.6z"/>
	<path class="st0" d="M5.2,120.4c0-22.2,0-44.2,0-66.4C5.6,54,6,54,6.4,54c6.3,0,12.6,0,19,0c4.3,0,8.5,0.6,12.6,2.2
		C45.3,59,50,64.4,52.4,71.8c3.2,10.1,3.4,20.4,0.5,30.6c-2.9,10.3-10.1,15.9-20.6,17.5c-2.4,0.4-4.9,0.5-7.3,0.5
		C18.4,120.5,11.9,120.4,5.2,120.4z M12.8,114c2.3,0,4.5,0.1,6.7,0c3.5-0.1,7.1,0,10.6-0.5c7.4-1.1,12.6-5.3,14.9-12.6
		c0.9-3,1.5-6.2,1.7-9.4c0.5-5.8,0.1-11.6-1.8-17.2c-2.8-8.6-8.9-13.4-17.8-13.9c-4.6-0.3-9.2-0.1-13.8-0.1c-0.2,0-0.3,0.1-0.5,0.1
		C12.8,78.2,12.8,96,12.8,114z"/>
	<path class="st0" d="M95.4,246.6c-2.4,0-4.8,0-7.3,0c0-10.5,0-20.9,0-31.4c-12,0-23.8,0-35.8,0c0,10.4,0,20.9,0,31.3
		c-2.6,0-5,0-7.5,0c0-22.1,0-44.2,0-66.3c2.5,0,4.9,0,7.4,0c0,9.3,0,18.5,0,27.8c12,0,23.8,0,35.8,0c0-9.3,0-18.5,0-27.8
		c2.5,0,4.9,0,7.3,0C95.4,202.4,95.4,224.4,95.4,246.6z"/>
	<path class="st0" d="M116.3,180.2c2.6,0,5,0,7.5,0c0,0.6,0,1.1,0,1.6c0,14.3,0.3,28.6-0.1,42.8c-0.3,12.4,9.9,18.2,19.5,17.4
		c4.3-0.4,8.3-1.7,11.5-4.8c3.1-3,4.6-6.8,4.6-11.1c0-14.8,0-29.5,0-44.3c0-0.5,0-1,0-1.5c2.5,0,4.9,0,7.4,0c0,0.5,0,0.9,0,1.4
		c0,14.6-0.2,29.2,0.1,43.8c0.2,10.5-6.3,20.4-18.9,22.8c-6.7,1.3-13.3,0.8-19.4-2.3c-7.9-4.1-12-10.6-12.1-19.5
		c-0.1-15,0-29.9,0-44.9C116.3,181.1,116.3,180.7,116.3,180.2z"/>
	<path class="st0" d="M130.1,120.4c-2.6,0-5,0-7.4,0c-0.3,0-0.8-0.5-1-0.9c-2.4-6.1-4.8-12.2-7.2-18.3c-0.4-1.1-1-1.4-2.1-1.4
		c-8.2,0.1-16.3,0-24.5,0c-0.5,0-1,0-1.5,0c-2.2,5.6-4.3,11.1-6.5,16.7c-0.5,1.3-0.7,3.1-1.7,3.7c-1,0.7-2.8,0.2-4.2,0.2
		c-1.1,0-2.2,0-3.5,0c0.1-0.4,0.2-0.7,0.3-1C79.5,97.9,88,76.5,96.4,55c0.3-0.8,0.7-1.1,1.6-1c1.5,0.1,3,0.1,4.4,0
		c0.9,0,1.3,0.2,1.7,1.1c4.7,12,9.5,23.9,14.3,35.8c3.7,9.3,7.5,18.7,11.2,28C129.7,119.3,129.9,119.8,130.1,120.4z M89,93.4
		c7.6,0,15,0,22.6,0c-3.8-9.6-7.5-19.1-11.3-28.9C96.4,74.3,92.7,83.8,89,93.4z"/>
	<path class="st0" d="M210.3,120.4c0.6-1.5,1.1-2.9,1.7-4.3c8-20.3,16-40.6,24-60.9c0.4-1,0.9-1.2,1.8-1.2c1.4,0.1,2.9,0.1,4.3,0
		c0.9,0,1.2,0.3,1.6,1.1c3.6,9.1,7.2,18.1,10.8,27.1c4.9,12.3,9.8,24.6,14.8,36.9c0.2,0.4,0.3,0.8,0.5,1.3c-2.5,0-5,0-7.4,0
		c-0.3,0-0.7-0.5-0.9-0.9c-2.1-5.3-4.2-10.6-6.3-15.9c-0.4-1-0.8-1.9-1.1-2.9c-0.2-0.8-0.7-0.9-1.4-0.9c-8.5,0-17,0-25.4,0
		c-0.8,0-1.2,0.3-1.4,1c-2.3,6.1-4.8,12.2-7.1,18.3c-0.4,1.1-0.9,1.4-2.1,1.4C214.6,120.3,212.5,120.4,210.3,120.4z M239.9,64.6
		c-3.8,9.8-7.5,19.3-11.3,28.8c7.6,0,15,0,22.5,0C247.5,83.8,243.8,74.3,239.9,64.6z"/>
	<path class="st0" d="M195.6,60.2c-7.1,0-14.2,0-21.4,0c0,20.1,0,40.1,0,60.1c-2.5,0-5,0-7.5,0c0-20,0-39.9,0-60.1
		c-7.3,0-14.4,0-21.6,0c0-2.1,0-4.1,0-6.2c16.8,0,33.6,0,50.5,0C195.6,56,195.6,58,195.6,60.2z"/>
	<path d="M194.6,214.5c0.4,0,0.7-0.1,1-0.1c5.6,0,11.1,0,16.7,0.1c8.9,0.2,15.4,8.9,13.1,17.4c-1.2,4.5-4.7,7.5-9.8,8
		c-3.1,0.3-6.1,0.3-9.2,0.3c-3.8,0-7.6,0-11.4,0c-0.1,0-0.2,0-0.3-0.1C194.6,231.6,194.6,223.1,194.6,214.5z"/>
	<path d="M194.6,207.6c0-7,0-14,0-21c0.2-0.1,0.3-0.1,0.4-0.1c5.6,0,11.3,0.1,16.9,0.1c1.1,0,2.2,0.3,3.3,0.6
		c5.5,1.6,8.3,6,7.6,11.9c-0.6,4.8-4.6,8.4-10.2,8.6c-5.9,0.2-11.8,0-17.7,0C194.8,207.7,194.8,207.7,194.6,207.6z"/>
	<path d="M12.8,114c0-18,0-35.8,0-53.6c0.2,0,0.4-0.1,0.5-0.1c4.6,0,9.2-0.1,13.8,0.1c9,0.5,15,5.3,17.8,13.9
		c1.8,5.6,2.3,11.4,1.8,17.2c-0.3,3.2-0.8,6.4-1.7,9.4c-2.2,7.3-7.5,11.4-14.9,12.6c-3.5,0.5-7.1,0.4-10.6,0.5
		C17.3,114,15.1,114,12.8,114z"/>
	<path d="M89,93.4c3.8-9.6,7.5-19.1,11.3-28.9c3.8,9.8,7.5,19.2,11.3,28.9C104,93.4,96.6,93.4,89,93.4z"/>
	<path d="M239.9,64.6c3.8,9.8,7.5,19.2,11.3,28.8c-7.5,0-14.9,0-22.5,0C232.4,83.9,236.1,74.4,239.9,64.6z"/>
</g>
</svg>
