<svg width="16" height="19" viewBox="0 0 16 19" fill="none" xmlns="http://www.w3.org/2000/svg">
<path fill-rule="evenodd" clip-rule="evenodd" d="M3.66055e-08 9.49999C3.66055e-08 10.4283 0.368749 11.3185 1.02513 11.9749C1.6815 12.6312 2.57174 13 3.5 13H7V15.586L5.707 14.293C5.5184 14.1108 5.2658 14.01 5.0036 14.0123C4.7414 14.0146 4.49059 14.1198 4.30518 14.3052C4.11977 14.4906 4.0146 14.7414 4.01233 15.0036C4.01005 15.2658 4.11084 15.5184 4.293 15.707L7.293 18.707C7.48053 18.8945 7.73484 18.9998 8 18.9998C8.26516 18.9998 8.51947 18.8945 8.707 18.707L11.707 15.707C11.8892 15.5184 11.99 15.2658 11.9877 15.0036C11.9854 14.7414 11.8802 14.4906 11.6948 14.3052C11.5094 14.1198 11.2586 14.0146 10.9964 14.0123C10.7342 14.01 10.4816 14.1108 10.293 14.293L9 15.586V13H11.5C12.1167 12.9996 12.7268 12.8725 13.2924 12.6265C13.8579 12.3805 14.3668 12.0209 14.7876 11.5699C15.2083 11.119 15.5319 10.5864 15.7382 10.0052C15.9445 9.42397 16.0291 8.80656 15.9868 8.19128C15.9445 7.576 15.7761 6.97598 15.4922 6.42848C15.2083 5.88097 14.8149 5.39767 14.3364 5.00858C13.8579 4.61949 13.3045 4.33291 12.7106 4.16663C12.1167 4.00035 11.495 3.95793 10.884 4.04199C10.7659 3.52058 10.5445 3.02811 10.2329 2.59367C9.92137 2.15923 9.5259 1.79162 9.0699 1.51255C8.61389 1.23347 8.10659 1.0486 7.57795 0.968834C7.04931 0.88907 6.51005 0.916034 5.99201 1.04813C5.47396 1.18024 4.98763 1.41479 4.56174 1.73796C4.13585 2.06113 3.77903 2.46636 3.51234 2.92971C3.24565 3.39307 3.07451 3.90516 3.00901 4.43576C2.94351 4.96635 2.98499 5.50469 3.131 6.01899C2.27136 6.11013 1.47586 6.51618 0.897764 7.1589C0.319667 7.80162 -0.00012492 8.63554 3.66055e-08 9.49999ZM9 13H7V7.99999C7 7.73478 7.10536 7.48042 7.29289 7.29289C7.48043 7.10535 7.73478 6.99999 8 6.99999C8.26522 6.99999 8.51957 7.10535 8.70711 7.29289C8.89464 7.48042 9 7.73478 9 7.99999V13Z" fill="#3F3F46"/>
</svg>
