<svg xmlns="http://www.w3.org/2000/svg" xmlns:xlink="http://www.w3.org/1999/xlink" viewBox="0 0 2331.73 529.76"><defs><style>.cls-1{fill:none;}.cls-2{clip-path:url(#clip-path);}.cls-3{clip-path:url(#clip-path-2);}</style><clipPath id="clip-path" transform="translate(0 -177.69)"><rect class="cls-1" x="2.5" width="2324.41" height="884.41"/></clipPath><clipPath id="clip-path-2" transform="translate(0 -177.69)"><rect class="cls-1" y="177.69" width="2331.74" height="529.76"/></clipPath></defs><title>Asset 1</title><g id="Layer_2" data-name="Layer 2"><g id="Layer_1-2" data-name="Layer 1"><g class="cls-2"><g class="cls-3"><g class="cls-3"><path d="M1044.07,177.69c.62.37,1.21,1,1.87,1.08,3.45.41,6.93.56,10.37,1,5.41.75,10.79,1.66,16.18,2.54,3.77.62,7.56,1.17,11.29,2s7.46,1.76,11.11,2.9c7.05,2.2,14.06,4.52,21.06,6.9a109.69,109.69,0,0,1,10.75,4.08c7.85,3.63,15.78,7.16,23.35,11.32,7.78,4.27,15.34,9,22.69,14,6.5,4.41,12.54,9.52,18.85,14.21,11,8.21,20.43,18.21,29.71,28.21A155.32,155.32,0,0,1,1240,289.65c3.69,6,7.92,11.64,11.41,17.74,5.29,9.24,10.44,18.59,15.07,28.17,3.28,6.78,5.67,14,8.31,21.07,2.16,5.78,4.25,11.6,6.07,17.49,1.25,4.06,2,8.27,2.93,12.42.85,3.7,1.74,7.4,2.54,11.11.38,1.77.63,3.58.89,5.38.39,2.71.74,5.42,1.08,8.13q.87,6.91,1.71,13.82a21.24,21.24,0,0,1,.07,2.5c0,12.24,0,24.48,0,36.72,0,2,0,3.21,2.64,3.37,4.17.24,8.31,1,12.45,1.67,3.33.5,6.64,1.12,10,1.65,2.25.36,4.5.75,6.76,1,3.27.36,6.58.51,9.84.94s6.27,1.07,9.4,1.61c.64.11,1.29.11,1.93.2,4,.57,7.92,1.17,11.89,1.72,2.44.34,4.89.63,7.34.89,3.28.35,6.57.58,9.83,1s6.29,1,9.43,1.52c.45.07.9.18,1.36.23,5.62.63,11.26,1.17,16.87,1.9,3.24.42,6.44,1.15,9.67,1.71,2.76.48,3.31,0,3.31-3.06q0-70.95,0-141.89a6.51,6.51,0,0,1,.06-2.2,2.78,2.78,0,0,1,1.44-1.51,7.72,7.72,0,0,1,2.48-.08c34.68,0,69.37.05,104.05-.07a38.65,38.65,0,0,1,12.36,2.25,99,99,0,0,1,17.89,7.68c5.35,3.06,10.89,6,15.29,10.66,4.93,5.18,9.34,10.68,12.25,17.23,2,4.41,3.61,9,5.32,13.47.25.66-.1,1.55.17,2.19.51,1.2,1,2.74,2,3.35,4.61,2.85,9.4,5.39,14.09,8.1,7.06,4.09,14.08,8.26,21.13,12.37,4.21,2.45,8.45,4.82,12.68,7.24,8.44,4.83,16.85,9.7,25.31,14.51,8.77,5,17.58,9.93,26.37,14.9,1.92,1.09,3.79,2.25,5.72,3.31a5.14,5.14,0,0,0,1.53.3,4.79,4.79,0,0,0,.11-1.57c-2-7.06-4.07-14.09-6-21.15-2.13-7.69-4.16-15.41-6.23-23.12s-4.22-15.59-6.25-23.4a2.59,2.59,0,0,1,.75-1.86c4.47-5.13,9-10.19,13.49-15.32q5.52-6.33,10.91-12.76c2.53-3,5.43-5.86,7.26-9.27,1.2-2.23,3.1-3.4,4.54-5.17,1.24-1.52,2.53-1.45,4-.1,5,4.49,10,8.91,15.09,13.32,4.5,3.93,9,7.86,13.56,11.73,3.15,2.67,6.46,5.14,9.55,7.87,2.75,2.43,3.45,2.7,1.94,6.32a2.59,2.59,0,0,0-.13.82c-.33,4.68-.56,9.36-1,14-.41,4.17-1.07,8.32-1.62,12.48,0,.37-.1.74-.12,1.11-.31,4.4-.5,8.81-1,13.2-.41,4-1.12,7.93-1.65,11.9a23.2,23.2,0,0,0-.13,3.05q0,32.55,0,65.1c0,1.51.09,2.59,1.76,3.6,5.4,3.27,10.6,6.88,15.83,10.43,6.06,4.11,12,8.38,18.12,12.41a9.69,9.69,0,0,0,5,1.73c6.07-.06,12.14-.45,18.2-.81,3.47-.2,6.93-.6,10.4-.88,4-.33,8-.62,12.06-.93l11.52-.87,11.78-.92,11.78-.92c3.84-.3,7.69-.52,11.52-.9a11.83,11.83,0,0,0,4.75-1.14c.88-.52,1.16-2.14,1.61-3.3,1.89-4.93,3.74-9.88,5.61-14.82l4.34-11.48c1.74-4.6,3.49-9.18,5.21-13.78,2.21-5.88,4.36-11.78,6.6-17.65,2.17-5.7,4.45-11.37,6.61-17.08,2-5.35,3.93-10.75,6-16.1,1.71-4.51,3.57-9,5.28-13.47,2.2-5.78,4.29-11.61,6.49-17.39,1.65-4.33,3.45-8.61,5.1-12.94,2.26-5.95,4.4-11.93,6.64-17.88,1.92-5.11,3.93-10.19,5.87-15.29s6.57-8.16,10.26-11.83c1.34-1.33,3.52.06,4.87,1.14,2.74,2.17,5.29,4.57,7.86,6.94a5,5,0,0,1,1.11,1.88q3,7.89,6,15.8c1.59,4.26,3.12,8.54,4.7,12.8,1.67,4.52,3.39,9,5.06,13.54s3.39,9.22,5.06,13.84c2.31,6.4,4.52,12.84,6.91,19.22,2.49,6.64,5.2,13.21,7.7,19.85,1.73,4.59,3.12,9.32,4.89,13.89,2,5.23,3.85,10.43,8.16,14.65,5.09,5,9.28,10.86,13.89,16.33q2.92,3.48,5.94,6.88c2.88,3.23,5.88,6.35,8.69,9.64,4.53,5.3,8.95,10.69,13.41,16,2.58,3.1,4.93,6.44,7.85,9.18,1.46,1.38,3.92,1.75,6,2.43,7.37,2.4,14.77,4.73,22.16,7.09q9.9,3.16,19.81,6.3,8.87,2.8,17.76,5.57c2.58.8,2.59.78,2.6-2.06,0-.28,0-.55,0-.83q0-100.44,0-200.87a8.38,8.38,0,0,1,2.64-6.68,8.14,8.14,0,0,0,1.17-1.84c2.49-4.09,6.9-4,9.59-.07a85.62,85.62,0,0,0,6,8c5.14,5.89,11.74,9.83,17.63,14.7,4.95,4.09,9.9,8.18,14.95,12.16,4.82,3.8,9.79,7.41,14.63,11.18,3.4,2.65,6.78,5.34,10,8.19a2.2,2.2,0,0,0,2.89.41q8.57-4.15,17.19-8.19,13-6.1,26-12.13c8.25-3.83,16.53-7.61,24.78-11.44,9.17-4.26,18.29-8.64,27.52-12.77,2.71-1.21,5.22-2.22,5.65-5.62.06-.52.84-.94,1.26-1.44,1.42-1.68,2.84-3.35,4.22-5.06,1-1.27,2-1.26,2.91,0,1.44,2.11,2.76,4.3,4.12,6.46V603.95c-2.62,4.95-7.26,5.27-10.37.85a5,5,0,0,0-3-2c-5.4-.5-10.83-.71-16.25-1-.65,0-1.3,0-1.94-.07-5.75-.55-11.48-1.25-17.24-1.62-7.55-.48-15.11-.7-22.66-1l-.56,0c-5.74-.57-11.48-1.18-17.23-1.69-4.12-.36-8.25-.58-12.37-.85-4.78-.32-9.55-.61-14.33-.94-4.3-.29-8.6-.65-12.91-.93-4.77-.31-9.55-.54-14.33-.85-4.22-.27-8.43-.66-12.66-.91-6.34-.37-12.68-.71-19-.95-3.8-.15-3.79,0-3.81,3.69,0,3.17.5,6.4-1.85,9.18s-4.39,5.36-8.12,1a8.12,8.12,0,0,0-2.51-2.13,3.11,3.11,0,0,1-1.92-3.31c.05-5.38,0-10.76,0-16.14,0-7.79,0-15.58,0-23.37,0-2.55-.17-2.62-2.46-1.56l-14,6.48c-4.08,1.89-8.18,3.75-12.24,5.68q-9.6,4.56-19.16,9.19c-3.82,1.85-7.58,3.82-11.41,5.66-4.73,2.26-9.52,4.4-14.24,6.67a2.13,2.13,0,0,0-1,3.26c.35.65.69,1.3,1,2a8.34,8.34,0,0,1,.44,7.3c-.8,2-2.5,1.53-4,1.9a3,3,0,0,0-1.1.81c-1.17,1.08-2.23,1-3.42-.06a34.47,34.47,0,0,0-5.63-4.39,6,6,0,0,1-2.94-4.08c-1.09-3.87-2.63-5-6.71-5.11-14.15-.4-28.29-.17-42.45-.55-20.61-.55-41.27-1.16-61.9.47-9.28.73-18.63-.46-27.95.86-4.91.7-10,.07-15,.21-6.73.18-13.45.46-20.16.89a3.37,3.37,0,0,0-2.53,1.9c-1,5.53-5.79,7.47-9.54,10.37a2.34,2.34,0,0,1-2.07-.11c-3.3-1.95-4.58-5.7-7.19-8.31-.32-.31.12-1.53.4-2.26,1.26-3.32,2.61-6.6,3.87-9.92,2.19-5.78,4.29-11.59,6.49-17.36,1.69-4.43,3.54-8.79,5.22-13.22,2.17-5.7,4.26-11.43,6.39-17.15,1.49-4,3-8,4.47-12a10.62,10.62,0,0,0,.32-2.06,10.7,10.7,0,0,0-2,.59c-6.79,3.51-13.55,7.07-20.33,10.58q-12.51,6.48-25,12.91-13.14,6.78-26.26,13.58c-8,4.16-15.89,8.58-24,12.46-9.37,4.46-18.21,10.05-28.18,13.29-10.27,3.33-20.48,6.84-30.69,10.38-2.69.93-5.25,1.77-7.08,4.63-2.76,4.29-3.27,4.05-7,.39-.79-.78-1.54-1.62-2.37-2.35a4.62,4.62,0,0,0-1.64-.95c-6.11-1.85-12.23-3.7-18.37-5.45-1.46-.41-1.53-1.3-1-2.28.66-1.3,1.58-2.47,2.37-3.7,4.07-6.39,8-12.85,12.25-19.17,2.69-4,5.13-8,4.11-13.18a6.39,6.39,0,0,1,0-2.22c.75-4.58-1.63-7.87-4.31-11.15-2.31-2.83-4.39-5.84-6.55-8.8-1.88-2.58-3.72-5.2-5.59-7.79q-4.42-6.1-8.88-12.19c-1.08-1.48-1.87-3.43-3.31-4.29a15.45,15.45,0,0,0-6.22-1.74c-4.74-.5-9.52-.69-14.28-1-.18,0-.37,0-.55-.07-4.07-.56-8.12-1.25-12.21-1.65-4.75-.46-9.52-.67-14.28-1l-.55-.06c-4.16-.57-8.3-1.26-12.48-1.67-4.66-.46-9.34-.65-14-1l-.55-.06c-4-.57-7.92-1.29-11.91-1.67-4.76-.46-9.54-.63-14.31-.93l-.56,0c-5.54-.59-11.07-1.18-16.6-1.8a14.76,14.76,0,0,1-2.68-.52c-2.2-.67-4.19-.66-5.73,1.38-2.25,3-4.55,6-6.77,9-1.94,2.65-3.79,5.36-5.73,8-2.32,3.17-4.83,6.21-7,9.49a24.87,24.87,0,0,1-7.94,7.82c-7,4.24-13.92,8.51-20.71,13-11.31,7.48-22.47,15.17-33.72,22.72-11.64,7.81-23.28,15.63-35,23.25-1.9,1.23-2.88,2.3-2.7,4.56a3.44,3.44,0,0,1-1.12,2.07c-1.8,2-4.52,2.81-6.14,5.11-.67.95-1.8.72-2.68-.57-1-1.5-2.27-3.42-3.81-3.88-2.85-.85-4.41-3-6.23-4.82-2.52-2.54-4.71-5.4-7.17-8-6.34-6.71-12.75-13.36-19.13-20l-18.76-19.64-19.53-20.46-18.34-19.25q-9.56-10-19.15-20-8.76-9.1-17.61-18.12c-.16-.16-.52-.35-.62-.28a1,1,0,0,0-.36.67c-.6,5.06-1.12,10.14-1.78,15.19-.53,4.15-1.17,8.28-1.84,12.41-.29,1.79-.73,3.55-1.19,5.3-.75,2.89-1.56,5.76-2.34,8.64-1.35,5-2.6,10-4.08,14.93-.83,2.78-2,5.47-3.09,8.17-2.85,7.2-5.37,14.56-8.69,21.54-3.61,7.61-7.76,15-12.07,22.25-4.11,6.9-8.53,13.64-13.17,20.19s-9.45,13.07-14.72,19.13c-4.93,5.67-10.52,10.79-15.92,16-4.1,4-8.35,7.82-12.57,11.67a84.06,84.06,0,0,1-6.9,5.92c-5.91,4.31-11.81,8.65-18,12.6-7.17,4.6-14.42,9.12-21.95,13.09-7.87,4.16-16.05,7.76-24.21,11.35-4.42,1.95-9.06,3.37-13.61,5-1.54.56-3.07,1.19-4.65,1.64-4.92,1.38-9.84,2.73-14.79,4-4.49,1.15-9,2.31-13.52,3.2-4.2.82-8.45,1.36-12.7,1.91-4.88.64-9.79,1.13-14.67,1.78a10.19,10.19,0,0,0-2.51,1.07h-43.41c-.63-.37-1.23-1-1.89-1.06-6.09-.67-12.25-.94-18.28-1.93-6.81-1.12-13.53-2.81-20.26-4.37-6.2-1.43-12.46-2.71-18.51-4.62-8.08-2.56-16.1-5.39-23.93-8.63A268.18,268.18,0,0,1,899.4,675.5c-8.23-4.41-16.19-9.39-23.94-14.6-6.53-4.39-12.55-9.52-18.88-14.21-9.33-6.92-17.21-15.37-25.28-23.62a191.13,191.13,0,0,1-14.06-15.9c-5.72-7.34-11.08-15-16.33-22.66a138,138,0,0,1-7.11-12.38c-3.41-6.31-7-12.53-9.95-19.06-3.53-7.89-6.49-16-9.57-24.12-1.48-3.89-2.76-7.87-3.95-11.86s-2.22-8.22-3.29-12.33c-.87-3.33-1.79-6.64-2.55-10-.48-2.13-.72-4.31-1-6.48q-1-7.59-1.84-15.18c-.32-2.72-.27-5.52-1-8.14-1.21-4.65-.69-9.33-.85-14a3.7,3.7,0,0,0-.47-1.16c-.37.23-.77.42-1.11.68q-6.73,5-13.44,10c-1.54,1.15-3,2.37-4.52,3.58-3.42,2.77-6.82,5.58-10.24,8.35-3.76,3-5.66,7.41-8.1,11.37-4.22,6.85-8.23,13.84-12.28,20.8-2.4,4.11-4.67,8.3-7.08,12.41-3.93,6.72-7.92,13.4-11.89,20.1-.93,1.58-2.19,3-2.75,4.74-1,3-3.28,4.17-5.76,5.51-7.93,4.27-15.79,8.66-23.64,13.06Q648.22,566.15,638,572c-6.22,3.55-12.44,7.11-18.59,10.76a3,3,0,0,0-1.06,2.19c-.11,3.61-.21,7.24,0,10.85a7.85,7.85,0,0,1-3.58,7.07,39.12,39.12,0,0,1-6,3.16,1.34,1.34,0,0,1-1.07.11c-2.19-1.42-4.87-2.52-6.33-4.5-1.34-1.82-1.67-4.59-1.87-7a92.84,92.84,0,0,1,0-10.29,3.23,3.23,0,0,0-2-3.49c-8.48-4-16.89-8.19-25.36-12.26-5-2.39-10-4.68-15-7-4.33-2-8.66-4.05-13-6a2.8,2.8,0,0,0-2,0c-7.12,2.9-14.18,6-21.33,8.78-9,3.56-18.11,6.89-27.14,10.41-5.28,2.06-10.48,4.36-15.74,6.47s-10.34,4.17-15.59,6c-4.45,1.6-5,2.55-3.35,6.82.55,1.41,1.75,3.27,1.28,4.25-1,2.16-2.93,3.93-4.58,5.76a5.71,5.71,0,0,1-2.28,1.49,3.58,3.58,0,0,1-2.53.15c-3.27-1.83-6-4.13-6.57-8.22a13.83,13.83,0,0,0-1.8-4,1.64,1.64,0,0,0-1-.8,53.16,53.16,0,0,0-7.33-1q-37.2-.53-74.4-.9c-2.41,0-4.82,0-7.23,0-15,.28-30,0-44.89,1.09-9.25.7-18.45.21-27.65.7-4.86.26-9.72.52-14.57,1a3.18,3.18,0,0,0-2.25,1.91c-.94,4.37-3,7.85-7.08,9.87-.78.39-2.22.68-2.7.26a52,52,0,0,1-5.51-5.62c-1.94-2.27-.34-4.49.45-6.64,2.49-6.83,5-13.64,7.6-20.45,2-5.2,4-10.37,5.9-15.57q3.2-8.56,6.32-17.14a5.58,5.58,0,0,0,.16-1.29,4.28,4.28,0,0,0-1.52,0c-7.93,3-15.83,6.18-23.78,9.17-6.24,2.34-12.57,4.42-18.81,6.74-6.68,2.49-13.28,5.2-20,7.7-6.25,2.33-12.58,4.43-18.83,6.76-5.74,2.14-11.39,4.51-17.11,6.69-4.43,1.69-9,3.05-13.35,4.91a44.28,44.28,0,0,0-7.72,4.54,143,143,0,0,1-21.5,12.3A128,128,0,0,1,110.34,604c-3.5,1.1-7,2.35-10.91,2.33-32-.2-64-.11-96-.11-3.44,0-3.45,0-3.45-3.47Q0,470.47,0,338.17c0-3.3,0-3.31,3.34-3.31,33.39,0,66.77-.11,100.16.14,4.15,0,8.38,1.65,12.39,3a171.94,171.94,0,0,1,17.32,6.91,51.53,51.53,0,0,1,10.87,6.9c6.43,5.36,12.76,10.91,18.64,16.86a94.16,94.16,0,0,1,10.74,13.54,97,97,0,0,1,7.78,13.9c2.8,6.1,5.6,12.24,7,18.91.93,4.52,2.42,8.92,3.39,13.43a76.43,76.43,0,0,1,1,8.69c1.84,19.11.6,38.27.81,57.4,0,4.41-1,8.83-1.63,13.25-.28,2.07-.54,4.16-1,6.2-1,4.67-2.12,9.34-3.32,14-.51,1.95-.3,2.48,1.86,2.5,5.19,0,10.45.55,15.57-.09,12.65-1.6,25.36.24,37.94-.94,9.35-.88,18.65-.4,28-.71,1.3,0,1.74-.47,2.22-1.79,2.44-6.76,5.22-13.39,7.71-20.13,2.62-7.08,5-14.26,7.57-21.34,2.1-5.72,4.44-11.36,6.62-17.05,1.68-4.42,3.25-8.87,4.89-13.31,1.73-4.69,3.53-9.36,5.23-14.06,2.28-6.32,4.42-12.7,6.78-19,2.14-5.71,4.56-11.32,6.7-17,1.75-4.68,3.23-9.46,4.93-14.15,1.52-4.2,3.22-8.33,4.76-12.52,2.38-6.48,4.64-13,7.06-19.48s5.32-13,7.45-19.65a14.81,14.81,0,0,1,4.26-6.77,7.83,7.83,0,0,1,10.48-.06c1.09,1,2.31,1.8,3.44,2.73a3.26,3.26,0,0,1,1.1,1.2c1.89,5.39,3.64,10.83,5.58,16.2,2,5.65,4.26,11.24,6.4,16.85q3.1,8.15,6.2,16.31t6.26,16.6c2.14,5.71,4.25,11.43,6.41,17.13,2,5.36,4.13,10.7,6.15,16.07,2.18,5.78,4.27,11.6,6.46,17.37,1.64,4.33,3.43,8.61,5.08,12.94s3.19,8.7,4.81,13,3.27,8.5,4.87,12.76c2.65,7.07,5.2,14.19,7.91,21.24,2.78,7.22,5.74,14.37,8.58,21.58.8,2,1.41,4.14,2.14,6.2.48,1.36,1.27,1.51,2.57.84,6.08-3.11,12.23-6.07,18.3-9.18,5.73-2.94,11.39-6,17.1-9,7.51-3.92,15.05-7.79,22.56-11.71,6-3.11,11.89-6.26,17.83-9.38q10.77-5.64,21.55-11.27c6.28-3.29,12.57-6.55,18.81-9.93a7.44,7.44,0,0,0,2.76-2.56c4.4-7.38,8.66-14.85,13-22.26q8.58-14.55,17.24-29c2.63-4.41,5.34-8.76,7.9-13.21a7.11,7.11,0,0,0,.84-3.38q.07-30,0-60.1c0-3,0-3-3.15-3-28.56,0-57.13-.09-85.69.1-3.43,0-5.31-1.57-7.2-3.74a11.2,11.2,0,0,1-1.8-2.75c-.73-1.65-.91-3.31.44-4.87,5.06-5.84,5-5.86,12.71-5.86q96,0,192,0a6.45,6.45,0,0,1,5.36,2.2,85.69,85.69,0,0,0,6.08,6.11c1.4,1.29,1.3,2.35-.13,3.37s-2.89,1.94-4.37,2.85-2,2-1.05,3.67c3.89,7.07,7.68,14.19,11.52,21.28S731.64,384,735.6,391c3.78,6.69,7.73,13.29,11.72,19.86,3.7,6.1,7.56,12.12,11.36,18.16a3.79,3.79,0,0,0,.9.75,4.47,4.47,0,0,0,.3-1c.3-4.85.45-9.71.92-14.54.32-3.33,1.14-6.6,1.65-9.91.4-2.61.57-5.25,1-7.85.7-3.83,1.56-7.62,2.4-11.42.66-3,1.28-6,2.09-9,1.31-4.8,2.65-9.59,4.17-14.32,1.81-5.62,3.8-11.19,5.74-16.76a53.15,53.15,0,0,1,2.06-5.35c3.82-8,7.38-16.24,11.66-24,4.44-8.09,9.45-15.88,14.52-23.61,2.85-4.35,6.28-8.32,9.49-12.43,3.44-4.4,6.86-8.82,10.45-13.09,2-2.33,4.27-4.38,6.43-6.54,4.78-4.79,9.42-9.75,14.41-14.3,4.33-3.95,9-7.48,13.63-11.12,4.1-3.25,8.22-6.46,12.43-9.57a85.78,85.78,0,0,1,9.1-6.17c10.2-5.68,20.31-11.58,30.84-16.59,8.73-4.16,18-7.29,27-10.66,5.2-1.93,10.52-3.57,15.85-5.11,3.22-.93,6.57-1.42,9.86-2.13,3.64-.79,7.26-1.68,10.92-2.41,2.5-.5,5-.83,7.55-1.22,3.6-.55,7.19-1.17,10.8-1.6,1.92-.23,3.89,0,5.82-.23a15.68,15.68,0,0,0,3.25-1.1ZM440.12,587l-.29.63.22.08,0-.71c-.77-2.14-1.51-4.29-2.32-6.41q-5.62-14.79-11.26-29.57c-1-2.56-2.07-3-4.65-2.12-2.24.8-4.47,1.64-6.75,2.31-5.95,1.74-11.94,3.35-17.89,5.09-6.48,1.89-12.94,3.86-19.4,5.85-.43.13-.75.61-1.12.93a7.22,7.22,0,0,0,1.26.83c3.4,1.35,6.81,2.65,10.21,4s6.77,2.78,10.19,4.09c7,2.68,14,5.27,21,8,6.05,2.34,12,4.83,18.11,7.14.76.29,1.77-.07,2.64-.12m593.11,94.9-.51.09c.42,2,1.34,4.14,1.13,6.11-.38,3.61,1.56,5,4.41,5.9a3,3,0,0,0,2.35-.21,52.77,52.77,0,0,0,4.93-4.46q17.94-18.06,35.84-36.15l173.84-175.53c6-6.06,12.11-12,17.94-18.24,1.22-1.3,2.53-4,2-5.2-2.41-5.22-5.59-10.09-8.33-15.17-5.23-9.7-10.32-19.46-15.51-29.18-4.15-7.77-8.37-15.5-12.52-23.27-5.06-9.47-10.08-19-15.13-28.45-2.16-4.05-4.37-8.08-6.52-12.13-4.9-9.24-9.76-18.5-14.67-27.73-2.29-4.3-4.67-8.55-7-12.84q-7.08-13.23-14.12-26.48c-2.21-4.13-4.46-8.24-6.64-12.38-3.6-6.83-7.16-13.68-10.77-20.51-1.07-2-2.3-4-3.34-6-1.39-2.7-3.3-5.32-3.86-8.2-.67-3.44-2.88-4.93-5.41-6.4a3.84,3.84,0,0,0-2-.12c-4,.27-5,4-7,6.47-3.58,4.48-6.6,9.4-10,14.07-3.52,4.89-7.22,9.65-10.74,14.54-3.36,4.67-6.51,9.5-9.89,14.16-4.41,6.08-9,12-13.42,18.09s-8.88,12.44-13.4,18.6q-19.51,26.56-39.1,53.07-15.43,20.93-30.86,41.87c-.89,1.21-1.2,1.4-2.24,0-3.17-4.36-6.66-8.48-9.89-12.8-4.88-6.54-9.6-13.19-14.45-19.74-6.21-8.39-12.52-16.7-18.72-25.1q-32.45-44-64.85-88c-5.17-7-10.4-14-15.47-21.08-1.22-1.7-2.37-1.76-3.93-.84-1.81,1.07-.93,2.42-.16,3.51,2,2.85,4.17,5.57,6.21,8.39,2.83,3.93,5.57,7.92,8.38,11.87,1.75,2.46,3.56,4.88,5.36,7.3,2.89,3.88,5.82,7.74,8.69,11.64,2.11,2.86,4.14,5.78,6.22,8.67q4.16,5.78,8.34,11.55c1.87,2.6,3.73,5.21,5.61,7.8,2.95,4.06,5.94,8.09,8.87,12.17,2.4,3.34,4.67,6.77,7.1,10.08,2.87,3.91,5.9,7.71,8.77,11.62,3.78,5.16,7.44,10.39,11.19,15.57,2.57,3.55,5.23,7,7.79,10.61,2.82,3.93,5.53,7.94,8.39,11.85s5.88,7.71,8.75,11.62,5.72,8,8.56,12a19.5,19.5,0,0,1,1.79,2.75c.28.58,2.62,1.1.33,1.95a10.83,10.83,0,0,1-3.31.14,1.72,1.72,0,0,0-.26.08c-4.36.85-8.71,1.8-13.1,2.52s-9,1.23-13.55,1.88c-2,.28-3.95.66-5.91,1.05-4,.8-8,1.76-12,2.44-4.49.76-9,1.26-13.53,1.91-2,.29-4,.63-5.93,1-2.67.51-5.31,1.16-8,1.61s-5.27.6-7.88,1c-4.93.82-9.85,1.75-14.77,2.62-2.16.38-4.32.72-6.47,1.12-2.67.5-5.32,1.11-8,1.55s-5.26.62-7.86,1.06c-4.75.8-9.48,1.72-14.22,2.56-2.24.4-4.51.67-6.75,1.08-2.68.49-5.33,1.15-8,1.59s-5.25.63-7.87,1c-2,.29-3.94.7-5.9,1.08-2.59.5-5.16,1.1-7.76,1.53-4.22.7-8.47,1.22-12.69,2-4.38.77-8.71,1.82-13.09,2.54s-9,1.21-13.55,1.86c-2.07.3-4.12.74-6.17,1.12-2.77.51-5.53,1-8.29,1.55a20,20,0,0,0-5,1.19,3.53,3.53,0,0,0-1.31,2.93c.07.77,1.2,1.77,2.06,2.06a7.21,7.21,0,0,0,3.28-.14c6.07-1.07,12.12-2.25,18.19-3.27,4.43-.74,8.91-1.19,13.33-2,6.19-1.08,12.34-2.43,18.53-3.48,4.49-.77,9-1.21,13.56-1.87,2.16-.32,4.29-.8,6.44-1.19,2.77-.5,5.54-1,8.31-1.48,2.52-.41,5.07-.65,7.58-1.1,4.38-.78,8.73-1.75,13.12-2.48s9-1.26,13.54-1.91c1.9-.27,3.79-.57,5.67-.93,4.37-.84,8.71-1.82,13.09-2.55s9-1.25,13.54-1.89c2-.28,4-.63,5.92-1,4.37-.83,8.71-1.8,13.1-2.53s9-1.24,13.53-1.89c2-.29,4-.68,5.92-1,4.37-.83,8.73-1.77,13.12-2.49s9-1.24,13.55-1.89c2-.29,3.94-.68,5.91-1,3.75-.67,7.5-1.37,11.26-2,.24,0,.78.42.82.71.36,2.15.75,4.31.91,6.49.38,5,.63,10.07.94,15.1,0,.28.06.55.1.83.56,4.14,1.28,8.27,1.66,12.43.47,5.21.65,10.44,1,15.66,0,.18,0,.37,0,.55.58,4.23,1.3,8.46,1.7,12.71.47,4.92.65,9.88,1,14.82,0,.18,0,.37.06.55.57,4.6,1.26,9.19,1.69,13.81.45,4.83.66,9.69,1,14.54,0,.18,0,.37.07.55.57,4.42,1.25,8.83,1.67,13.27.45,4.74.66,9.51,1,14.27,0,.09,0,.18,0,.28.58,4.51,1.3,9,1.71,13.53.45,4.93.62,9.89.92,14.84q0,.28.05.55c.59,4.32,1.34,8.62,1.73,13,.46,5,.62,10.08.91,15.12,0,.28,0,.56.06.83.59,4.14,1.33,8.25,1.72,12.41.46,4.93.63,9.88.92,14.82,0,.19,0,.37,0,.56.58,4.51,1.3,9,1.72,13.54.46,4.93.65,9.88,1,14.82,0,.18,0,.37.05.55l1.91,15.19m379.48-141.35q0-25.87,0-51.74a9.47,9.47,0,0,0-.07-2.21,1.62,1.62,0,0,0-1-1.06c-2.62-.4-5.25-.7-7.88-1-1-.11-2,0-3-.17-3-.5-6.07-1.21-9.12-1.61-3.35-.45-6.74-.61-10.11-1-2.27-.25-4.52-.63-6.78-1-3.87-.56-7.74-1.16-11.62-1.67-3-.39-6-.64-9-1-4.07-.53-8.13-1.13-12.2-1.69-.55-.07-1.11-.06-1.66-.15-3.41-.55-6.8-1.18-10.22-1.65-3.08-.42-6.2-.56-9.28-1-5.4-.8-10.77-1.83-16.18-2.59-3.53-.49-7.1-.66-10.66-1-.5,0-1-.14-1.51-.21a10.09,10.09,0,0,0,.91,1.31q9.47,9.94,19,19.85L1331,510.65q9.37,9.82,18.74,19.64Q1360,541,1370.27,551.7c5.81,6.08,11.58,12.19,17.4,18.26q11.41,11.92,22.86,23.79a16.42,16.42,0,0,0,1.69,1.36,11.52,11.52,0,0,0,.47-2.29q0-26.15,0-52.3m788,9.8a21.82,21.82,0,0,0,16.24-4.78c4.93-3.95,10.27-7.39,15.5-10.94,8.25-5.61,16.57-11.13,24.86-16.68,2.06-1.38,2.3-2.45.93-4.41-4.24-6.06-8.52-12.09-12.72-18.18-3.06-4.43-6-8.94-9-13.41-2.5-3.72-5-7.46-7.54-11.13-3.92-5.62-8-11.17-11.87-16.79s-7.73-11.3-11.6-16.95a5.82,5.82,0,0,0-.7-.72c-.16.29-.34.57-.47.87-2.84,6.45-5.65,12.91-8.51,19.34-1.9,4.28-4,8.48-5.77,12.79-2.35,5.56-4.44,11.22-6.83,16.76-2.24,5.2-4.78,10.26-7.1,15.43-3.37,7.52-6.63,15.09-10,22.61-3.19,7.11-6.47,14.19-9.69,21.29-.91,2-1.7,4.05-2.62,6-.52,1.12-.2,1.62,1,1.48,1.63-.19,3.24-.62,4.87-.74,5.6-.4,11.18,0,16.83-.75,7.55-1,15.27-.78,24.25-1.13M2319,404.8q0-27.4,0-54.79c0-2.52,0-2.51-2.16-1.53-2.91,1.35-5.85,2.65-8.77,4q-12.63,5.85-25.24,11.72-13.5,6.28-27,12.59c-6.83,3.21-13.63,6.48-20.44,9.71l-14.71,7c-1.28.6-2.25.95-.25,2.21,4.1,2.59,8,5.52,12,8.24q16.75,11.32,33.55,22.59c11.08,7.47,22.14,15,33.24,22.45,6.08,4.09,12.23,8.07,18.31,12.16,1.08.72,1.46.64,1.46-.66,0-.55,0-1.11,0-1.67q0-27,0-54M18.57,454.67c-.15,4.52-.4,9,2.4,13.05,1.1,1.6,1.42,3.72,2.11,5.6q2.81,7.69,5.64,15.37c2,5.45,4.08,10.88,6.09,16.33,1.7,4.6,3.31,9.24,5,13.83,2.49,6.65,5.17,13.23,7.48,19.93.59,1.71.77,1.48,1.8.53,2.91-2.68,5.93-5.24,8.8-8,7.24-6.86,14.41-13.8,21.63-20.69,6-5.74,12.07-11.43,18.06-17.18q13.1-12.59,26.12-25.25c.42-.4,1-1.15.83-1.53a2.19,2.19,0,0,0-1.48-1q-4.66-1-9.36-1.87c-5.28-1-10.59-1.77-15.85-2.83s-10.27-2.37-15.43-3.43c-6.23-1.28-12.5-2.4-18.74-3.61-6.07-1.18-12.13-2.43-18.2-3.61-6.34-1.23-12.68-2.43-19-3.63-1.7-.32-3.41-.64-5.12-.9-1.9-.29-3,.26-2.82,2.5s0,4.26,0,6.39M725.76,470c.19-.24.6-.54.66-.9.37-2.06.72-4.12,1-6.19.63-5.25,1.21-10.5,1.79-15.76q.92-8.29,1.81-16.59c.61-5.62,1.29-11.23,1.8-16.86.4-4.38.58-8.79.92-13.18.1-1.25.53-2.48.59-3.73a1.88,1.88,0,0,0-.84-1.52c-2.84-1-5.71-1.94-8.62-2.72-3.51-.94-7.07-1.7-10.6-2.55-2.66-.64-5.3-1.38-8-1.95-4.81-1-9.66-1.87-14.46-2.94-3.73-.83-7.39-1.94-11.11-2.81a2.11,2.11,0,0,0-1.75.69c-2.86,3.9-5.63,7.87-8.42,11.82s-5.61,7.88-8.35,11.87c-2.59,3.76-5.05,7.62-7.68,11.36q-5,7.19-10.27,14.25c-1.23,1.66-.82,2.69.88,3.44s3.57,1.43,5.34,2.19l23.77,10.13c6.25,2.66,12.5,5.3,18.74,8,9,3.88,18,7.8,27,11.68,1.84.79,3.74,1.47,5.8,2.28M77.51,406.69c-1.39.39-3.65.94-5.85,1.68-.74.24-1.28,1-2,1.43-4.53,2.62-9.06,5.26-13.64,7.79-9,5-18,9.87-27.06,14.81-3.14,1.72-6.38,3.31-9.34,5.31-.8.54-.87,2.36-1,3.62a2,2,0,0,0,.94,1.65c2.81.74,5.66,1.33,8.52,1.88,2.41.46,4.87.71,7.28,1.19,3.74.75,7.44,1.71,11.19,2.42,3.93.74,7.92,1.23,11.85,2,4.29.79,8.54,1.75,12.82,2.59,2.06.4,4.15.63,6.21,1,4.19.82,8.37,1.71,12.55,2.57,2.49.51,5,1.06,7.46,1.55,2.05.41,4.12.73,6.17,1.14,3.92.79,7.82,1.68,11.75,2.39,3.24.59,6.51,1,9.78,1.4a2.11,2.11,0,0,0,1.57-1.13c1-2.33,1.9-4.72,2.74-7.12,3-8.57,5.9-17.15,8.88-25.72,1.46-4.21,3-8.39,4.5-12.58,1.06-3,.27-4-2.84-4.16-4.57-.22-9.14-.61-13.71-.94-.18,0-.36-.05-.55-.08-4.06-.56-8.1-1.29-12.17-1.63-5.85-.48-11.73-.68-17.6-1l-.55,0-17.91-2M127,470.14l-.54-1.43a8,8,0,0,0-1.32.83c-6.7,6.36-13.42,12.7-20.05,19.13q-17.93,17.38-35.76,34.87c-5.43,5.32-10.86,10.64-16.1,16.14-2.46,2.59-3,4.73-.07,6.94,1.76,1.32,3.48,2.7,5.11,4.18,4.09,3.71,8.13,7.49,12.18,11.26Q77.2,568.38,84,574.72c5.38,5.06,10.83,10,16.07,15.24,1.73,1.72,3.09.33,4.57.08a2.39,2.39,0,0,0,1.45-1.55c1.33-5.27,2.48-10.58,3.81-15.85,1.37-5.43,3-10.81,4.32-16.24,1.06-4.21,1.9-8.48,2.9-12.72,1.42-6,3-11.91,4.29-17.92,1.12-5.41,2-10.89,2.71-16.37.56-4.54.66-9.15.95-13.72.27-4.2-.24-8.38.77-12.63s-.69-8.64,1.19-12.89M1541.44,439l.12,0a26.71,26.71,0,0,0,0-3.33c-.51-4.05-1-8.11-1.7-12.14-.76-4.69-.43-9.49-3.43-13.84-4.14-6-7.47-12.57-11.34-18.78-4.82-7.76-9.92-15.35-14.74-23.12-3.85-6.22-7.45-12.59-11.18-18.88-1.2-2-2.78-2-3.82.15-1.93,4-3.69,8-5.6,11.95q-8,16.63-16.13,33.22c-2.75,5.62-5.67,11.16-8.4,16.79-.3.63-1.67,1.52,0,2.49,3.64,2.12,7.16,4.46,10.76,6.65,6,3.62,11.93,7.18,17.9,10.77,3.06,1.84,6.13,3.67,9.17,5.55,4.83,3,9.64,6,14.48,9,3.74,2.3,7.51,4.57,11.27,6.85,4.54,2.75,9.08,5.51,13.65,8.23a4.71,4.71,0,0,0,1.52.3,7,7,0,0,0,.28-1.81c-.19-1.8-.53-3.58-.75-5.37-.11-.91,0-1.86-.15-2.77-.6-4-1.25-7.9-1.88-11.84m19.85,32.91.08.31a46.77,46.77,0,0,1,5-1.17c3.36-.42,6.74-.61,10.11-1,2.63-.29,5.26-.65,7.87-1.05,3.24-.5,6.45-1.14,9.69-1.6,3-.42,6-.66,9-1,2.26-.29,4.5-.67,6.75-1,3.23-.52,6.44-1.14,9.67-1.56s6.38-.61,9.57-1c2.17-.25,4.34-.57,6.5-.94,3-.51,5.88-1.22,8.85-1.64,3.16-.45,6.37-.63,9.55-1,2.26-.26,4.52-.59,6.77-1,3.32-.54,6.61-1.22,9.94-1.68,3.17-.44,6.38-.63,9.56-1,2.08-.23,4.17-.51,6.22-.9a6.62,6.62,0,0,0,1.83-1c-.41-.52-.7-1.22-1.23-1.55-3.52-2.14-7.09-4.23-10.66-6.29q-11.79-6.81-23.6-13.6l-23.11-13.35q-11.8-6.81-23.61-13.61-9.19-5.27-18.42-10.47a4.46,4.46,0,0,0-1.28-.27,7.16,7.16,0,0,0-.13,1.47,31,31,0,0,1,.49,3.22c0,8.44,0,16.87,0,25.31a21.79,21.79,0,0,1-2.63,11.06,39.64,39.64,0,0,0-2.67,5.45,59.14,59.14,0,0,1-10.71,18.4c-1.36,1.57-2.9,3-4.37,4.46-1.92,1.92-3.85,3.82-5.75,5.76-.76.78-1.44,1.64-2.15,2.46l2.58-.21h.28m197.28,60.3,0-.11-10.93,1.11c-1.16.12-1.25.6-.92,1.68a55.37,55.37,0,0,1,1.38,6.1c.69,3.76,1.27,7.53,2,11.29.82,4.46,1.7,8.91,2.59,13.36.42,2.14.94,4.25,1.38,6.39.76,3.65,1.68,7.28,2.18,11,.46,3.41,1,3.92,4.1,2.33,8.2-4.2,16.36-8.47,24.54-12.71q12.75-6.61,25.51-13.22,14.36-7.42,28.75-14.8c2.05-1.05,4.23-1.86,6.27-2.94,5.44-2.88,10.81-5.92,16.27-8.77s11-5.56,16.55-8.36c.4-.2.67-.67,1-1a4.59,4.59,0,0,0-1.28-.27c-3.46.28-6.92.67-10.39.91-5,.35-10.09.62-15.13.9l-17.07.93-.28,0c-5,.58-10,1.33-15,1.71-6.23.48-12.48.65-18.72,1-.46,0-.92.07-1.38.12-4.82.55-9.63,1.15-14.45,1.65q-5.46.56-10.95.91c-5.32.33-10.66.57-16,.85m-1250.79,19,.06-.29c2.42.42,4.83,1,7.28,1.22,5.68.43,11.38.61,17.06,1a23.14,23.14,0,0,1,4.57.74c4.13,1.12,5.84.1,6.7-4.14.09-.44.4-.83.51-1.26.73-2.9,1.47-5.8,2.16-8.72.79-3.35,1.49-6.72,2.28-10.07.71-3,1.57-6,2.22-9,.75-3.45,1.26-7,2-10.41,1.06-4.77,2.26-9.5,3.41-14.25.81-3.34,1.66-6.67,2.44-10a9,9,0,0,0,.05-1.84,7.38,7.38,0,0,0-1.74.44c-3.65,1.94-7.27,3.95-10.91,5.91q-6.07,3.28-12.17,6.52L505,512.34c-4.55,2.42-9.11,4.82-13.66,7.24-9.5,5.06-19,10.16-28.49,15.19-6.18,3.27-12.41,6.46-18.62,9.7a12.42,12.42,0,0,0-1.32.92,7.25,7.25,0,0,0,1.31.91,6.34,6.34,0,0,0,1.85.44c3.83.33,7.67.63,11.5.93l11,.88,11.78.91c3.83.3,7.66.65,11.5.89,5.32.33,10.65.57,16,.84m969.39-77.47c11.49,0,23-.17,34.48.06a54.13,54.13,0,0,0,19.74-2.82c3.78-1.37,7.49-2.94,11.19-4.52.68-.29,1.66-1.21,1.57-1.65a3.94,3.94,0,0,0-1.66-1.91c-.73-.54-1.67-.79-2.46-1.26-6.3-3.75-12.58-7.54-18.87-11.29-3.38-2-6.81-4-10.19-6q-11.57-6.9-23.11-13.83c-3.69-2.22-7.33-4.51-11-6.7-4.1-2.43-8.3-4.71-12.37-7.18-1.36-.83-1.83-.47-2.48.81-1.28,2.53-2.8,4.94-4.17,7.43-3.62,6.59-7.26,13.17-10.82,19.79q-7,13.09-13.94,26.26c-1.47,2.78-1.43,2.81,1.85,2.81h42.27m835.22-11.52,0-.23,2.22.13c.26,0,.53,0,.79,0-.18-.29-.28-.69-.54-.86-2.91-1.91-5.86-3.76-8.75-5.69q-10.18-6.78-20.32-13.63c-5.16-3.49-10.24-7.08-15.42-10.55-8.6-5.77-17.25-11.48-25.88-17.21l-20.63-13.67c-2.82-1.87-5.74-3.61-8.44-5.64s-4.89-4.18-7.35-6.25c-1.61-1.36-3.28-2.66-4.94-3.95-3.7-2.86-7.45-5.65-11.11-8.55-3.45-2.74-6.79-5.63-10.24-8.37-5.38-4.28-10.81-8.49-16.23-12.72-.34-.27-.74-.47-1.11-.71a6.25,6.25,0,0,0,.48,1.15c4.9,7.29,9.74,14.6,14.73,21.82,3.85,5.56,7.94,10.95,11.82,16.48,3.2,4.55,6.26,9.2,9.38,13.8l9.07,13.37c2.61,3.86,5.19,7.76,7.84,11.59,4,5.72,8,11.39,11.94,17.12a4.94,4.94,0,0,0,4.26,2.52,95.57,95.57,0,0,1,9.56,1c3.71.49,7.41,1.13,11.12,1.59,3.37.41,6.76.64,10.13,1,2.46.26,4.92.56,7.37.93,3.33.51,6.64,1.19,10,1.62s6.94.66,10.41,1q3.82.41,7.63,1c4.07.6,8.13,1.26,12.19,1.89m-1.54,138.22v.36a5.64,5.64,0,0,0,.83,0c.76-.12,1.52-.26,2.27-.4a17.71,17.71,0,0,0-2-1.29c-3.66-1.71-7.36-3.33-11-5q-17.86-8.41-35.69-16.86l-15.69-7.45c-6.4-3.05-12.78-6.12-19.18-9.16q-9-4.27-18-8.46a2.4,2.4,0,0,0-1.94-.11c-8.51,5.73-17,11.53-25.46,17.32q-6.69,4.56-13.4,9.11c-5.24,3.54-10.49,7.09-15.76,10.58-1.07.71-.66,1.18.11,1.54a5.49,5.49,0,0,0,1.89.32c4.31.31,8.62.61,12.93.88,5.14.32,10.29.6,15.43.92,4.22.27,8.43.58,12.65.87,4.59.32,9.17.68,13.76.94,6.43.36,12.87.66,19.31,1,1.85.08,3.72-.08,5.56.09,5.66.51,11.3,1.17,17,1.67,4.3.38,8.62.61,12.93.88,5.15.32,10.29.57,15.44.91,4.12.27,8.24.7,12.36.9,5.23.26,10.47.38,15.71.55M1968.14,472.25c1.54-.33,2.55-.48,3.51-.76,2.46-.71,4.87-1.56,7.35-2.2,6.09-1.57,12.19-3.15,18.32-4.52,2.08-.47,2.24-1.33,1.58-3.05q-3.19-8.32-6.25-16.7c-2.26-6.23-4.33-12.54-6.68-18.74-3.08-8.16-6.45-16.21-9.52-24.37-3.29-8.75-6.37-17.57-9.53-26.37-2-5.55-4-11.11-6-16.65a6.61,6.61,0,0,0-1-1.39,10,10,0,0,0-.86,1.51c-4.07,11.18-8.08,22.39-12.2,33.56-2.73,7.41-5.64,14.75-8.4,22.15-1,2.57-1.4,4.87.61,7.6,3.24,4.4,5.79,9.31,8.54,14.06,1.84,3.18,3.51,6.45,5.24,9.69,4.31,8.09,8.58,16.21,13,24.26.47.87,1.6,1.38,2.24,1.91M174.65,493h-.1c0-1.39.37-2.9-.07-4.14-1.81-5.14-3.8-10.22-5.83-15.28-2.1-5.25-4.33-10.44-6.47-15.67-2.65-6.49-5.19-13-7.93-19.48-2.54-6-5.26-11.88-7.92-17.8a7.32,7.32,0,0,0-1.07-1.91,1.43,1.43,0,0,0-1.27.15c-1.57,4.26-3.11,8.53-4.54,12.84-2.12,6.36-4.39,12.68-6.14,19.14-1.55,5.71-5.07,11.06-3.52,17.45.22.91-.27,2-.44,3-.24,1.33-.6,2.65-.72,4-.35,3.82.06,7.62-.75,11.51-1,4.89-.75,10-1.09,15.07-.25,3.65-.49,7.3-.9,10.93-.39,3.48.65,4.87,3.92,5.11,1.34.1,2.66.54,4,.77,2.06.36,4.13.69,6.2,1,2.34.37,4.7.67,7,1.1,4.29.8,8.56,1.67,12.84,2.51,2.58.5,5.19.91,7.74,1.53,1.93.47,2.82.06,3.4-2,.49-1.74,1.13-3.45,1.48-5.21a111.79,111.79,0,0,0,2.07-12.06c.35-4.16.08-8.37.08-12.56m217.61-33.76c-.4-.94-.62-1.34-.74-1.77-1.21-4.19-3.8-7.75-4.82-12.13-1.21-5.18-3.68-10.07-5.51-15.11-1.71-4.69-3.21-9.46-5-14.14-2.14-5.71-4.54-11.32-6.68-17-3.28-8.78-6.46-17.6-9.63-26.42-2-5.55-3.89-11.13-5.86-16.69a5.32,5.32,0,0,0-.86-1.2,4.85,4.85,0,0,0-.91,1.19c-1.42,4.11-2.69,8.27-4.21,12.34-2.1,5.63-4.44,11.17-6.54,16.81-2.38,6.39-4.59,12.84-6.91,19.25-1.23,3.41-2.58,6.78-3.76,10.21a3.1,3.1,0,0,0,.25,2.3c3.3,5.47,6.81,10.82,10,16.35,2.47,4.28,4.58,8.77,6.87,13.16q5.49,10.51,11,21c.47.9.73,1.54,2.2,1.09,4.09-1.25,8.31-2.06,12.45-3.15,5.19-1.36,10.37-2.78,15.51-4.29a15.5,15.5,0,0,0,3.1-1.75M617.76,500c.49,4.5.71,4.65,4.89,3.15.09,0,.16-.11.24-.14,4.27-1.32,8.52-2.71,12.81-4,5.07-1.48,10.2-2.79,15.27-4.26,4.21-1.22,8.36-2.62,12.57-3.84,5.15-1.5,10.35-2.84,15.5-4.34,4.12-1.2,8.18-2.58,12.29-3.77,5.32-1.55,10.66-3,16-4.48,2.46-.68,4.94-1.25,7.4-1.94s4.88-1.46,7.29-2.25c.45-.15.8-.62,1.19-.94a8.07,8.07,0,0,0-1.1-.74c-3.49-1.63-7-3.28-10.5-4.84-6.87-3-13.78-6-20.63-9-4.53-2-9-4.22-13.51-6.24-7-3.12-14.12-6.13-21.15-9.24-4.2-1.86-8.4-3.72-12.5-5.79-1.52-.77-2.36-.32-2.89.89-1.33,3.09-2.52,6.25-3.71,9.4-2.18,5.79-4.31,11.6-6.49,17.39q-2.63,7-5.32,14c-1.77,4.59-3.65,9.13-5.38,13.74-.88,2.36-1.53,4.8-2.28,7.21m1058.85,8c.18-.17.92-.58,1.16-1.19.46-1.16.61-2.45,1-3.66,1.85-6.36,3.69-12.71,5.62-19,2.55-8.4,5.17-16.77,7.75-25.16.07-.24.11-.7,0-.75a1.37,1.37,0,0,0-.93-.11c-1.81.58-3.6,1.25-5.42,1.81-3.39,1-6.78,2.09-10.2,3-4.12,1.15-8.27,2.17-12.39,3.31-3.43,1-6.82,2-10.24,3-4.91,1.38-9.84,2.66-14.74,4.06-3.41,1-6.75,2.2-10.17,3.13-6,1.65-12.15,3.1-18.2,4.74-6.24,1.7-12.44,3.54-18.66,5.31l-25.22,7.2c-2,.57-4,1.13-6,1.78-.41.14-.69.67-1,1a5.44,5.44,0,0,0,1.07.68,4.23,4.23,0,0,0,1.1.05l15.11.93c.19,0,.37,0,.56,0,4.52.58,9,1.28,13.57,1.7,4.93.46,9.88.66,14.82,1l.55.06c5,.57,10,1.23,14.95,1.7,4.48.42,9,.63,13.46.93.18,0,.37.05.55.08,4.52.58,9,1.28,13.56,1.7,4.84.45,9.72.61,14.58.91.28,0,.55.09.82.12l13,1.63M720.92,476.4a8.23,8.23,0,0,0-1.09.16c-7.26,2.1-14.52,4.19-21.76,6.33-5.75,1.71-11.46,3.55-17.22,5.23s-11.42,3.06-17.08,4.76c-7.32,2.2-14.57,4.63-21.89,6.85-7.15,2.17-14.34,4.18-21.5,6.29a13,13,0,0,0-2,1,9.14,9.14,0,0,0,1.8,1.85q5.76,3.25,11.63,6.32,9.65,5.08,19.36,10.07c4.92,2.53,9.9,5,14.82,7.49,5.64,2.92,11.23,5.93,16.89,8.82a1.9,1.9,0,0,0,1.79-.4,38.22,38.22,0,0,0,2.41-4c2.46-4.29,4.87-8.61,7.39-12.87,4.62-7.8,9.31-15.56,14-23.34q3.1-5.18,6.18-10.37L722,478.12c.78-1.31.46-1.89-1.09-1.73m1514.55-22.64c-.43.15-1.27.42-2.06.79a3,3,0,0,0,.4,1.19c1.51,2.17,3,4.33,4.62,6.46,3.58,4.85,7.25,9.64,10.77,14.52s6.78,9.75,10.22,14.59c2.55,3.57,5.27,7,7.79,10.61s4.72,7.17,7.2,10.67c3.1,4.39,6.35,8.68,9.51,13,1.07,1.48,1.8,1.49,2.72-.05s1.81-2.76,2.57-4.22q6.33-12.09,12.58-24.23,7.61-14.69,15.21-29.39c1.55-3,1-3.8-2.41-4-3.75-.22-7.51-.55-11.24-1-3.34-.42-6.64-1.19-10-1.62s-6.76-.59-10.13-1c-2.64-.28-5.27-.67-7.89-1-3.61-.52-7.21-1.16-10.83-1.61-3.46-.43-6.94-.64-10.41-1-2.55-.27-5.09-.61-7.63-1-3.52-.52-7-1.11-11-1.75m25,64-1.53,1.07c-2.63,1.83-5.24,3.69-7.9,5.47-5.63,3.78-11.32,7.48-16.94,11.29-6.29,4.27-12.52,8.62-18.76,12.95a16.8,16.8,0,0,0-1.56,1.39,8.12,8.12,0,0,0,1.58,1.36c4.8,2.32,9.63,4.58,14.45,6.85l15.72,7.41,16.7,7.9,17.2,8.15,17.21,8.16q9,4.25,18,8.48a14.23,14.23,0,0,0,2,.61c-.37-.65-.71-1.32-1.11-2-.25-.38-.62-.68-.88-1.06q-5.46-8-10.91-16.1c-3.08-4.53-6.17-9-9.25-13.58-2.61-3.86-5.17-7.76-7.82-11.58-3.91-5.62-7.93-11.17-11.83-16.81-4.15-6-8.19-12.11-12.33-18.14a12.84,12.84,0,0,0-2-1.87M143.33,410.66A10.78,10.78,0,0,0,146,409c3.38-3.52,6.61-7.17,9.93-10.75,1.07-1.15,2.2-2.26,3.34-3.35s1.28-2.24.19-3.61c-3-3.8-5.76-7.8-8.86-11.52-2.94-3.53-5.87-7.18-9.37-10.09-4.48-3.72-9.69-6.54-14.3-10.13-4.76-3.7-10.29-5.5-15.84-7.34-.34-.11-1.08.41-1.36.82-1.88,2.81-3.7,5.67-5.51,8.53-2.54,4-5,8-7.57,12.07L89,385.69,79,401.6c-.24.39-.67.81-.64,1.19s.37,1.3.7,1.37a60.13,60.13,0,0,0,6.76,1c4.76.38,9.53.62,14.29.92l.55.05c4.14.59,8.26,1.35,12.42,1.73,5.22.47,10.46.62,15.7.92.28,0,.55,0,.83.08l13.7,1.78M1994.24,527.79h-24.74a4.79,4.79,0,0,0-1.92.08c-.46.22-1.05,1-.94,1.41.82,2.78,1.79,5.52,2.72,8.27,2.61,7.73,5.14,15.48,7.89,23.16.48,1.35-.15,4.11,2.95,3.51.21,0,.52.72.86,1a9.24,9.24,0,0,0,2.14,1.62q5,2.18,10.14,4.18c6.47,2.53,13,5,19.44,7.49,3.75,1.45,7.48,2.94,11.24,4.35,3.06,1.14,6.2,2.09,9.23,3.31,2.63,1.06,5.14,2.44,7.74,3.56a13.44,13.44,0,0,0,2.82.56c0-1.09,0-2.19,0-3.28,0-.24-.3-.46-.4-.72-1.91-5-3.86-10-5.71-15-2.72-7.43-5.32-14.91-8.06-22.34-2.32-6.32-5-12.53-7-18.93-.68-2.11-1.66-2.22-3.32-2.21-8.34,0-16.68,0-25,0M56.31,346.54c-11.68,0-23.36,0-35,0-2,0-2.87.53-2.73,2.66.16,2.49.07,5,0,7.51a2.78,2.78,0,0,0,1.51,2.9,74.34,74.34,0,0,1,7.35,5.3c3.19,2.47,6.26,5.08,9.46,7.54C42.91,377,49,381.58,55,386.17c5,3.76,9.89,7.55,14.86,11.28,1.37,1,3,2.8,4.24,2.62s2.36-2.3,3.31-3.72C82,389.59,86.39,382.77,90.9,376c3.9-5.85,7.87-11.66,11.81-17.49,1.38-2,2.84-4,4.11-6.16.56-.92,1.38-2.2-.9-2.35a19.47,19.47,0,0,1-4-1c-4.92-1.41-9.85-2.59-15.06-2.52-10.2.14-20.4,0-30.59,0M2153,497.56h0q0,24.32,0,48.64a8.4,8.4,0,0,0,.38,1.75,6.2,6.2,0,0,0,1.11-1.37c1.44-3.45,2.73-7,4.25-10.4,3.16-7.12,6.45-14.19,9.68-21.29,1.14-2.5,2.29-5,3.39-7.51,2.76-6.37,5.44-12.78,8.25-19.13,2-4.44,4.14-8.79,6.1-13.23,4.1-9.3,8.09-18.65,12.16-28q2.09-4.78,4.37-9.47c.86-1.78-.15-1.92-1.41-1.74-2.16.32-4.3.75-6.43,1.18-3.94.78-7.86,1.63-11.8,2.39s-7.73,1.37-11.59,2.11c-4,.77-8,1.82-12.06,2.35-5.75.75-6.4,1.32-6.39,7.25q0,23.21,0,46.42M618.24,480.88c0,2.68,0,4.91,0,7.13a5.44,5.44,0,0,0,.32,1.25c.35-.35.86-.65,1-1.07.88-2.29,1.66-4.63,2.51-6.93,1.71-4.6,3.46-9.18,5.19-13.77q2.12-5.6,4.24-11.21c1.9-5,3.74-10.06,5.75-15a51.13,51.13,0,0,1,4.28-9.14c3.32-5,7.18-9.69,10.68-14.6,4.09-5.72,8-11.54,12-17.31q6.18-8.89,12.36-17.78a5.43,5.43,0,0,0,.48-1.37,8.14,8.14,0,0,0-1.61,0c-4.37.82-8.72,1.74-13.1,2.49-4.21.72-8.47,1.18-12.68,1.92-4.38.77-8.71,1.83-13.1,2.57s-9,1.23-13.54,1.88a33.89,33.89,0,0,0-4.52.95,2,2,0,0,0-1.17,1.21,12.25,12.25,0,0,0-.07,2.77c.38,28.85-1,57.71.89,86.08m0,64.6q0,16,0,32c0,2.6.15,2.74,2.34,1.51,3.93-2.19,7.75-4.55,11.67-6.77q11.4-6.44,22.84-12.78,12.77-7.09,25.56-14.14a12.29,12.29,0,0,0,1.26-.91,5.33,5.33,0,0,0-1.1-1.12c-4.21-2.26-8.45-4.46-12.67-6.72-8.76-4.69-17.48-9.44-26.26-14.1-6.91-3.67-13.87-7.26-20.82-10.85-2.66-1.37-2.82-1.25-2.82,1.87q0,16,0,32m895-198c-3.24,0-6.49,0-9.74,0-2.68,0-2.93.34-1.56,2.59,2.86,4.68,5.86,9.27,8.81,13.9q5,7.74,9.92,15.47c3.65,5.7,7.31,11.39,10.92,17.11q4.24,6.73,8.36,13.54c1.36,2.24,2,2.36,3.88.63,4.23-4,8.56-7.86,12.74-11.89s8.17-8.09,12.18-12.21a2.28,2.28,0,0,0,.56-1.87,25.21,25.21,0,0,0-2-4.79,58.35,58.35,0,0,0-5.15-8.42c-3.35-4.15-6.7-8.46-10.79-11.79a52.69,52.69,0,0,0-17.12-9.19c-4.67-1.51-9.27-3.47-14.38-3.11-2.21.15-4.45,0-6.68,0M168.85,529a11.57,11.57,0,0,0-2.47-1.18c-1.86-.42-3.77-.63-5.65-.93s-3.78-.63-5.67-.93c-2.34-.37-4.7-.67-7-1.1-4.28-.8-8.54-1.71-12.82-2.52-2.41-.46-4.89-.64-7.26-1.25s-2.91-.57-3.64,1.74c-.49,1.55-.75,3.18-1.14,4.76-1.06,4.3-2.17,8.59-3.2,12.9-.78,3.26-1.54,6.53-2.19,9.82-.73,3.74-1.23,7.53-2,11.26-1,4.87-2.27,9.69-3.36,14.54-.85,3.79-1.63,7.6-2.43,11.4a10.24,10.24,0,0,0-.12,1,4.54,4.54,0,0,0,1.21-.16c2.68-1.15,5.38-2.25,8-3.55,2.87-1.44,5.59-3.18,8.46-4.62,6.41-3.21,11.57-8.07,16.8-12.77a109.23,109.23,0,0,0,8.74-9.56,26.54,26.54,0,0,0,3.3-4.39q5.38-9.59,10.52-19.31a45.24,45.24,0,0,0,2-5.17M2153,402.23v8.06q0,15.44,0,30.88c0,1.42-.34,2.7,2.08,2a99.85,99.85,0,0,1,9.93-1.91c4-.7,7.94-1.34,11.89-2.07,4.13-.77,8.23-1.7,12.36-2.43,3.52-.62,7.08-1,10.59-1.63.66-.12,1.7-1.12,1.65-1.64a11.53,11.53,0,0,0-2.28-6.11c-3.49-4.68-6.85-9.47-10.17-14.28-2.65-3.84-5.08-7.83-7.75-11.65-3.87-5.54-7.95-10.94-11.79-16.49-5-7.28-9.93-14.67-14.9-22a17.29,17.29,0,0,0-1.17-1.4,9.68,9.68,0,0,0-.43,2q0,19.33,0,38.66m-690.66-54.79h-28.64c-3.06,0-3,0-1.64,2.76,5.38,10.46,10.8,20.9,16.12,31.39,4.5,8.86,8.87,17.79,13.32,26.67a17,17,0,0,0,1.35,2,13,13,0,0,0,1.4-1.91q4.76-9.77,9.44-19.58c3.38-7,6.71-14.09,10.13-21.1,2.86-5.87,5.81-11.7,8.73-17.55,1.32-2.64,1.33-2.65-1.57-2.66h-28.64M18.57,398.33q0,16.55,0,33.11c0,2.49.12,2.62,2.17,1.56,5.24-2.7,10.46-5.42,15.62-8.27,7.23-4,14.38-8.15,21.6-12.16,4.5-2.5,9.06-4.9,13.62-7.28,1.33-.69,1.51-1.07.13-2-2-1.32-3.79-2.88-5.67-4.35-3-2.37-6-4.77-9.11-7.11-4.65-3.56-9.35-7.05-14-10.62-3.2-2.46-6.31-5-9.53-7.47-4.17-3.14-8.41-6.17-12.62-9.25l-1.74-1.29a11.46,11.46,0,0,0-.48,2.29q0,16.41,0,32.83M271.4,532.08l-.13-.83a8.62,8.62,0,0,0-2.45-.72c-6.9.11-13.78,0-20.7.74-10.08,1-20.26-.22-30.44.85-9.68,1-19.53-.3-29.3,1-2.26.29-3.21,1.08-3.89,3a64.09,64.09,0,0,1-3.14,7.86,139.77,139.77,0,0,1-7.82,13.88c-3.16,4.7-6.87,9-10.44,13.44-1.16,1.43-2.64,2.6-3.9,4a11.15,11.15,0,0,0-1.17,1.92c.66-.18,1.35-.32,2-.56,2.4-.9,4.78-1.84,7.17-2.76,5.54-2.13,11.09-4.24,16.62-6.4,3.66-1.43,7.29-3,11-4.38,7.16-2.76,14.35-5.46,21.51-8.21,4.52-1.74,9-3.57,13.53-5.32,4.68-1.82,9.39-3.59,14.08-5.39s9.57-3.61,14.33-5.48c3.75-1.47,7.49-3,11.17-4.59.8-.35,1.34-1.29,2-2m406-183.62v-.09c-9.26,0-18.53,0-27.79,0a8.54,8.54,0,0,0-2,.5,9.79,9.79,0,0,0,1.11,1.5c3.64,3.38,7.32,6.73,11,10.11.88.82,1.66,1.75,2.57,2.54,4.56,4,9.39,7.71,13.62,12,2.39,2.43,5.11,3.28,8.11,4,4.16,1,8.34,1.91,12.47,3,5,1.32,10,2.85,15,4.15,6.43,1.68,12.88,3.24,19.33,4.84a14.72,14.72,0,0,0,1.75.22,7.79,7.79,0,0,0-.48-1.94c-3-5.46-6.05-10.87-9-16.34q-6-11.11-11.94-22.28c-1.06-2-1.87-4.18-4.78-2.3-.33.21-.91.06-1.37.06H677.39m752.41,63.32q0,28.79,0,57.58a13.28,13.28,0,0,0,.25,1.83,8.23,8.23,0,0,0,1.34-1.45c3.38-6.09,6.77-12.18,10.07-18.31,4.87-9.06,9.65-18.16,14.5-27.23,1-1.94,2.35-3.73,3.28-5.71s2.63-3.82,1.12-6.76c-9.16-17.86-18-35.86-27-53.82-.7-1.4-1.4-2.8-2.17-4.17a5.7,5.7,0,0,0-1-1.06c-.11.41-.26.82-.33,1.24a4.84,4.84,0,0,0,0,.83q0,28.51,0,57M372.36,508.88q12.09,0,24.18,0a13.78,13.78,0,0,0,2.1-.33,10.16,10.16,0,0,0-1.29-1.9c-3.23-3-6.55-5.93-9.79-8.92-4.47-4.13-8.89-8.3-13.34-12.45-4-3.76-8-7.62-12.21-11.2a7.82,7.82,0,0,0-4.87-2,47.77,47.77,0,0,0-8.81,1.79c-6.87,1.7-13.71,3.57-20.6,5.19s-14,3.06-21,4.6a4,4,0,0,0-.9.45c.24.36.39.86.72,1.06,1.88,1.13,3.83,2.15,5.72,3.27,5.21,3.06,10.43,6.12,15.61,9.24,5.49,3.3,10.89,6.75,16.45,9.93a10.75,10.75,0,0,0,5,1.24c7.69.13,15.38.05,23.06.06m1559.11,5.43c9,0,18-.14,27,.07,3.22.08,4.29-1.22,4.3-4.5a49.15,49.15,0,0,1,.12-5.55c.45-3.71,1.16-7.39,1.62-11.09.67-5.35,1.18-10.71,1.81-16.06.24-2.05-.23-2.8-2.12-2.45-3.14.58-6.25,1.33-9.37,2.06-5.77,1.36-11.53,2.75-17.3,4.14-3.45.83-6.89,1.7-10.35,2.47-3.29.73-6.6,1.37-9.91,2s-6,1.8-7.22,5.3c-1,2.92-2.14,5.79-3.21,8.69-1.48,4-2.88,8-4.48,12-1.11,2.75-1.13,2.89,1.89,2.9q13.62,0,27.24,0m-501.67,23.42q0,23,0,45.9a13.63,13.63,0,0,0,.4,2.33,11.53,11.53,0,0,0,2.05-1.68c3.69-4.78,7.31-9.62,11-14.42,1.45-1.89,3.05-3.67,4.47-5.58,3.11-4.18,6.1-8.46,9.25-12.61,3.27-4.3,6.7-8.48,10-12.76a1.76,1.76,0,0,0-.12-1.59c-1.13-1.67-2.39-3.24-3.58-4.87-3-4-5.92-8.12-8.91-12.15-2.07-2.79-4.21-5.54-6.32-8.3-2.66-3.49-5.31-7-8-10.47q-4.26-5.54-8.59-11a6.71,6.71,0,0,0-1.21-1,9.65,9.65,0,0,0-.45,1.48,11.73,11.73,0,0,0,0,1.67Zm621.66,13.51c-3.89,0-4,.2-2.79,3.36q1.44,3.68,2.82,7.39c1.75,4.69,3.48,9.38,5.22,14.07,1.68,4.51,3.4,9,5,13.54.64,1.8,1.46,2.19,3.27,1.27,4.75-2.41,9.59-4.64,14.4-6.91,5.07-2.39,10.17-4.72,15.23-7.13,8.48-4,16.92-8.12,25.4-12.15,2.06-1,4.23-1.74,6.29-2.73,3.41-1.63,6.77-3.36,10.14-5.08.29-.15.47-.48.71-.73-.21-.15-.42-.39-.65-.42-2-.3-3.95-.69-5.94-.83-6.33-.45-12.64.17-19-.74-7.62-1.09-15.43-.74-23.16-1.12-5.41-.26-10.79.15-16.26-.68-7-1.06-14.18.68-20.65-1.1M60.32,592.76q17.65,0,35.3,0a8.59,8.59,0,0,0,1.8-.39,6.53,6.53,0,0,0-.94-1.54c-3.24-3-6.55-5.93-9.8-8.92q-6.3-5.8-12.56-11.66Q66.06,562.66,58,555c-2.41-2.3-4.71-4.72-7.09-7.06-3.24-3.19-3.24-3.18-5.42,1-3.29,6.26-6.6,12.5-9.88,18.76q-5.82,11.1-11.6,22.22c-1.4,2.69-1.3,2.83,1.8,2.83q17.23,0,34.47,0m539-46.3q0-6.4,0-12.8c0-6.12,0-12.24,0-18.36a5.12,5.12,0,0,0-.46-1.45,9,9,0,0,0-1.16.66c-4.07,3.12-8.08,6.31-12.19,9.37-6.53,4.86-13.14,9.63-19.68,14.47-6,4.41-11.87,8.88-17.82,13.3-2.13,1.58-2.15,2.21.22,3.32,8.56,4,17.16,8,25.71,12,7.73,3.67,15.42,7.43,23.12,11.16,2.13,1,2.29,1,2.29-1.38q0-15.16,0-30.32M18.57,531.87v54c0,1.58-.05,3.16,0,4.73a6.25,6.25,0,0,0,.56,1.65,7.2,7.2,0,0,0,1.26-1.31q2.71-4.8,5.32-9.65Q31.88,569.89,38,558.5c2.52-4.69,5.1-9.35,7.54-14.08a3.85,3.85,0,0,0,.25-2.77c-2.31-6.33-4.8-12.59-7.16-18.9-3.5-9.37-6.94-18.77-10.41-28.16q-2.6-7-5.25-14.05c-1-2.73-2.12-5.43-3.23-8.12-.14-.33-.57-.54-.87-.8a5.51,5.51,0,0,0-.29,1c0,.46,0,.93,0,1.39q0,28.94,0,57.87M2319,521.34q0-25.3,0-50.6a8.52,8.52,0,0,0-.47-2,14.31,14.31,0,0,0-1.06,1.52c-2.82,5.36-5.65,10.72-8.41,16.11-7,13.67-13.94,27.36-21,41a2.93,2.93,0,0,0,.09,3.54c1.52,2,3,4.14,4.45,6.24,3.89,5.63,7.72,11.29,11.65,16.89,4.31,6.13,8.69,12.21,13.06,18.3a5.78,5.78,0,0,0,1.21,1,12.77,12.77,0,0,0,.47-1.44,5.46,5.46,0,0,0,0-1.11q0-24.74,0-49.48m-385.89,40.91a10.27,10.27,0,0,0,2.6-1.55c1.65-1.71,3.09-3.62,4.62-5.45,1.71-2,3.44-4.06,5.11-6.13,3.38-4.21,6.7-8.45,10.09-12.66,1.66-2.07,3.46-4,5.08-6.12a7.25,7.25,0,0,0,.75-2.25,15.13,15.13,0,0,0-2.12-.3c-19.36,0-38.73,0-58.09-.07a2.86,2.86,0,0,0-3.1,2.09c-2.58,6.8-5.12,13.62-7.8,20.38-.52,1.32-.44,1.73,1,2,3.28.71,6.51,1.65,9.78,2.44,4.16,1,8.33,1.94,12.48,2.94,3.35.8,6.68,1.68,10,2.48,3,.71,6,1.37,9.55,2.16M388.46,525.08H361.75c-1.68,0-2.48,0-1.67,2.32,3.87,11,7.47,22.18,11.06,33.32.36,1.13.62.94,1.47.67,2.25-.73,4.55-1.3,6.82-2,6.91-2,13.83-4,20.73-6,3.15-.93,6.23-2.09,9.37-3,4.44-1.32,8.94-2.48,13.37-3.84,1.11-.34,1.66-1.13,1.05-2.6-2.23-5.38-4.51-10.76-6.28-16.3-.8-2.51-2.1-2.64-4.18-2.62-8.35.08-16.69,0-25,0m57.2,24.85c-3.21-.49-3.33-.45-2.35,2.45,1.49,4.38,3.14,8.71,4.77,13,2.6,6.89,5.27,13.75,7.84,20.66.38,1,.66,1.35,1.75.89,5.64-2.4,11.31-4.74,17-7.11,4-1.66,7.9-3.41,11.88-5,7.36-3,14.76-5.93,22.13-8.9,4.76-1.91,9.52-3.8,14.26-5.75,2.45-1,4.87-2.12,7.28-3.24.42-.2.71-.68,1.05-1A6.14,6.14,0,0,0,530,555a4.46,4.46,0,0,0-1.37-.09c-4.3-.26-8.57.1-12.92-.74-5.1-1-10.43-.75-15.65-1.09-4-.26-8-.59-12.07-.86-4.94-.33-9.89-.62-14.83-.94-4.12-.27-8.23-.65-12.35-.85-5-.23-10.08-.31-15.12-.46m153.58-42.42c1-3.32-.93-4.7-3.66-6-4.81-2.28-9.41-5-14.16-7.43-6-3.07-12-6-18.06-9-2.1-1-2.48-.76-2.85,1.45-.27,1.61-.66,3.2-1,4.78-1.14,4.66-2.33,9.3-3.43,14-.74,3.18-1.3,6.4-2,9.58-1.08,4.66-2.29,9.3-3.37,14-.72,3.09-1.28,6.22-2,9.31-.85,3.8-1.76,7.58-2.64,11.38-.08.35-.12.71-.17,1.06A5.57,5.57,0,0,0,547,550c2.75-2.12,5.44-4.33,8.23-6.41,5.51-4.09,11.09-8.08,16.61-12.16,3.9-2.88,7.73-5.85,11.6-8.76,4.54-3.41,9-6.93,13.69-10.11,2-1.36,2.67-2.82,2.1-5.06m1314.18-22.57c3-.67,5.39-1.18,7.77-1.76,2.93-.71,5.82-1.56,8.76-2.2,4.72-1,9.48-1.89,14.2-2.94,6.23-1.39,12.42-2.94,18.66-4.31,2.53-.56,2.8-.85,1.53-3.22-3.79-7-7.58-14.05-11.45-21s-7.79-13.87-11.73-20.78c-1.17-2.06-2.42-4.09-3.77-6-.62-.9-1.3-1.67-1.81.38a67.88,67.88,0,0,1-3,8.19c-2.22,5.68-4.56,11.31-6.71,17-3,7.9-5.87,15.84-8.73,23.78-1.39,3.87-2.65,7.79-3.94,11.7-.09.29.1.67.2,1.22m-449.7,1.38q-14.73,0-29.47,0a11,11,0,0,0-2.07.4,6.77,6.77,0,0,0,.66,2c2.13,2.86,4.35,5.66,6.53,8.48s4.36,5.65,6.52,8.49c2.65,3.48,5.27,7,7.93,10.46q4.25,5.54,8.57,11c1.82,2.3,3.7,4.56,5.64,6.76a1.63,1.63,0,0,0,1.52,0c2.43-4.09,4.83-8.2,7.12-12.36s4.42-8.46,6.75-12.62c3.71-6.63,7.58-13.17,11.27-19.82,1.45-2.62,1.22-2.86-1.79-2.87q-14.59,0-29.19,0M599.36,459.43h0q0-19.73,0-39.47a6,6,0,0,0-.5-1.65,12.64,12.64,0,0,0-.95,1.28c-2.35,4.14-4.64,8.32-7,12.43-4,6.95-8.17,13.85-12.23,20.79-1.43,2.45-2.75,5-4.2,7.4q-5.45,9.19-11,18.32c-1.14,1.87-.51,3.09,1.17,4,5.94,3.29,11.86,6.64,17.86,9.82,4.72,2.5,9.55,4.8,14.33,7.19,2.45,1.23,2.54,1.19,2.54-1.51q0-19.32,0-38.63m18-91.33q0,8.89,0,17.78c0,1-.13,2.3,1.43,2.11,2.16-.26,4.3-.74,6.44-1.15,2.59-.49,5.16-1.07,7.75-1.48s5.25-.64,7.87-1c2-.29,3.95-.68,5.92-1.05,2.68-.5,5.34-1.09,8-1.52s5.25-.65,7.85-1.06c3.14-.5,6.27-1.08,9.39-1.67a17.09,17.09,0,0,0,2-.62,6.25,6.25,0,0,0-1-1.85c-2-1.86-4.23-3.53-6.22-5.42-7.5-7.12-14.91-14.33-22.44-21.42a5.11,5.11,0,0,0-3.13-1.31c-7.13-.11-14.26,0-21.39-.09-1.92,0-2.6.6-2.57,2.54.1,5.74,0,11.48,0,17.23M266,588.94c1-.44,1.49-.65,2-.9,4.7-2.36,9.39-4.73,14.09-7.08q20-10,40.11-20c1.71-.85,2.07-1.47.48-2.79-2.48-2.05-4.94-4.14-7.27-6.35-7.18-6.8-14.3-13.66-21.44-20.5-1.07-1-2.15-2.05-3.13-3.16-1.18-1.32-2-1.1-2.61.45-.8,2.12-1.47,4.29-2.29,6.4-2.21,5.67-4.55,11.3-6.69,17-2.94,7.83-5.72,15.72-8.63,23.56-1.49,4-3.14,8-4.68,11.95a3.93,3.93,0,0,0,.08,1.42m41.49-108.78c2.7-.44,5-.72,7.19-1.2,3.55-.77,7.06-1.72,10.62-2.49,3.38-.74,6.8-1.29,10.18-2,3.55-.77,7.06-1.7,10.6-2.5,3-.69,6.06-1.24,9.07-2,1.63-.39,2.5-1.19,1.44-3.09-2.51-4.49-4.82-9.09-7.31-13.59-3.82-6.88-7.76-13.71-11.59-20.58-2.14-3.84-4.17-7.75-6.29-11.61a5.55,5.55,0,0,0-1.47-1.64,1.19,1.19,0,0,0-1.1.3c-1.55,3.78-3.12,7.57-4.52,11.41-2.27,6.23-4.31,12.54-6.66,18.74-3.58,9.45-7.34,18.84-11,28.26-.49,1.25-.59,2.29.88,2m1266.75-69.3c-.36-4.23-.52-8.36-1.14-12.42a62.23,62.23,0,0,0-2.25-7.8c-.47-1.62-1.09-1.52-2.21-.43q-11.92,11.59-23.92,23.08c-1.73,1.66-3.29,2.92-2.4,6.1,1.26,4.5,1.36,9.33,1.92,14,.63,5.24,1.27,10.49,1.8,15.74.4,4,.67,8,.93,12,.1,1.57.62,2.17,2,1.09,1.87-1.47,3.75-2.95,5.49-4.57a54.19,54.19,0,0,0,11.88-15.4,73.41,73.41,0,0,0,5.23-13.75c1.57-5.88,2-11.81,2.67-17.67M2136.44,554.1l1.55-.46a8.77,8.77,0,0,0-1.59-1.27,20,20,0,0,0-2.35-.71c-4.76-1.6-9.5-3.3-14.29-4.82-7.63-2.42-15.32-4.67-23-7.08-5.57-1.76-11.08-3.74-16.65-5.5-7.63-2.41-15.32-4.66-23-7.08-5.57-1.77-11.08-3.73-16.65-5.51a20.09,20.09,0,0,0-3.68-.48c.31,1.2.59,2.4.94,3.59.13.43.48.79.63,1.22,2.5,7.1,4.94,14.22,7.51,21.3.3.83,1.16,1.94,1.9,2.06,3.15.52,6.34.81,9.53,1,6.34.41,12.66-.24,19.05.74,6.69,1,13.56-.16,20.39.94,6.32,1,12.82-.18,19.29.87s13.46-.75,20.33,1.18m-193.6,38.66c0,.1,0,.2,0,.3q9.09-.61,18.18-1.23a5.67,5.67,0,0,0,1.24-.38,6.35,6.35,0,0,0-.9-1.22c-1-.89-2.23-1.62-3.22-2.56q-11.33-10.82-22.6-21.71c-.86-.83-1.54-1.28-2.87-.6-3.85,1.95-7.82,3.66-11.73,5.48q-7.5,3.49-15,7-9,4.24-18,8.52c-2.41,1.15-4.77,2.42-7.19,3.56-2.07,1-4.21,1.82-6.28,2.8-.41.19-.65.74-1,1.13a6.33,6.33,0,0,0,1.38.67,6.4,6.4,0,0,0,1.66,0c7.74-.37,15.46.1,23.24-.68,10.08-1,20.29-.82,30.44-1.08,4.17-.1,8.34,0,12.51,0m34.11-26.86c-.35-1.4-.53-2.41-.85-3.37-1.42-4.3-2.91-8.59-4.33-12.89-2.14-6.45-4.23-12.92-6.38-19.36a1.87,1.87,0,0,0-1.08-1.13c-.36-.08-1,.38-1.27.76-3.11,3.94-6.1,8-9.29,11.86-4.77,5.8-9.7,11.47-14.51,17.25-2.75,3.3-3,5.4.44,8.46,3.79,3.36,7.54,6.77,11.2,10.28,3.88,3.72,7.62,7.58,11.43,11.36,2.11,2.1,2.15,2.11,3.47-.63,3-6.19,5.88-12.41,8.87-18.59.71-1.46,1.64-2.83,2.31-4m-1607.58-4a4.57,4.57,0,0,1-.55-.91c-1.58-4.63-3.22-9.25-4.69-13.91-1.94-6.14-3.72-12.34-5.65-18.48a9,9,0,0,0-1.46-2.15c-.42.57-.82,1.15-1.27,1.7s-1,1.1-1.45,1.66c-2,2.36-4.16,4.67-6.12,7.1-3.27,4.06-6.42,8.22-9.66,12.3-2.44,3.08-5,6.08-7.42,9.18-1.94,2.49-1.92,2.77.37,5,5.92,5.7,11.92,11.32,17.85,17,2.34,2.25,4.59,4.59,6.89,6.88.71.71,1.38,1.26,1.51-.4a3.77,3.77,0,0,1,.41-1.28q5.07-10.54,10.17-21.08c.4-.82.7-1.69,1.08-2.61m1180.4-80.38c.29,3.27.5,6.65.93,10a5.09,5.09,0,0,0,1.38,2.61c.24.25,1.29-.24,2-.42l7.14-1.92c4-1.08,8.09-2.11,12.12-3.24,3.41-1,6.78-2.09,10.2-3.05,4.19-1.18,8.42-2.23,12.61-3.4,4.47-1.24,8.92-2.55,13.39-3.81,5.17-1.46,10.35-2.88,15.53-4.34,3.33-.94,6.64-2,10-2.89,4.11-1.14,8.25-2.16,12.35-3.3,3.42-1,6.79-2,10.21-3,4-1.12,8.1-2.11,12.14-3.21,3.6-1,7.19-2,10.78-3.08.41-.12.8-.3,1.2-.45a5.11,5.11,0,0,0-1.31-.53,5.28,5.28,0,0,0-1.34.24c-3.14.52-6.28,1.08-9.44,1.52-3,.42-6,.66-9,1-2.26.29-4.51.65-6.76,1-3.13.51-6.25,1.14-9.4,1.57-3,.41-6,.57-9,1-3.69.5-7.36,1.17-11,1.74-2.43.37-4.88.64-7.31,1-3.13.51-6.24,1.18-9.38,1.63s-6.17.65-9.25,1c-2.26.28-4.51.64-6.76,1-3.14.52-6.25,1.17-9.4,1.6-3,.42-6,.6-9,1-2.17.26-4.33.63-6.49.95-3.78.56-7.55,1.29-11.35,1.65s-5.71,2.14-5.71,6.05M344.8,589.13c2.41,0,4.82,0,7.23,0a16,16,0,0,0,2.35-.39,10.78,10.78,0,0,0-1.31-1.94c-5.15-4.91-10.36-9.74-15.5-14.66q-4.42-4.23-8.65-8.66a2.55,2.55,0,0,0-3.57-.62c-3.51,1.8-7.18,3.27-10.76,5q-15.48,7.27-30.93,14.61c-4.58,2.18-9.1,4.48-13.63,6.76a18.25,18.25,0,0,0-2,1.35,9.85,9.85,0,0,0,2.27.43c6.71-.31,13.43-.33,20.15-.67,18.08-.92,36.24.55,54.33-1.15m1179.85-61.87a8.79,8.79,0,0,0-.45-1.11q-2.43-3.81-4.88-7.61c-3.08-4.76-6.18-9.5-9.24-14.26-3.4-5.3-6.76-10.63-10.17-15.93-.53-.83-1.08-1.2-1.74.12-.93,1.88-2.21,3.59-3.21,5.43-4.06,7.5-8,15.06-12.1,22.54-2.81,5.15-5.77,10.22-8.64,15.33a21.17,21.17,0,0,0-1.65,3.48c-.12.35.54,1.38.76,1.35,1.9-.2,3.78-.53,5.66-.89,2.68-.5,5.33-1.12,8-1.56s5.27-.58,7.87-1c4.38-.79,8.71-1.83,13.1-2.57s9.05-1.18,13.56-1.9a12.86,12.86,0,0,0,3.11-1.4m-2.72,4.32-.48-.76a4.93,4.93,0,0,0-1.15-.06c-1,.18-1.94.48-2.92.65-2.33.41-4.68.72-7,1.18s-4.4,1.12-6.63,1.5c-4.22.72-8.47,1.24-12.69,1.94-4.93.82-9.84,1.74-14.76,2.62a34.23,34.23,0,0,0-5.09,1,6.67,6.67,0,0,0-2.73,2.07c-2.69,3.24-5.27,6.58-7.88,9.88-2.39,3-4.8,6-7.14,9.07-3.67,4.78-7.27,9.62-10.94,14.41-2.29,3-4.65,5.89-7,8.85-1,1.3-2,2.61-2.93,4a4.48,4.48,0,0,0-.35,1.5c.38-.2.78-.37,1.14-.6,4.38-2.83,8.73-5.71,13.14-8.51,7.88-5,15.84-9.87,23.66-15,8.36-5.43,16.59-11.06,24.9-16.55,8.48-5.59,17-11.12,25.5-16.67a7.38,7.38,0,0,1,1.3-.54m183-102c0-9.36,0-18.72,0-28.08a3.57,3.57,0,0,0-1.13-2.7c-8.28-4.59-16.65-9-25-13.51a7.4,7.4,0,0,0-1.54-.44,6.29,6.29,0,0,0,0,1.82c1.08,3.84,2.29,7.65,3.35,11.5,1.16,4.19,2.2,8.42,3.32,12.63,1,3.68,2,7.35,3,11,1.06,4,2.06,8.07,3.11,12.11s2,8.11,3.23,12.08c1.37,4.41,1.72,9.51,7,11.64a18.83,18.83,0,0,1,1.92,1.09c.77.43,1.55.83,2.33,1.25a16.68,16.68,0,0,0,.52-2.89c0-9.17,0-18.35,0-27.52M174.65,428a14.7,14.7,0,0,1-1.64-3c-1.36-4.41-2.32-8.95-3.87-13.29a135.8,135.8,0,0,0-5.72-13.33c-1.17-2.42-1.78-2.38-3.62-.43-4.06,4.28-8.06,8.61-12.07,12.94-1,1-1,4.86-.36,6.24,1.59,3.18,3.22,6.37,4.6,9.65,2.47,5.87,4.72,11.84,7.16,17.72,1.37,3.3,3,6.49,4.4,9.76,3.14,7.2,6.23,14.43,9.39,21.62a8.77,8.77,0,0,0,1.42,1.78,14.55,14.55,0,0,0,.3-2.1q0-12.8,0-25.59c0-7.1,0-14.21,0-21.95M1512.9,486.32c-3.56,0-6.34,0-9.12,0-1.37,0-1.67.51-1,1.66,1.12,1.89,2.19,3.81,3.36,5.67,3.36,5.32,6.8,10.6,10.15,15.94,3,4.8,5.93,9.67,8.9,14.5.92,1.5,1.95,1.93,3.2.31,2.23-2.89,4.58-5.7,6.71-8.67,3.28-4.6,6.61-9.18,9.52-14,1.64-2.71,4-4.88,4.11-8.78.08-4.12-.92-7.88-1.52-11.79-.38-2.47-1.41-2.13-3.23-1.43-3.88,1.51-7.83,2.87-11.84,4-6.53,1.89-13.19,3-19.25,2.59m-753.06-45,.18,0c-.2-1.82,0-3.81-.68-5.42a69.5,69.5,0,0,0-4.65-8.39q-5.49-9-11.11-17.95c-2-3.18-4.13-6.26-6.09-9.45-.67-1.09-.92-.93-1.32.08a6.47,6.47,0,0,0-.67,1.5c-.35,3.46-.66,6.92-.91,10.39-.35,5-.64,10.05-1,15.08,0,.28-.08.55-.11.82-.55,4.24-1.23,8.46-1.63,12.71-.45,4.83-.65,9.69-1,14.53,0,.36-.21.71-.26,1.07-.52,3.77-1.06,7.55-1.53,11.33-.16,1.26.48,1.53,1.46.83s2.17-1.69,3.27-2.52q9.18-7,18.36-13.91c2-1.54,4.18-3,6.11-4.63a5.29,5.29,0,0,0,1.44-2.73,15.14,15.14,0,0,0,.05-3.32M1722,593c0,1.29,0,2,0,2.78,0,3.24,0,3.25,2.95,2.25,9.52-3.24,19-6.62,28.59-9.67,2.39-.76,1.9-1.95,1.55-3.52-.52-2.3-1-4.61-1.48-6.91s-1-4.62-1.42-6.94c-.73-3.64-1.5-7.28-2.18-10.93-.75-4-1.37-8.07-2.14-12.08s-1.58-7.82-2.41-11.72a11.59,11.59,0,0,0-.6-1.63c-.41.45-1,.82-1.19,1.35-1.24,2.93-2.34,5.92-3.58,8.86-1.73,4.13-3.6,8.19-5.3,12.33-3.24,7.92-6.51,15.83-9.54,23.83-1.54,4-4.12,7.88-3.25,12M323.16,525.08H314c-6.67,0-13.34,0-20,0a7.14,7.14,0,0,0-1.74.46,7.52,7.52,0,0,0,1.1,1.51c1.12.93,2.44,1.65,3.48,2.65q14.19,13.63,28.29,27.36c1.23,1.2,2.16,1.94,3.53.14q4.55-6,9.3-11.87c3.24-4,6.6-7.85,9.9-11.77,1.65-2,3.36-3.89,4.93-5.92a8,8,0,0,0,.82-2.25,13.47,13.47,0,0,0-2.1-.33q-14.17,0-28.34,0m1674.68,67.6v-.34c9,.4,18.06.9,27.09,1.18,6,.19,12,.08,18.06.07a3.84,3.84,0,0,0,1.19-.43,4.36,4.36,0,0,0-1-.79,58.25,58.25,0,0,1-6.11-2.4c-4.16-2.25-8.9-2.84-13.13-5.09-5.07-2.69-10.66-4.4-16-6.51-5.61-2.21-11.23-4.39-16.85-6.6-3.65-1.43-7.31-2.84-10.93-4.35-1.58-.66-2.6-.53-3.12,1.28a25.1,25.1,0,0,1-1.45,4.3c-1.36,2.76-2.93,5.4-4.35,8.13-1.53,2.94-2.94,5.94-4.48,8.87-.61,1.17-.4,1.72.93,1.82,4,.28,8,.73,12.07.82,6,.14,12,0,18.07,0m-293-102.27c0-8.33.06-16.67-.07-25a5.28,5.28,0,0,0-1.55-3.54,52.21,52.21,0,0,0-6.34-4.33c-1.43-.9-2.46-.89-2.94,1.17-1.11,4.75-2.35,9.47-3.65,14.17-1.76,6.37-3.62,12.71-5.42,19.07-1.55,5.48-3,11-4.66,16.45-.54,1.72.26,1.94,1.39,2.25,1.67.45,3.37.79,5,1.3,5.29,1.65,10.58,3.31,15.84,5.07,2,.67,2.44.14,2.42-1.89-.11-8.24,0-16.48,0-24.72M1722,377.24q0,13.62,0,27.24a11.13,11.13,0,0,0,.39,2.06,13,13,0,0,0,1.73-1.22c2.26-2.2,4.51-4.4,6.7-6.67,7.31-7.57,14.57-15.18,21.89-22.75,1-1,1.07-1.9,0-2.77-.94-.73-2-1.29-2.91-2.06q-7.4-6.41-14.72-12.89c-3.51-3.12-6.95-6.32-10.41-9.49-.21-.19-.4-.39-.61-.57-1.1-.89-1.86-.8-2,.77-.06.64,0,1.3,0,1.94q0,13.2,0,26.4m292.55,137.07a14,14,0,0,1,1.71,0c1.78.26,2.38-.34,1.59-2.07-.15-.32,0-.75-.17-1.09-2.53-6.53-5.14-13-7.61-19.57-2.05-5.44-3.89-11-5.91-16.41-1-2.81-2.21-5.57-3.43-8.31a1.9,1.9,0,0,0-1.5-1c-3.56.78-7.1,1.68-10.64,2.58q-8.35,2.13-16.69,4.31c-.6.16-1.18.4-1.77.61a6.74,6.74,0,0,0,1,1.83c4.61,4.39,9.32,8.68,13.92,13.09q12.43,11.89,24.75,23.89c1.48,1.44,2.9,2.59,4.77,2.1M2153,571.69c0,5,0,10,0,15a14.59,14.59,0,0,0,.24,1.87,11.06,11.06,0,0,0,1.58-.76c3.17-2.18,6.3-4.43,9.48-6.6q9.53-6.51,19.1-13c5.38-3.64,10.79-7.25,16.16-10.9,2.35-1.6,4.66-3.26,7-4.91a7.76,7.76,0,0,0,.77-.72c-.4-.14-.82-.43-1.21-.4-2.36.24-4.71.67-7.08.82-6.15.37-12.31.64-18.47.9-8.39.35-16.77.73-25.16.95-2,.05-2.47.88-2.44,2.69.09,5,0,10,0,15m-404.87-103.8c0-9,0-18,0-27a29.5,29.5,0,0,0-.46-3.68c-1,.81-2,1.55-2.9,2.44-5.79,5.75-11.53,11.54-17.32,17.29-5.6,5.57-5.62,5.55-5.47,13.41a1.69,1.69,0,0,0,0,.55,7.34,7.34,0,0,0,1,2.43q11.47,12,23.07,24a8,8,0,0,0,1.74,1.06,11.17,11.17,0,0,0,.3-1.84q0-14.32,0-28.64M396,589.14h34.18a11.53,11.53,0,0,0,1.66,0c.3,0,.56-.32.84-.49a3.05,3.05,0,0,0-.53-.54,7.49,7.49,0,0,0-1.23-.64c-4.25-1.67-8.51-3.32-12.75-5-3.4-1.35-6.76-2.77-10.16-4.1-7.91-3.09-15.83-6.14-23.74-9.21-3.74-1.45-7.52-2.82-11.2-4.42-1.77-.77-2.34-.12-3,1.38-3.11,6.64-6.33,13.23-9.54,19.83-1.5,3.08-1.43,3.22,2.17,3.22H396m10.23-80.27a19.73,19.73,0,0,0,3.18-.06c.33-.06.86-.87.76-1.14-1.71-4.79-3.52-9.54-5.29-14.3q-3.8-10.22-7.59-20.44c-1-2.72-2-5.46-3.13-8.13-.29-.69-1.17-1.61-1.76-1.6a18.82,18.82,0,0,0-4,.93c-4.31,1.09-8.63,2.14-12.93,3.29-3.52.94-7,2-10.5,3-1.6.49-2,1.17-.49,2.56,4.53,4.06,8.91,8.27,13.37,12.4,3.31,3.06,6.68,6.06,10,9.11,4.27,3.93,8.57,7.83,12.73,11.88,1.75,1.71,3.42,3.11,5.63,2.46m1580,5.44c6.49,0,13,0,19.47,0a14.85,14.85,0,0,0,2.58-.46,15.5,15.5,0,0,0-1.49-1.9c-4.43-4.18-8.93-8.29-13.33-12.49q-11.94-11.39-23.81-22.86c-.13-.13-.26-.27-.4-.39-1.14-1-1.82-.75-2,.77-.3,2.91-.65,5.81-.9,8.72-.35,4.21-.64,8.43-1,12.64,0,.28,0,.55-.08.83-.55,4-1.27,7.93-1.61,11.92-.28,3.22-.08,3.24,3.3,3.24h19.19M1721.41,412.39l.59.3c-.24,2,.14,3.36,2.2,4.51,4.63,2.58,9,5.66,13.49,8.46,3.19,2,6.45,3.85,9.69,5.74.78.45,1.55.79,1.67-.68.25-3.19.64-6.37.88-9.56.35-4.57.63-9.14.93-13.71,0-.18,0-.37.06-.55.57-4.06,1.28-8.1,1.69-12.18.46-4.46.65-9,1-13.43,0-.44.28-.87.33-1.32.07-.75.07-1.51.09-2.26a11.63,11.63,0,0,0-1.68,1.23c-6.85,7.11-13.66,14.26-20.52,21.37-2.64,2.73-5.45,5.29-8,8.08a21.74,21.74,0,0,0-2.37,4m209.48,152a8.1,8.1,0,0,0-1.89-1.15q-6-1.52-11.94-2.9c-4.52-1-9.07-2-13.58-3.06-4.33-1-8.61-2.24-13-3.15a2.9,2.9,0,0,0-2.41,1.32c-1.39,3-2.55,6-3.7,9.11q-4.5,12-8.91,24a15.09,15.09,0,0,0-.4,1.58,8,8,0,0,0,1.76-.37c7.34-3.37,14.69-6.73,22-10.16,6.91-3.24,13.77-6.58,20.68-9.84,3.23-1.52,6.52-2.94,9.77-4.42a16.68,16.68,0,0,0,1.6-1M1722,549h0q0,15.85,0,31.71a5.77,5.77,0,0,0,.5,1.62,8.33,8.33,0,0,0,.88-1.31c1.66-3.85,3.32-7.7,4.91-11.58,3-7.42,6-14.88,9-22.29,1.72-4.22,3.6-8.37,5.32-12.6a3.19,3.19,0,0,0-1.09-4c-1.73-1.37-3.41-2.78-5.14-4.15q-6.14-4.85-12.31-9.67a15.3,15.3,0,0,0-1.75-1,11.73,11.73,0,0,0-.29,1.84q0,15.71,0,31.43m-17.08-175.63c0-6.48,0-13,0-19.46a20.89,20.89,0,0,0-.55-3.31,23.9,23.9,0,0,0-2.65,2.36c-4.42,5.24-8.73,10.58-13.19,15.8-2.93,3.43-6.11,6.64-9.05,10.05-2.67,3.09-2.6,3.16.54,5.52a8.7,8.7,0,0,0,1.08.86c7.1,3.7,14.19,7.41,21.32,11.05,2.31,1.18,2.52,1,2.53-1.76,0-7,0-14.08,0-21.12m313.57,97.77a5.34,5.34,0,0,0,0,1.3c1.95,5.47,3.89,11,5.89,16.41,2.9,7.94,5.68,15.93,8.85,23.75,1.1,2.7,1.38,6.51,5.61,6.85a12.31,12.31,0,0,1,2.72.42c7.65,2.44,15.29,4.93,22.93,7.39a10.13,10.13,0,0,0,1.52.25,5.56,5.56,0,0,0-.41-1.49,11.93,11.93,0,0,0-1.52-1.95c-1.14-1.22-2.41-2.32-3.49-3.59-4.55-5.38-9-10.84-13.59-16.19-2.81-3.28-5.8-6.41-8.68-9.64-1.89-2.13-3.73-4.3-5.57-6.47q-4.8-5.66-9.56-11.36c-1-1.19-1.9-2.46-2.88-3.66-.46-.57-1-1.08-1.85-2M1722,438.94c0,6,0,12,0,18a9.63,9.63,0,0,0,.34,1.8,7.47,7.47,0,0,0,1.54-.93q11.22-11.15,22.4-22.35c1-1,1.56-1.74-.29-2.61a57,57,0,0,1-5.58-3.48c-5.27-3.3-10.51-6.64-15.83-9.85-2.24-1.35-2.58-1.08-2.59,1.61,0,5.92,0,11.84,0,17.76m58.12,90v-.15c.83,0,1.67.06,2.5,0a16,16,0,0,0,2-.45,11.94,11.94,0,0,0-1.46-1.42q-10.51-7.23-21.06-14.42c-3.78-2.57-7.56-5.14-11.4-7.62a1.78,1.78,0,0,0-1.52.63c-.45,2.51-.76,5-1.05,7.57-.33,2.81-.57,5.63-.92,8.44-.28,2.26-.54,4.53-1,6.75-.6,2.67-.29,3.31,2.49,3.2,1.8-.07,3.57-.69,5.38-.86,3.64-.36,7.3-.64,10.95-.87,5-.31,10.08-.52,15.11-.78m-1462.53-20c6.67,0,13.34,0,20,0a5.32,5.32,0,0,0,1.63-.58,4.53,4.53,0,0,0-.87-1c-4.88-3.06-9.76-6.12-14.68-9.13-5.78-3.53-11.61-7-17.37-10.53-2.2-1.35-2.68-1.25-3.54,1.22q-1.11,3.22-2.28,6.42-2.05,5.63-4.14,11.24c-.67,1.77-.45,2.5,1.79,2.45,6.48-.16,13-.06,19.45-.05M1722,510.38l-.55.19c.64,1.2,1,2.73,2,3.54,3.63,3.06,7.46,5.88,11.2,8.8,2.74,2.14,5.52,4.23,8.18,6.46,1.81,1.51,1.65.18,1.72-1s.06-2.58.25-3.85c.46-3,1.05-5.9,1.53-8.86.59-3.67,1.09-7.36,1.65-11,.16-1.06.33-1.73-1.31-1.38-2.76.59-5.62.72-8.41,1.22-4.48.8-8.9,2-13.41,2.5-2.49.27-3.31,1-2.84,3.42m-.07-19.72c0,4.44,0,8.88,0,13.32,0,1.62.19,2.19,2.24,1.65,4-1,8.08-1.45,12.12-2.17,2.5-.44,5-.92,7.49-1.47,1.29-.29,2.54-.76,3.81-1.15-1-1.07-2-2.15-3-3.19q-10.38-10.41-20.79-20.8a9.61,9.61,0,0,0-1.31-.94,6.79,6.79,0,0,0-.47,1.71c0,4.35,0,8.7,0,13m-17.08,42.58c0-3.8,0-7.6,0-11.4,0-1.73-.55-2.76-2.42-3.08a38.32,38.32,0,0,1-5-1.42c-5.82-1.85-11.62-3.72-17.44-5.56a2.11,2.11,0,0,0-.77.06c0,.31,0,.7.14.93,1.25,1.8,2.55,3.57,3.83,5.34,1.82,2.52,3.62,5,5.45,7.56,3,4.13,6,8.25,9,12.39,1.66,2.3,3.24,4.66,4.93,6.94a8.32,8.32,0,0,0,1.69,1.34,9,9,0,0,0,.48-2c0-3.71,0-7.42,0-11.12m0,51.17c0-4.35,0-8.69,0-13a5.42,5.42,0,0,0-.56-1.62,6.4,6.4,0,0,0-1.15,1.07c-4.75,7.34-9.36,14.77-14.28,22-1.41,2.08-.41,2.23,1.12,2.68,4.2,1.23,8.47,2.3,12.55,3.86,2.17.83,2.37.17,2.35-1.62,0-4.44,0-8.88,0-13.32m176.29-61.62-.07.2c.06,0,.15.06.19,0s0-.12.06-.18l-.18,0m-195.65-65.69-.08-.18,0,.32.13-.15m359.9,134.19a.62.62,0,0,0-.21.09s0,.17.06.17a.23.23,0,0,0,.2-.06s0-.13,0-.2" transform="translate(0 -177.69)"/><path d="M1044.29,682.76a9.31,9.31,0,0,1,0-1.73c1.14-4.87,2.32-9.73,3.48-14.6q5.7-23.78,11.4-47.56c2.32-9.62,4.72-19.23,7-28.85,2.24-9.34,4.37-18.7,6.63-28,1.33-5.51,2.85-11,4.2-16.48,1-4.26,1.92-8.57,2.94-12.83,1.07-4.43,2.27-8.83,3.34-13.25,1-4.23,2-8.49,3-12.73.94-4,1.94-7.91,2.91-11.86.84-3.43,1.64-6.86,2.5-10.28,1.08-4.3,2.21-8.59,3.3-12.88.71-2.81,1.38-5.63,2.09-8.44,1.13-4.46,2.34-8.91,3.39-13.39s1.9-9,3-13.54c1-4.13,2.15-8.21,3.21-12.33.75-2.89,1.43-5.81,2.16-8.7,1.11-4.38,2.26-8.75,3.34-13.14.74-3,1.34-6,2.07-9,1.11-4.57,2.33-9.11,3.42-13.68,1-4.23,1.86-8.5,2.91-12.72s2.36-8.35,3.41-12.56,1.88-8.48,2.91-12.7c1.39-5.71,2.92-11.39,4.32-17.09,1-4.13,1.85-8.3,2.89-12.42,1.36-5.44,2.9-10.84,4.24-16.28.8-3.25,1.3-6.58,2.06-9.85.94-4.06,2-8.09,3-12.13.78-3.07,1.61-6.12,2.37-9.19,1-4.13,2-8.28,3-12.41q1.17-4.74,2.43-9.45a6.65,6.65,0,0,1,.84-1.47,5.9,5.9,0,0,1,1,1.1q4,7.39,7.93,14.8c4.9,9.25,9.78,18.51,14.69,27.75,1.85,3.48,3.84,6.89,5.69,10.37,5.3,10,10.55,20,15.83,30,2.15,4.05,4.35,8.08,6.51,12.13q7.14,13.36,14.26,26.73c2.16,4,4.36,8.07,6.51,12.12q7.57,14.22,15.13,28.46c2.11,4,4.27,7.91,6.39,11.88q7.2,13.48,14.38,27c1.73,3.23,3.45,6.48,5.36,9.6.91,1.48.75,2.35-.46,3.53q-7.86,7.67-15.56,15.51-19.93,20.31-39.8,40.69l-36.45,37.34-38.21,39.12-37,37.95q-19.3,19.76-38.6,39.52c-4.56,4.7-9,9.56-13.44,14.33-.5.53-1.08,1-2,1.74" transform="translate(0 -177.69)"/><path d="M1036.55,656.85c-.26-4.68-.48-9.36-.8-14-.22-3.19-.45-6.39-.92-9.55a162.63,162.63,0,0,1-1.83-21,94.1,94.1,0,0,0-.85-9.56c-.53-4.33-1.19-8.64-1.79-13,0-.09,0-.18,0-.28-.29-5.41-.45-10.83-.91-16.23-.39-4.61-1.13-9.2-1.72-13.79,0-.18,0-.37-.06-.55-.3-4.85-.49-9.71-.92-14.55-.46-5.26-1.14-10.51-1.73-15.76,0-.18,0-.37,0-.55-.31-5.59-.49-11.19-1-16.76-.38-4.43-1.11-8.84-1.69-13.26,0-.18,0-.37,0-.55-.31-5.5-.5-11-1-16.48-.39-4.53-1.12-9-1.7-13.55,0-.18,0-.37-.05-.55-.31-5.4-.49-10.82-1-16.21-.4-4.62-1.12-9.21-1.7-13.82,0-.28,0-.55-.06-.83q-.45-8.39-.9-16.78c0-.09,0-.2,0-.28-2.39-4.8,1.27-7.47,3.64-10.69,3.46-4.71,6.67-9.59,10.06-14.35,2.6-3.65,5.32-7.2,8-10.82s5.4-7.59,8.14-11.35c2.91-4,5.87-7.94,8.79-11.91,1.84-2.5,3.65-5,5.5-7.53q3.48-4.73,7-9.45c2.19-2.93,4.41-5.84,6.6-8.77s4.47-6,6.7-9,4.65-6.34,7-9.48c2.13-2.85,4.33-5.65,6.45-8.51,3.86-5.22,7.68-10.47,11.54-15.69,2.17-2.94,4.41-5.82,6.59-8.75,3.23-4.32,6.43-8.67,9.65-13,2.07-2.78,4.18-5.54,6.26-8.32,2.46-3.29,4.89-6.6,7.36-9.89,1.21-1.61,2.43-3.21,3.7-4.77.25-.31.76-.4,1.14-.6a4,4,0,0,1,.28,1.49c-1.45,6.26-2.89,12.52-4.46,18.74-1.06,4.21-2.46,8.33-3.49,12.55-1.07,4.4-1.78,8.88-2.81,13.28-1.07,4.58-2.41,9.09-3.48,13.66-1.32,5.64-2.41,11.33-3.73,17-1,4.14-2.24,8.2-3.26,12.33-.8,3.25-1.4,6.56-2.15,9.82-.67,2.92-1.41,5.81-2.14,8.71-.77,3.07-1.58,6.12-2.34,9.19-1.16,4.65-2.34,9.3-3.41,14-.75,3.27-1.28,6.59-2,9.86-.94,4.05-2,8.07-3,12.11-.83,3.43-1.57,6.88-2.39,10.31-.69,2.91-1.48,5.79-2.17,8.7-1.09,4.57-2.11,9.16-3.2,13.73-.69,2.91-1.47,5.8-2.16,8.71-1.11,4.67-2.17,9.35-3.27,14-.67,2.82-1.41,5.63-2.08,8.45-.83,3.51-1.6,7-2.44,10.55-.67,2.82-1.4,5.63-2.12,8.44-.78,3.06-1.6,6.12-2.37,9.19-1.16,4.64-2.33,9.28-3.41,13.95-1,4.5-1.89,9.05-3,13.55-1,4.13-2.19,8.21-3.21,12.33-.8,3.25-1.42,6.55-2.16,9.82-.66,2.91-1.4,5.81-2.08,8.73-.82,3.52-1.59,7.06-2.44,10.57-.68,2.82-1.45,5.61-2.13,8.43-1.11,4.66-2.16,9.34-3.27,14-.7,2.91-1.48,5.79-2.22,8.69s-1.54,6-2.28,8.94c-1.17,4.73-2.37,9.46-3.46,14.21-1,4.51-1.84,9.06-2.91,13.56-1,4.14-2.24,8.21-3.27,12.34-.79,3.17-1.37,6.38-2.1,9.57-.69,3-1.48,6-2.18,9-.8,3.43-1.55,6.88-2.32,10.32-.06.27,0,.61-.12.81a17.82,17.82,0,0,1-1.21,1.42,7.34,7.34,0,0,1-.44-1.49c-.33-4.22-.63-8.44-.93-12.66h-.12" transform="translate(0 -177.69)"/><polygon points="1140.74 66.4 1140.95 66.5 1140.73 66.59 1140.74 66.4"/></g></g></g></g></g></svg>