<?xml version="1.0" encoding="utf-8"?>
<!-- Generator: Adobe Illustrator 24.3.0, SVG Export Plug-In . SVG Version: 6.00 Build 0)  -->
<svg version="1.1" id="Layer_1" xmlns="http://www.w3.org/2000/svg" xmlns:xlink="http://www.w3.org/1999/xlink" x="0px" y="0px"
	 viewBox="0 0 180 180" enable-background="new 0 0 180 180" xml:space="preserve">
<g>
	<g id="XMLID_175_">
		<path fill="#ADEBF6" d="M154.622,90.001c0,35.689-28.932,64.621-64.621,64.621c-35.691,0-64.623-28.932-64.623-64.621
			c0-35.691,28.932-64.623,64.623-64.623C125.69,25.378,154.622,54.31,154.622,90.001z"/>
	</g>
	<g>
		<g>
			<path fill="#333333" d="M122.446,129.685h-9.41c-0.213,0-0.385-0.172-0.385-0.385c0-0.211,0.172-0.383,0.385-0.383h9.41
				c0.211,0,0.385,0.172,0.385,0.383C122.831,129.513,122.657,129.685,122.446,129.685z"/>
		</g>
		<g>
			<path fill="#333333" d="M121.917,126.761h-1.52c-0.213,0-0.385-0.172-0.385-0.385c0-0.211,0.172-0.383,0.385-0.383h1.52
				c0.211,0,0.385,0.172,0.385,0.383C122.302,126.589,122.128,126.761,121.917,126.761z"/>
		</g>
		<g>
			<path fill="#333333" d="M130.444,126.761h-5.73c-0.213,0-0.385-0.172-0.385-0.385c0-0.211,0.172-0.383,0.385-0.383h5.73
				c0.211,0,0.385,0.172,0.385,0.383C130.829,126.589,130.655,126.761,130.444,126.761z"/>
		</g>
		<g>
			<path fill="#333333" d="M124.616,122.202h-6.918c-0.213,0-0.385-0.172-0.385-0.385c0-0.211,0.172-0.385,0.385-0.385h6.918
				c0.213,0,0.383,0.174,0.383,0.385C124.999,122.03,124.829,122.202,124.616,122.202z"/>
		</g>
	</g>
	<g>
		<g>
			<path fill="#333333" d="M65.89,125.126h-9.41c-0.213,0-0.385-0.172-0.385-0.385c0-0.211,0.172-0.383,0.385-0.383h9.41
				c0.213,0,0.385,0.172,0.385,0.383C66.274,124.954,66.103,125.126,65.89,125.126z"/>
		</g>
		<g>
			<path fill="#333333" d="M58.528,128.05h-1.52c-0.213,0-0.383-0.172-0.383-0.385c0-0.211,0.17-0.383,0.383-0.383h1.52
				c0.211,0,0.385,0.172,0.385,0.383C58.913,127.878,58.739,128.05,58.528,128.05z"/>
		</g>
		<g>
			<path fill="#333333" d="M54.212,128.05h-5.73c-0.213,0-0.383-0.172-0.383-0.385c0-0.211,0.17-0.383,0.383-0.383h5.73
				c0.213,0,0.383,0.172,0.383,0.383C54.595,127.878,54.425,128.05,54.212,128.05z"/>
		</g>
		<g>
			<path fill="#333333" d="M61.228,132.608H54.31c-0.211,0-0.385-0.17-0.385-0.383c0-0.213,0.174-0.385,0.385-0.385h6.918
				c0.213,0,0.383,0.172,0.383,0.385C61.61,132.438,61.44,132.608,61.228,132.608z"/>
		</g>
	</g>
	<g>
		<g>
			<path fill="#333333" d="M118.649,105.677h-9.41c-0.211,0-0.385-0.172-0.385-0.385c0-0.213,0.174-0.383,0.385-0.383h9.41
				c0.211,0,0.385,0.17,0.385,0.383C119.034,105.505,118.86,105.677,118.649,105.677z"/>
		</g>
		<g>
			<path fill="#333333" d="M118.12,102.753h-1.52c-0.213,0-0.383-0.172-0.383-0.385c0-0.211,0.17-0.385,0.383-0.385h1.52
				c0.213,0,0.385,0.174,0.385,0.385C118.505,102.581,118.333,102.753,118.12,102.753z"/>
		</g>
		<g>
			<path fill="#333333" d="M126.647,102.753h-5.73c-0.211,0-0.385-0.172-0.385-0.385c0-0.211,0.174-0.385,0.385-0.385h5.73
				c0.213,0,0.385,0.174,0.385,0.385C127.032,102.581,126.86,102.753,126.647,102.753z"/>
		</g>
		<g>
			<path fill="#333333" d="M120.819,98.192h-6.918c-0.211,0-0.385-0.172-0.385-0.385c0-0.211,0.174-0.383,0.385-0.383h6.918
				c0.213,0,0.383,0.172,0.383,0.383C121.202,98.021,121.032,98.192,120.819,98.192z"/>
		</g>
	</g>
	<g>
		<g>
			<path fill="#333333" d="M43.423,97.79h-1.519c-0.213,0-0.383-0.172-0.383-0.383c0-0.213,0.17-0.385,0.383-0.385h1.519
				c0.213,0,0.385,0.172,0.385,0.385C43.808,97.618,43.636,97.79,43.423,97.79z"/>
		</g>
		<g>
			<path fill="#333333" d="M39.106,97.79h-5.73c-0.213,0-0.383-0.172-0.383-0.383c0-0.213,0.17-0.385,0.383-0.385h5.73
				c0.213,0,0.385,0.172,0.385,0.385C39.491,97.618,39.319,97.79,39.106,97.79z"/>
		</g>
		<g>
			<path fill="#333333" d="M46.122,102.351h-6.918c-0.211,0-0.385-0.172-0.385-0.383c0-0.213,0.174-0.385,0.385-0.385h6.918
				c0.213,0,0.383,0.172,0.383,0.385C46.505,102.179,46.335,102.351,46.122,102.351z"/>
		</g>
	</g>
	<g>
		<g>
			<path fill="#333333" d="M134.479,85.024h-1.521c-0.211,0-0.383-0.172-0.383-0.383c0-0.213,0.172-0.385,0.383-0.385h1.521
				c0.211,0,0.385,0.172,0.385,0.385C134.864,84.853,134.69,85.024,134.479,85.024z"/>
		</g>
		<g>
			<path fill="#333333" d="M143.005,85.024h-5.729c-0.213,0-0.385-0.172-0.385-0.383c0-0.213,0.172-0.385,0.385-0.385h5.729
				c0.213,0,0.385,0.172,0.385,0.385C143.39,84.853,143.218,85.024,143.005,85.024z"/>
		</g>
		<g>
			<path fill="#333333" d="M137.179,80.466h-6.918c-0.213,0-0.385-0.174-0.385-0.385c0-0.213,0.172-0.383,0.385-0.383h6.918
				c0.211,0,0.383,0.17,0.383,0.383C137.562,80.292,137.39,80.466,137.179,80.466z"/>
		</g>
	</g>
	<g>
		<g>
			<path fill="#333333" d="M61.403,105.515h-1.518c-0.213,0-0.385-0.172-0.385-0.383c0-0.213,0.172-0.385,0.385-0.385h1.518
				c0.215,0,0.385,0.172,0.385,0.385C61.788,105.343,61.618,105.515,61.403,105.515z"/>
		</g>
		<g>
			<path fill="#333333" d="M69.931,105.515H64.2c-0.211,0-0.383-0.172-0.383-0.383c0-0.213,0.172-0.385,0.383-0.385h5.73
				c0.215,0,0.385,0.172,0.385,0.385C70.315,105.343,70.146,105.515,69.931,105.515z"/>
		</g>
		<g>
			<path fill="#333333" d="M64.104,100.954h-6.918c-0.213,0-0.385-0.17-0.385-0.383c0-0.213,0.172-0.385,0.385-0.385h6.918
				c0.211,0,0.383,0.172,0.383,0.385C64.487,100.784,64.315,100.954,64.104,100.954z"/>
		</g>
	</g>
	<g id="XMLID_114_">
		<path fill="#333333" d="M73.575,126.661c0.305,0.215,0.613,0.428,0.928,0.633c0.314,0.203,0.637,0.396,0.957,0.584l1.811-1.639
			c0.393,0.221,0.787,0.43,1.188,0.623l-0.315,2.428c0.682,0.311,1.373,0.592,2.066,0.846l1.482-1.939
			c0.426,0.141,0.854,0.271,1.281,0.393l0.139,2.436c0.729,0.182,1.455,0.336,2.189,0.459l1.102-2.189
			c0.441,0.066,0.883,0.113,1.326,0.15l0.586,2.373c0.748,0.045,1.492,0.064,2.236,0.051l0.682-2.355
			c0.442-0.02,0.887-0.053,1.33-0.1l1.014,2.227c0.74-0.094,1.479-0.217,2.211-0.367l0.232-2.434
			c0.434-0.102,0.867-0.215,1.297-0.342l1.404,2.006c0.709-0.227,1.408-0.49,2.102-0.771l-0.213-2.435
			c0.41-0.178,0.812-0.367,1.209-0.57l1.746,1.713c0.656-0.352,1.295-0.736,1.922-1.141l-0.656-2.35
			c0.365-0.252,0.73-0.516,1.084-0.789l2.033,1.361c0.574-0.469,1.135-0.961,1.68-1.475l-1.084-2.191
			c0.316-0.315,0.623-0.639,0.92-0.971l2.246,0.959c0.48-0.566,0.949-1.148,1.391-1.76l-1.469-1.961
			c0.125-0.182,0.248-0.367,0.371-0.553c0.121-0.188,0.24-0.375,0.354-0.566l2.387,0.535c0.379-0.652,0.717-1.318,1.037-1.984
			l-1.799-1.656c0.182-0.408,0.354-0.818,0.51-1.236l2.443,0.088c0.246-0.709,0.467-1.422,0.658-2.139l-2.074-1.295
			c0.104-0.436,0.195-0.877,0.272-1.312l2.416-0.365c0.111-0.738,0.199-1.479,0.252-2.221l-2.277-0.891
			c0.02-0.443,0.029-0.889,0.023-1.336l2.309-0.805c-0.027-0.748-0.072-1.494-0.158-2.232l-2.404-0.459
			c-0.062-0.439-0.135-0.881-0.223-1.32l2.125-1.211c-0.162-0.729-0.352-1.451-0.57-2.168l-2.447-0.012
			c-0.139-0.422-0.291-0.842-0.455-1.256l1.869-1.582c-0.291-0.688-0.619-1.357-0.961-2.022l-2.404,0.438
			c-0.217-0.389-0.443-0.771-0.684-1.148l1.545-1.902c-0.41-0.617-0.85-1.221-1.312-1.807l-2.283,0.873
			c-0.283-0.342-0.576-0.68-0.881-1.01l1.162-2.145c-0.518-0.531-1.057-1.047-1.621-1.541l-2.084,1.281
			c-0.34-0.285-0.691-0.559-1.055-0.826l0.752-2.324c-0.305-0.215-0.611-0.43-0.926-0.633c-0.316-0.205-0.637-0.396-0.957-0.586
			l-1.813,1.639c-0.393-0.219-0.787-0.43-1.187-0.623l0.314-2.426c-0.68-0.312-1.371-0.594-2.066-0.846l-1.48,1.939
			c-0.428-0.143-0.854-0.273-1.281-0.394l-0.141-2.434c-0.725-0.184-1.453-0.338-2.188-0.461l-1.102,2.189
			c-0.441-0.064-0.883-0.113-1.326-0.15l-0.586-2.373c-0.746-0.045-1.494-0.065-2.236-0.049l-0.682,2.354
			c-0.443,0.02-0.889,0.055-1.33,0.1l-1.016-2.227c-0.738,0.096-1.476,0.219-2.209,0.369l-0.234,2.432
			c-0.434,0.101-0.865,0.215-1.297,0.342l-1.402-2.006c-0.711,0.227-1.41,0.488-2.102,0.771l0.211,2.438
			c-0.408,0.178-0.812,0.367-1.207,0.568l-1.748-1.713c-0.654,0.352-1.293,0.736-1.922,1.141l0.658,2.35
			c-0.367,0.252-0.73,0.516-1.086,0.789l-2.031-1.359c-0.576,0.467-1.137,0.961-1.682,1.475l1.086,2.189
			c-0.318,0.314-0.621,0.639-0.922,0.973l-2.246-0.959c-0.48,0.565-0.947,1.146-1.389,1.758l1.469,1.961
			c-0.125,0.182-0.25,0.367-0.371,0.553c-0.119,0.188-0.236,0.377-0.354,0.566l-2.389-0.535c-0.377,0.652-0.717,1.318-1.035,1.986
			l1.797,1.654c-0.182,0.408-0.353,0.818-0.508,1.236l-2.443-0.086c-0.248,0.707-0.465,1.42-0.658,2.137l2.074,1.295
			c-0.104,0.438-0.193,0.877-0.273,1.314l-2.414,0.363c-0.111,0.738-0.199,1.479-0.252,2.221l2.279,0.893
			c-0.023,0.441-0.031,0.887-0.025,1.334l-2.311,0.805c0.027,0.748,0.076,1.494,0.162,2.232l2.402,0.459
			c0.061,0.441,0.133,0.881,0.221,1.32l-2.125,1.213c0.162,0.729,0.354,1.449,0.57,2.164l2.449,0.016
			c0.137,0.422,0.291,0.842,0.453,1.254l-1.867,1.584c0.289,0.686,0.617,1.355,0.959,2.02l2.406-0.438
			c0.217,0.391,0.441,0.77,0.682,1.148l-1.545,1.904c0.412,0.617,0.854,1.221,1.314,1.805l2.281-0.873
			c0.285,0.344,0.58,0.68,0.885,1.01l-1.166,2.146c0.518,0.531,1.059,1.047,1.621,1.539l2.084-1.281
			c0.342,0.285,0.695,0.561,1.055,0.826L73.575,126.661z M78.854,122.759l7.969-12.318c0.648,0.289,1.332,0.496,2.045,0.6
			c0.529,0.078,1.059,0.094,1.578,0.065l3.076,14.346C88.62,126.23,83.442,125.397,78.854,122.759z M95.851,124.95l-3.076-14.346
			c1.156-0.441,2.199-1.154,3.031-2.09l12.32,7.969C105.022,120.771,100.644,123.653,95.851,124.95z M109.421,114.483l-12.316-7.967
			c0.525-1.174,0.736-2.416,0.666-3.627l14.34-3.076C112.896,104.718,112.06,109.894,109.421,114.483z M111.614,97.485
			l-14.344,3.076c-0.437-1.148-1.146-2.195-2.092-3.039l7.967-12.314C107.433,88.313,110.315,92.692,111.614,97.485z
			 M101.146,83.915l-7.973,12.32c-1.16-0.52-2.402-0.736-3.621-0.666l-3.076-14.344C91.378,80.442,96.556,81.274,101.146,83.915z
			 M84.146,81.724l3.076,14.344c-1.045,0.4-2.016,1.021-2.828,1.865c-0.07,0.074-0.141,0.148-0.209,0.227L71.87,90.192
			C74.976,85.903,79.353,83.021,84.146,81.724z M70.575,92.194l12.312,7.963c-0.514,1.15-0.732,2.396-0.662,3.629l-14.338,3.074
			C67.104,101.96,67.938,96.782,70.575,92.194z M68.386,109.19l14.338-3.074c0.395,1.035,1.018,2.004,1.867,2.824
			c0.074,0.072,0.154,0.137,0.232,0.207l-7.967,12.316C72.567,118.36,69.685,113.981,68.386,109.19z"/>
	</g>
	<g id="XMLID_68_">
		<g id="XMLID_112_">
			<path fill="#FFDB76" d="M120.128,97.647H61.335V76.802c0-12.285,9.961-22.246,22.248-22.246H97.88
				c12.285,0,22.248,9.961,22.248,22.246V97.647z"/>
		</g>
		<g id="XMLID_111_">
			<path fill="#D1A537" d="M121.22,100.265H58.78c-1.416,0-2.562-1.148-2.562-2.562v-1.646c0-1.416,1.147-2.562,2.562-2.562h62.44
				c1.416,0,2.561,1.146,2.561,2.562v1.646C123.78,99.116,122.636,100.265,121.22,100.265z"/>
		</g>
		<g id="XMLID_106_">
			<path fill="#D1A537" d="M87.345,55.271v30.504c0,1.414-1.146,2.562-2.562,2.562h-1.646c-1.416,0-2.562-1.148-2.562-2.562V55.271
				c0-1.416,1.146-2.562,2.562-2.562h1.646C86.198,52.708,87.345,53.855,87.345,55.271z"/>
		</g>
		<g id="XMLID_71_">
			<path fill="#D1A537" d="M100.888,55.271v30.504c0,1.414-1.146,2.562-2.562,2.562h-1.645c-1.418,0-2.562-1.148-2.562-2.562V55.271
				c0-1.416,1.145-2.562,2.562-2.562h1.645C99.741,52.708,100.888,53.855,100.888,55.271z"/>
		</g>
		<g id="XMLID_70_">
			<path fill="#FFDB76" d="M94.118,50.69v35.084c0,1.414-1.148,2.562-2.564,2.562h-1.646c-1.414,0-2.562-1.148-2.562-2.562V50.69
				c0-1.414,1.148-2.562,2.562-2.562h1.646C92.97,48.128,94.118,49.276,94.118,50.69z"/>
		</g>
	</g>
</g>
</svg>
