<?xml version="1.0" encoding="utf-8"?>
<!-- Generator: Adobe Illustrator 24.3.0, SVG Export Plug-In . SVG Version: 6.00 Build 0)  -->
<svg version="1.1" id="Layer_1" xmlns="http://www.w3.org/2000/svg" xmlns:xlink="http://www.w3.org/1999/xlink" x="0px" y="0px"
	 viewBox="0 0 180 180" enable-background="new 0 0 180 180" xml:space="preserve">
<g>
	<g id="XMLID_1073_">
		<path fill="#F2F2F2" d="M154.622,90.001c0,35.689-28.932,64.621-64.622,64.621c-35.69,0-64.623-28.932-64.623-64.621
			C25.378,54.31,54.31,25.378,90,25.378C125.69,25.378,154.622,54.31,154.622,90.001z"/>
	</g>
	<g>
		<g>
			<path fill="#CCCBC9" d="M132.982,133.091c0,1.908-1.546,3.455-3.454,3.455h-2.108c-1.908,0-3.454-1.547-3.454-3.455v-7.867
				c0-1.908,1.546-3.455,3.454-3.455h2.108c1.908,0,3.454,1.547,3.454,3.455V133.091z"/>
		</g>
		<g>
			<path fill="#FFFFFF" d="M129.348,127.253c0,0.463-0.376,0.84-0.839,0.84l0,0c-0.465,0-0.84-0.377-0.84-0.84v-2.207
				c0-0.465,0.375-0.84,0.84-0.84l0,0c0.463,0,0.839,0.375,0.839,0.84V127.253z"/>
		</g>
	</g>
	<g>
		<g>
			<path fill="#333333" d="M132.135,107.595h-1.371c-0.265,0-0.48-0.215-0.48-0.48c0-0.264,0.215-0.481,0.48-0.481h0.411v-0.549
				c0-0.266,0.215-0.48,0.48-0.48c0.265,0,0.48,0.215,0.48,0.48V107.595z M128.845,107.595h-1.92c-0.266,0-0.48-0.215-0.48-0.48
				c0-0.264,0.214-0.481,0.48-0.481h1.92c0.265,0,0.48,0.217,0.48,0.481C129.325,107.38,129.11,107.595,128.845,107.595z
				 M125.005,107.595h-1.92c-0.265,0-0.48-0.215-0.48-0.48c0-0.264,0.215-0.481,0.48-0.481h1.92c0.265,0,0.48,0.217,0.48,0.481
				C125.485,107.38,125.27,107.595,125.005,107.595z M121.165,107.595h-1.92c-0.265,0-0.48-0.215-0.48-0.48
				c0-0.264,0.215-0.481,0.48-0.481h1.92c0.266,0,0.48,0.217,0.48,0.481C121.645,107.38,121.43,107.595,121.165,107.595z
				 M117.325,107.595h-1.92c-0.266,0-0.48-0.215-0.48-0.48c0-0.264,0.214-0.481,0.48-0.481h1.92c0.265,0,0.48,0.217,0.48,0.481
				C117.805,107.38,117.59,107.595,117.325,107.595z M113.485,107.595h-1.92c-0.265,0-0.48-0.215-0.48-0.48
				c0-0.264,0.215-0.481,0.48-0.481h1.92c0.265,0,0.48,0.217,0.48,0.481C113.965,107.38,113.75,107.595,113.485,107.595z
				 M109.645,107.595h-1.92c-0.265,0-0.48-0.215-0.48-0.48c0-0.264,0.215-0.481,0.48-0.481h1.92c0.266,0,0.48,0.217,0.48,0.481
				C110.124,107.38,109.91,107.595,109.645,107.595z M105.805,107.595h-1.92c-0.266,0-0.48-0.215-0.48-0.48
				c0-0.264,0.214-0.481,0.48-0.481h1.92c0.265,0,0.48,0.217,0.48,0.481C106.285,107.38,106.07,107.595,105.805,107.595z
				 M101.965,107.595h-1.92c-0.265,0-0.48-0.215-0.48-0.48c0-0.029,0.002-0.059,0.008-0.088c-0.005-0.027-0.008-0.057-0.008-0.086
				v-1.92c0-0.266,0.215-0.48,0.48-0.48c0.265,0,0.48,0.215,0.48,0.48v1.613h1.44c0.265,0,0.48,0.217,0.48,0.481
				C102.445,107.38,102.229,107.595,101.965,107.595z M131.655,104.646c-0.265,0-0.48-0.215-0.48-0.48v-1.92
				c0-0.266,0.215-0.48,0.48-0.48c0.265,0,0.48,0.215,0.48,0.48v1.92C132.135,104.431,131.92,104.646,131.655,104.646z
				 M100.044,103.579c-0.265,0-0.48-0.213-0.48-0.479v-1.92c0-0.266,0.215-0.48,0.48-0.48c0.265,0,0.48,0.215,0.48,0.48v1.92
				C100.524,103.366,100.31,103.579,100.044,103.579z M131.655,100.806c-0.265,0-0.48-0.215-0.48-0.48v-1.92
				c0-0.266,0.215-0.48,0.48-0.48c0.265,0,0.48,0.215,0.48,0.48v1.92C132.135,100.591,131.92,100.806,131.655,100.806z
				 M100.044,99.739c-0.265,0-0.48-0.215-0.48-0.479v-1.92c0-0.266,0.215-0.48,0.48-0.48c0.265,0,0.48,0.215,0.48,0.48v1.92
				C100.524,99.524,100.31,99.739,100.044,99.739z M131.655,96.966c-0.265,0-0.48-0.215-0.48-0.48v-1.92
				c0-0.266,0.215-0.48,0.48-0.48c0.265,0,0.48,0.215,0.48,0.48v1.92C132.135,96.751,131.92,96.966,131.655,96.966z M100.044,95.899
				c-0.265,0-0.48-0.215-0.48-0.479v-1.92c0-0.266,0.215-0.48,0.48-0.48c0.265,0,0.48,0.215,0.48,0.48v1.92
				C100.524,95.685,100.31,95.899,100.044,95.899z M131.655,93.126c-0.265,0-0.48-0.215-0.48-0.48v-1.92
				c0-0.266,0.215-0.48,0.48-0.48c0.265,0,0.48,0.215,0.48,0.48v1.92C132.135,92.911,131.92,93.126,131.655,93.126z M100.044,92.06
				c-0.265,0-0.48-0.215-0.48-0.48v-1.92c0-0.264,0.215-0.479,0.48-0.479c0.265,0,0.48,0.215,0.48,0.479v1.92
				C100.524,91.845,100.31,92.06,100.044,92.06z M131.655,89.284c-0.265,0-0.48-0.213-0.48-0.479v-1.92
				c0-0.266,0.215-0.48,0.48-0.48c0.265,0,0.48,0.215,0.48,0.48v1.92C132.135,89.071,131.92,89.284,131.655,89.284z M100.044,88.22
				c-0.265,0-0.48-0.215-0.48-0.48v-1.92c0-0.264,0.215-0.479,0.48-0.479c0.265,0,0.48,0.215,0.48,0.479v1.92
				C100.524,88.005,100.31,88.22,100.044,88.22z M131.655,85.444c-0.265,0-0.48-0.215-0.48-0.479v-1.92
				c0-0.266,0.215-0.48,0.48-0.48c0.265,0,0.48,0.215,0.48,0.48v1.92C132.135,85.229,131.92,85.444,131.655,85.444z M100.044,84.38
				c-0.265,0-0.48-0.215-0.48-0.48v-1.92c0-0.266,0.215-0.479,0.48-0.479c0.265,0,0.48,0.213,0.48,0.479v1.92
				C100.524,84.165,100.31,84.38,100.044,84.38z M131.655,81.604c-0.265,0-0.48-0.215-0.48-0.479v-1.922
				c0-0.264,0.215-0.479,0.48-0.479c0.265,0,0.48,0.215,0.48,0.479v1.922C132.135,81.39,131.92,81.604,131.655,81.604z
				 M100.044,80.54c-0.265,0-0.48-0.215-0.48-0.48v-2.381h0.48c0.265,0,0.49,0.213,0.49,0.48c0,0.031-0.004,0.062-0.01,0.094v1.807
				C100.524,80.325,100.31,80.54,100.044,80.54z M130.782,78.64h-1.92c-0.265,0-0.48-0.217-0.48-0.48c0-0.268,0.215-0.48,0.48-0.48
				h1.92c0.266,0,0.48,0.213,0.48,0.48C131.263,78.423,131.048,78.64,130.782,78.64z M126.942,78.64h-1.92
				c-0.265,0-0.48-0.217-0.48-0.48c0-0.268,0.215-0.48,0.48-0.48h1.92c0.266,0,0.48,0.213,0.48,0.48
				C127.422,78.423,127.208,78.64,126.942,78.64z M123.102,78.64h-1.92c-0.266,0-0.48-0.217-0.48-0.48c0-0.268,0.214-0.48,0.48-0.48
				h1.92c0.265,0,0.48,0.213,0.48,0.48C123.582,78.423,123.368,78.64,123.102,78.64z M119.263,78.64h-1.92
				c-0.265,0-0.48-0.217-0.48-0.48c0-0.268,0.215-0.48,0.48-0.48h1.92c0.265,0,0.48,0.213,0.48,0.48
				C119.743,78.423,119.528,78.64,119.263,78.64z M115.422,78.64h-1.92c-0.265,0-0.48-0.217-0.48-0.48c0-0.268,0.215-0.48,0.48-0.48
				h1.92c0.266,0,0.48,0.213,0.48,0.48C115.902,78.423,115.688,78.64,115.422,78.64z M111.582,78.64h-1.92
				c-0.266,0-0.48-0.217-0.48-0.48c0-0.268,0.214-0.48,0.48-0.48h1.92c0.265,0,0.48,0.213,0.48,0.48
				C112.062,78.423,111.848,78.64,111.582,78.64z M107.743,78.64h-1.92c-0.265,0-0.48-0.217-0.48-0.48c0-0.268,0.215-0.48,0.48-0.48
				h1.92c0.265,0,0.48,0.213,0.48,0.48C108.223,78.423,108.008,78.64,107.743,78.64z M103.902,78.64h-1.92
				c-0.265,0-0.48-0.217-0.48-0.48c0-0.268,0.215-0.48,0.48-0.48h1.92c0.266,0,0.48,0.213,0.48,0.48
				C104.382,78.423,104.168,78.64,103.902,78.64z"/>
		</g>
		<g>
			<path fill="#333333" d="M80.499,76.101h-1.37c-0.265,0-0.48-0.217-0.48-0.48c0-0.266,0.215-0.48,0.48-0.48h0.41v-0.551
				c0-0.264,0.215-0.479,0.48-0.479c0.266,0,0.48,0.215,0.48,0.479V76.101z M77.209,76.101h-1.92c-0.265,0-0.48-0.217-0.48-0.48
				c0-0.266,0.215-0.48,0.48-0.48h1.92c0.265,0,0.48,0.215,0.48,0.48C77.689,75.884,77.474,76.101,77.209,76.101z M73.369,76.101
				h-1.92c-0.265,0-0.48-0.217-0.48-0.48c0-0.266,0.215-0.48,0.48-0.48h1.92c0.264,0,0.48,0.215,0.48,0.48
				C73.849,75.884,73.633,76.101,73.369,76.101z M69.529,76.101h-1.92c-0.265,0-0.48-0.217-0.48-0.48c0-0.266,0.215-0.48,0.48-0.48
				h1.92c0.265,0,0.48,0.215,0.48,0.48C70.009,75.884,69.793,76.101,69.529,76.101z M65.689,76.101h-1.92
				c-0.265,0-0.48-0.217-0.48-0.48c0-0.266,0.215-0.48,0.48-0.48h1.92c0.265,0,0.48,0.215,0.48,0.48
				C66.169,75.884,65.954,76.101,65.689,76.101z M61.849,76.101h-1.92c-0.265,0-0.48-0.217-0.48-0.48c0-0.266,0.215-0.48,0.48-0.48
				h1.92c0.264,0,0.48,0.215,0.48,0.48C62.329,75.884,62.113,76.101,61.849,76.101z M58.009,76.101h-1.92
				c-0.265,0-0.48-0.217-0.48-0.48c0-0.266,0.215-0.48,0.48-0.48h1.92c0.265,0,0.48,0.215,0.48,0.48
				C58.489,75.884,58.273,76.101,58.009,76.101z M54.169,76.101h-1.92c-0.265,0-0.48-0.217-0.48-0.48c0-0.266,0.215-0.48,0.48-0.48
				h1.92c0.265,0,0.48,0.215,0.48,0.48C54.649,75.884,54.434,76.101,54.169,76.101z M50.329,76.101h-1.92
				c-0.265,0-0.48-0.217-0.48-0.48c0-0.029,0.001-0.061,0.008-0.088c-0.006-0.027-0.008-0.057-0.008-0.086v-1.92
				c0-0.266,0.215-0.48,0.48-0.48c0.264,0,0.48,0.215,0.48,0.48v1.613h1.44c0.264,0,0.48,0.215,0.48,0.48
				C50.809,75.884,50.593,76.101,50.329,76.101z M80.019,73.149c-0.265,0-0.48-0.215-0.48-0.48v-1.92
				c0-0.264,0.215-0.479,0.48-0.479c0.266,0,0.48,0.215,0.48,0.479v1.92C80.499,72.935,80.285,73.149,80.019,73.149z M48.409,72.085
				c-0.265,0-0.48-0.215-0.48-0.479v-1.92c0-0.266,0.215-0.48,0.48-0.48c0.264,0,0.48,0.215,0.48,0.48v1.92
				C48.889,71.87,48.673,72.085,48.409,72.085z M80.019,69.31c-0.265,0-0.48-0.215-0.48-0.48v-1.92c0-0.264,0.215-0.479,0.48-0.479
				c0.266,0,0.48,0.215,0.48,0.479v1.92C80.499,69.095,80.285,69.31,80.019,69.31z M48.409,68.245c-0.265,0-0.48-0.215-0.48-0.479
				v-1.922c0-0.264,0.215-0.479,0.48-0.479c0.264,0,0.48,0.215,0.48,0.479v1.922C48.889,68.03,48.673,68.245,48.409,68.245z
				 M80.019,65.47c-0.265,0-0.48-0.215-0.48-0.48v-1.92c0-0.264,0.215-0.48,0.48-0.48c0.266,0,0.48,0.217,0.48,0.48v1.92
				C80.499,65.255,80.285,65.47,80.019,65.47z M48.409,64.405c-0.265,0-0.48-0.215-0.48-0.48v-1.92c0-0.264,0.215-0.479,0.48-0.479
				c0.264,0,0.48,0.215,0.48,0.479v1.92C48.889,64.19,48.673,64.405,48.409,64.405z M80.019,61.63c-0.265,0-0.48-0.215-0.48-0.481
				v-1.92c0-0.264,0.215-0.48,0.48-0.48c0.266,0,0.48,0.217,0.48,0.48v1.92C80.499,61.415,80.285,61.63,80.019,61.63z
				 M48.409,60.565c-0.265,0-0.48-0.215-0.48-0.48v-1.92c0-0.264,0.215-0.479,0.48-0.479c0.264,0,0.48,0.215,0.48,0.479v1.92
				C48.889,60.351,48.673,60.565,48.409,60.565z M80.019,57.79c-0.265,0-0.48-0.215-0.48-0.48v-1.92c0-0.264,0.215-0.48,0.48-0.48
				c0.266,0,0.48,0.217,0.48,0.48v1.92C80.499,57.575,80.285,57.79,80.019,57.79z M48.409,56.726c-0.265,0-0.48-0.215-0.48-0.481
				v-1.92c0-0.264,0.215-0.48,0.48-0.48c0.264,0,0.48,0.217,0.48,0.48v1.92C48.889,56.511,48.673,56.726,48.409,56.726z
				 M80.019,53.95c-0.265,0-0.48-0.215-0.48-0.48v-1.92c0-0.264,0.215-0.48,0.48-0.48c0.266,0,0.48,0.217,0.48,0.48v1.92
				C80.499,53.735,80.285,53.95,80.019,53.95z M48.409,52.886c-0.265,0-0.48-0.215-0.48-0.48v-1.92c0-0.264,0.215-0.48,0.48-0.48
				c0.264,0,0.48,0.217,0.48,0.48v1.92C48.889,52.671,48.673,52.886,48.409,52.886z M80.019,50.11c-0.265,0-0.48-0.215-0.48-0.48
				v-1.92c0-0.264,0.215-0.48,0.48-0.48c0.266,0,0.48,0.217,0.48,0.48v1.92C80.499,49.896,80.285,50.11,80.019,50.11z
				 M48.409,49.046c-0.265,0-0.48-0.217-0.48-0.48v-2.383h0.48c0.264,0,0.489,0.215,0.489,0.481c0,0.033-0.003,0.062-0.009,0.094
				v1.809C48.889,48.829,48.673,49.046,48.409,49.046z M79.146,47.142h-1.92c-0.265,0-0.48-0.213-0.48-0.479
				c0-0.266,0.215-0.481,0.48-0.481h1.92c0.266,0,0.48,0.215,0.48,0.481C79.626,46.929,79.412,47.142,79.146,47.142z M75.306,47.142
				h-1.92c-0.264,0-0.48-0.213-0.48-0.479c0-0.266,0.216-0.481,0.48-0.481h1.92c0.266,0,0.48,0.215,0.48,0.481
				C75.786,46.929,75.572,47.142,75.306,47.142z M71.466,47.142h-1.92c-0.264,0-0.48-0.213-0.48-0.479
				c0-0.266,0.216-0.481,0.48-0.481h1.92c0.266,0,0.48,0.215,0.48,0.481C71.946,46.929,71.731,47.142,71.466,47.142z M67.626,47.142
				h-1.92c-0.265,0-0.48-0.213-0.48-0.479c0-0.266,0.215-0.481,0.48-0.481h1.92c0.266,0,0.48,0.215,0.48,0.481
				C68.106,46.929,67.892,47.142,67.626,47.142z M63.786,47.142h-1.92c-0.264,0-0.48-0.213-0.48-0.479
				c0-0.266,0.216-0.481,0.48-0.481h1.92c0.266,0,0.48,0.215,0.48,0.481C64.266,46.929,64.052,47.142,63.786,47.142z M59.946,47.142
				h-1.92c-0.264,0-0.48-0.213-0.48-0.479c0-0.266,0.216-0.481,0.48-0.481h1.92c0.266,0,0.48,0.215,0.48,0.481
				C60.426,46.929,60.212,47.142,59.946,47.142z M56.106,47.142h-1.92c-0.265,0-0.48-0.213-0.48-0.479
				c0-0.266,0.215-0.481,0.48-0.481h1.92c0.266,0,0.48,0.215,0.48,0.481C56.586,46.929,56.372,47.142,56.106,47.142z M52.266,47.142
				h-1.92c-0.264,0-0.48-0.213-0.48-0.479c0-0.266,0.216-0.481,0.48-0.481h1.92c0.266,0,0.48,0.215,0.48,0.481
				C52.746,46.929,52.532,47.142,52.266,47.142z"/>
		</g>
		<g>
			<path fill="#333333" d="M108.309,59.69h-1.92c-0.265,0-0.48-0.215-0.48-0.48c0-0.264,0.215-0.48,0.48-0.48h1.92
				c0.267,0,0.48,0.217,0.48,0.48C108.789,59.476,108.575,59.69,108.309,59.69z M104.469,59.69h-1.92c-0.266,0-0.48-0.215-0.48-0.48
				c0-0.264,0.214-0.48,0.48-0.48h1.92c0.265,0,0.48,0.217,0.48,0.48C104.949,59.476,104.734,59.69,104.469,59.69z M100.629,59.69
				h-1.92c-0.266,0-0.48-0.215-0.48-0.48c0-0.264,0.214-0.48,0.48-0.48h1.92c0.265,0,0.48,0.217,0.48,0.48
				C101.109,59.476,100.895,59.69,100.629,59.69z M96.789,59.69h-1.92c-0.266,0-0.48-0.215-0.48-0.48c0-0.264,0.214-0.48,0.48-0.48
				h1.92c0.266,0,0.48,0.217,0.48,0.48C97.269,59.476,97.055,59.69,96.789,59.69z M109.898,59.358c-0.266,0-0.48-0.215-0.48-0.478
				v-1.92c0-0.266,0.214-0.48,0.48-0.48c0.264,0,0.48,0.215,0.48,0.48v1.92C110.378,59.144,110.162,59.358,109.898,59.358z
				 M94.869,57.782c-0.266,0-0.48-0.215-0.48-0.48v-1.92c0-0.268,0.214-0.48,0.48-0.48c0.265,0,0.48,0.213,0.48,0.48v1.92
				C95.349,57.567,95.134,57.782,94.869,57.782z M109.898,55.519c-0.266,0-0.48-0.215-0.48-0.479v-1.922
				c0-0.264,0.214-0.479,0.48-0.479c0.264,0,0.48,0.215,0.48,0.479v1.922C110.378,55.304,110.162,55.519,109.898,55.519z
				 M94.869,53.94c-0.266,0-0.48-0.213-0.48-0.479v-1.92c0-0.268,0.214-0.48,0.48-0.48c0.265,0,0.48,0.213,0.48,0.48v1.92
				C95.349,53.728,95.134,53.94,94.869,53.94z M109.898,51.679c-0.266,0-0.48-0.215-0.48-0.48v-1.92c0-0.264,0.214-0.479,0.48-0.479
				c0.264,0,0.48,0.215,0.48,0.479v1.92C110.378,51.464,110.162,51.679,109.898,51.679z M94.869,50.101
				c-0.266,0-0.48-0.215-0.48-0.479v-1.92c0-0.267,0.214-0.48,0.48-0.48c0.265,0,0.48,0.213,0.48,0.48v1.92
				C95.349,49.886,95.134,50.101,94.869,50.101z M109.898,47.839c-0.266,0-0.48-0.215-0.48-0.481v-1.865
				c-0.002-0.016-0.003-0.033-0.003-0.049c0-0.266,0.213-0.48,0.477-0.48h0.48l0.006,0.48v1.914
				C110.378,47.624,110.162,47.839,109.898,47.839z M94.869,46.261c-0.266,0-0.48-0.215-0.48-0.479v-0.818h2.063
				c0.265,0,0.48,0.215,0.48,0.48c0,0.266-0.215,0.479-0.48,0.479h-1.125C95.267,46.118,95.084,46.261,94.869,46.261z
				 M107.972,45.923h-1.92c-0.265,0-0.48-0.213-0.48-0.479c0-0.266,0.215-0.48,0.48-0.48h1.92c0.265,0,0.48,0.215,0.48,0.48
				C108.452,45.71,108.237,45.923,107.972,45.923z M104.132,45.923h-1.92c-0.264,0-0.48-0.213-0.48-0.479
				c0-0.266,0.216-0.48,0.48-0.48h1.92c0.265,0,0.48,0.215,0.48,0.48C104.612,45.71,104.397,45.923,104.132,45.923z M100.292,45.923
				h-1.92c-0.264,0-0.48-0.213-0.48-0.479c0-0.266,0.216-0.48,0.48-0.48h1.92c0.265,0,0.48,0.215,0.48,0.48
				C100.772,45.71,100.557,45.923,100.292,45.923z"/>
		</g>
		<g>
			<path fill="#333333" d="M60.042,107.97h-1.92c-0.265,0-0.48-0.215-0.48-0.48c0-0.264,0.215-0.481,0.48-0.481h1.92
				c0.265,0,0.48,0.217,0.48,0.481C60.521,107.755,60.307,107.97,60.042,107.97z M56.202,107.97h-1.92
				c-0.265,0-0.48-0.215-0.48-0.48c0-0.264,0.215-0.481,0.48-0.481h1.92c0.265,0,0.48,0.217,0.48,0.481
				C56.682,107.755,56.467,107.97,56.202,107.97z M52.361,107.97h-2.4v-0.787c0-0.266,0.215-0.48,0.48-0.48
				c0.204,0,0.379,0.129,0.448,0.307h1.472c0.266,0,0.48,0.217,0.48,0.481C52.841,107.755,52.627,107.97,52.361,107.97z
				 M61.544,107.552c-0.265,0-0.48-0.215-0.48-0.481v-1.92c0-0.264,0.215-0.479,0.48-0.479c0.265,0,0.48,0.215,0.48,0.479v1.92
				C62.024,107.337,61.809,107.552,61.544,107.552z M50.441,105.743c-0.265,0-0.48-0.215-0.48-0.48v-1.92
				c0-0.266,0.215-0.48,0.48-0.48c0.266,0,0.48,0.215,0.48,0.48v1.92C50.921,105.528,50.707,105.743,50.441,105.743z
				 M61.544,103.712c-0.265,0-0.48-0.215-0.48-0.48v-1.92c0-0.264,0.215-0.479,0.48-0.479c0.265,0,0.48,0.215,0.48,0.479v1.92
				C62.024,103.497,61.809,103.712,61.544,103.712z M50.441,101.903c-0.265,0-0.48-0.215-0.48-0.48v-1.92
				c0-0.266,0.215-0.48,0.48-0.48c0.266,0,0.48,0.215,0.48,0.48v1.92C50.921,101.688,50.707,101.903,50.441,101.903z M61.544,99.872
				c-0.265,0-0.48-0.215-0.48-0.48v-1.92c0-0.266,0.215-0.479,0.48-0.479c0.265,0,0.48,0.213,0.48,0.479v1.92
				C62.024,99.657,61.809,99.872,61.544,99.872z M50.441,98.063c-0.265,0-0.48-0.215-0.48-0.48v-0.744h2.137
				c0.265,0,0.48,0.215,0.48,0.48c0,0.264-0.215,0.48-0.48,0.48h-1.228C50.792,97.954,50.629,98.063,50.441,98.063z M59.778,97.8
				h-1.92c-0.265,0-0.48-0.217-0.48-0.48c0-0.266,0.215-0.48,0.48-0.48h1.92c0.265,0,0.48,0.215,0.48,0.48
				C60.258,97.583,60.043,97.8,59.778,97.8z M55.938,97.8h-1.92c-0.265,0-0.48-0.217-0.48-0.48c0-0.266,0.215-0.48,0.48-0.48h1.92
				c0.265,0,0.48,0.215,0.48,0.48C56.418,97.583,56.203,97.8,55.938,97.8z"/>
		</g>
	</g>
	<g>
		<g>
			<g>
				<path fill="#CCCBC9" d="M95.514,107.435c0-2.828,0-6.93,0-6.93H90h-5.515c0,0,0,4.102,0,6.93c0,2.83-7.499,5.121-7.499,5.121H90
					h13.013C103.013,112.556,95.514,110.265,95.514,107.435z"/>
			</g>
			<g>
				<path fill="#CCCBC9" d="M95.514,107.085c0-2.805,0-6.58,0-6.58H84.486c0,0,0,3.775,0,6.58H95.514z"/>
			</g>
			<g>
				<path fill="#333333" d="M104.126,113.403c0,0.617-0.488,1.117-1.091,1.117h-26.07c-0.604,0-1.091-0.5-1.091-1.117l0,0
					c0-0.617,0.488-1.117,1.091-1.117h26.07C103.638,112.286,104.126,112.786,104.126,113.403L104.126,113.403z"/>
			</g>
		</g>
		<g>
			<g>
				<path fill="#333333" d="M124.558,50.265H55.442c-1.198,0-2.169,0.994-2.169,2.221v43h73.454v-43
					C126.727,51.259,125.756,50.265,124.558,50.265z"/>
			</g>
			<g>
				<rect x="56.755" y="53.112" fill="#FFFFFF" width="66.49" height="39.523"/>
			</g>
			<g>
				<path fill="#FFFFFF" d="M53.273,95.052v6.594c0,1.227,0.972,2.221,2.169,2.221h69.115c1.199,0,2.17-0.994,2.17-2.221v-6.594
					H53.273z"/>
			</g>
			<g>
				<path fill="#CCCBC9" d="M91.94,99.458c0,1.098-0.87,1.986-1.94,1.986c-1.071,0-1.94-0.889-1.94-1.986
					c0-1.096,0.869-1.984,1.94-1.984C91.071,97.474,91.94,98.362,91.94,99.458z"/>
			</g>
			<g>
				<g>
					<rect x="56.755" y="53.095" fill="#A3A3A3" width="66.49" height="3.478"/>
				</g>
				<g>
					<path fill="#FF916E" d="M60.073,54.835c0,0.525-0.416,0.951-0.93,0.951c-0.514,0-0.93-0.426-0.93-0.951
						c0-0.525,0.417-0.953,0.93-0.953C59.657,53.882,60.073,54.31,60.073,54.835z"/>
				</g>
				<g>
					<path fill="#FFDB76" d="M63.298,54.835c0,0.525-0.416,0.951-0.93,0.951c-0.514,0-0.93-0.426-0.93-0.951
						c0-0.525,0.417-0.953,0.93-0.953C62.882,53.882,63.298,54.31,63.298,54.835z"/>
				</g>
				<g>
					<path fill="#ADEBF6" d="M66.523,54.835c0,0.525-0.417,0.951-0.93,0.951c-0.514,0-0.93-0.426-0.93-0.951
						c0-0.525,0.416-0.953,0.93-0.953C66.106,53.882,66.523,54.31,66.523,54.835z"/>
				</g>
				<g>
					<path fill="#CCCBC9" d="M120.907,54.835l0.673-0.689c0.097-0.1,0.097-0.262,0-0.361c-0.098-0.1-0.255-0.1-0.353,0l-0.673,0.689
						l-0.674-0.689c-0.098-0.1-0.255-0.1-0.353,0c-0.098,0.1-0.098,0.262,0,0.361l0.673,0.689l-0.673,0.689
						c-0.098,0.1-0.098,0.262,0,0.359c0.098,0.102,0.255,0.102,0.353,0l0.674-0.688l0.673,0.688c0.098,0.102,0.255,0.102,0.353,0
						c0.097-0.098,0.097-0.26,0-0.359L120.907,54.835z"/>
				</g>
			</g>
		</g>
		<g>
			<g>
				<rect x="61.212" y="75.937" fill="#FF916E" width="4.36" height="16.774"/>
			</g>
			<g>
				<rect x="116.022" y="75.937" fill="#FF916E" width="4.36" height="16.774"/>
			</g>
			<g>
				<rect x="98.023" y="79.923" fill="#FF916E" width="4.36" height="12.787"/>
			</g>
			<g>
				<rect x="69.558" y="71.452" fill="#FF916E" width="4.36" height="21.258"/>
			</g>
			<g>
				<rect x="107.427" y="68.96" fill="#FF916E" width="4.36" height="23.75"/>
			</g>
			<g>
				<rect x="78.794" y="75.937" fill="#FF916E" width="4.36" height="16.774"/>
			</g>
			<g>
				<rect x="88.759" y="71.452" fill="#FF916E" width="4.361" height="21.258"/>
			</g>
			<g>
				<rect x="88.759" y="66.47" fill="#ADEBF6" width="4.361" height="4.982"/>
			</g>
			<g>
				<rect x="107.427" y="63.978" fill="#ADEBF6" width="4.36" height="4.983"/>
			</g>
			<g>
				<rect x="60.189" y="60.214" fill="#D7D8D8" width="15.137" height="1.225"/>
			</g>
			<g>
				<rect x="60.189" y="62.313" fill="#D7D8D8" width="10.419" height="1.225"/>
			</g>
			<g>
				<rect x="60.189" y="66.95" fill="#D7D8D8" width="3.85" height="1.225"/>
			</g>
			<g>
				<rect x="60.189" y="64.675" fill="#D7D8D8" width="12.195" height="1.225"/>
			</g>
			<g>
				<rect x="114.882" y="59.606" fill="#FFDB76" width="6.641" height="6.639"/>
			</g>
			<g>
				<g>
					<path fill="#FFDB76" d="M100.013,83.88c-0.022,0-0.045,0-0.068-0.002c-0.372-0.021-0.712-0.217-0.918-0.527l-8.899-13.486
						L76.509,79.888c-0.366,0.27-0.854,0.305-1.255,0.092l-7.796-4.143l-7.825,7.703c-0.465,0.457-1.214,0.453-1.671-0.012
						c-0.458-0.465-0.452-1.213,0.013-1.672l8.443-8.311c0.368-0.363,0.927-0.443,1.383-0.201l7.906,4.199l14.022-10.32
						c0.261-0.191,0.589-0.268,0.907-0.211c0.319,0.057,0.6,0.242,0.779,0.512l8.712,13.203l8.418-10.035
						c0.401-0.479,1.105-0.562,1.607-0.189l11.747,8.693c0.525,0.389,0.635,1.129,0.247,1.652c-0.388,0.523-1.127,0.635-1.653,0.246
						l-10.853-8.031l-8.722,10.395C100.693,83.728,100.361,83.88,100.013,83.88z"/>
				</g>
			</g>
		</g>
	</g>
	<g>
		<g>
			<path fill="#CCCBC9" d="M117.521,140.421H62.48c-1.268,0-2.304-1.037-2.304-2.303v-17.922c0-1.266,1.036-2.303,2.304-2.303h55.04
				c1.267,0,2.305,1.037,2.305,2.303v17.922C119.825,139.384,118.787,140.421,117.521,140.421z"/>
		</g>
		<g>
			<path fill="#FFFFFF" d="M65.21,123.886h-1.993c-0.515,0-0.936-0.422-0.936-0.935v-1.992c0-0.516,0.421-0.938,0.936-0.938h1.993
				c0.515,0,0.936,0.422,0.936,0.938v1.992C66.146,123.464,65.726,123.886,65.21,123.886z"/>
		</g>
		<g>
			<path fill="#FFFFFF" d="M69.904,123.886h-1.992c-0.516,0-0.936-0.422-0.936-0.935v-1.992c0-0.516,0.42-0.938,0.936-0.938h1.992
				c0.515,0,0.937,0.422,0.937,0.938v1.992C70.841,123.464,70.419,123.886,69.904,123.886z"/>
		</g>
		<g>
			<path fill="#FFFFFF" d="M74.599,123.886h-1.993c-0.514,0-0.936-0.422-0.936-0.935v-1.992c0-0.516,0.421-0.938,0.936-0.938h1.993
				c0.514,0,0.936,0.422,0.936,0.938v1.992C75.535,123.464,75.113,123.886,74.599,123.886z"/>
		</g>
		<g>
			<path fill="#FFFFFF" d="M79.293,123.886H77.3c-0.515,0-0.936-0.422-0.936-0.935v-1.992c0-0.516,0.421-0.938,0.936-0.938h1.993
				c0.515,0,0.936,0.422,0.936,0.938v1.992C80.229,123.464,79.808,123.886,79.293,123.886z"/>
		</g>
		<g>
			<path fill="#FFFFFF" d="M83.987,123.886h-1.993c-0.514,0-0.936-0.422-0.936-0.935v-1.992c0-0.516,0.422-0.938,0.936-0.938h1.993
				c0.515,0,0.936,0.422,0.936,0.938v1.992C84.923,123.464,84.502,123.886,83.987,123.886z"/>
		</g>
		<g>
			<path fill="#FFFFFF" d="M88.682,123.886h-1.993c-0.516,0-0.936-0.422-0.936-0.935v-1.992c0-0.516,0.42-0.938,0.936-0.938h1.993
				c0.514,0,0.936,0.422,0.936,0.938v1.992C89.618,123.464,89.196,123.886,88.682,123.886z"/>
		</g>
		<g>
			<path fill="#FFFFFF" d="M93.375,123.886h-1.992c-0.515,0-0.937-0.422-0.937-0.935v-1.992c0-0.516,0.421-0.938,0.937-0.938h1.992
				c0.515,0,0.936,0.422,0.936,0.938v1.992C94.311,123.464,93.891,123.886,93.375,123.886z"/>
		</g>
		<g>
			<path fill="#FFFFFF" d="M98.069,123.886h-1.993c-0.515,0-0.936-0.422-0.936-0.935v-1.992c0-0.516,0.421-0.938,0.936-0.938h1.993
				c0.515,0,0.936,0.422,0.936,0.938v1.992C99.005,123.464,98.584,123.886,98.069,123.886z"/>
		</g>
		<g>
			<path fill="#FFFFFF" d="M102.763,123.886h-1.992c-0.515,0-0.936-0.422-0.936-0.935v-1.992c0-0.516,0.421-0.938,0.936-0.938h1.992
				c0.515,0,0.937,0.422,0.937,0.938v1.992C103.7,123.464,103.278,123.886,102.763,123.886z"/>
		</g>
		<g>
			<path fill="#FFFFFF" d="M107.457,123.886h-1.992c-0.515,0-0.936-0.422-0.936-0.935v-1.992c0-0.516,0.421-0.938,0.936-0.938h1.992
				c0.516,0,0.937,0.422,0.937,0.938v1.992C108.394,123.464,107.973,123.886,107.457,123.886z"/>
		</g>
		<g>
			<path fill="#FFFFFF" d="M112.152,123.886h-1.993c-0.515,0-0.936-0.422-0.936-0.935v-1.992c0-0.516,0.421-0.938,0.936-0.938h1.993
				c0.514,0,0.936,0.422,0.936,0.938v1.992C113.088,123.464,112.666,123.886,112.152,123.886z"/>
		</g>
		<g>
			<path fill="#FFFFFF" d="M116.847,123.886h-1.993c-0.515,0-0.936-0.422-0.936-0.935v-1.992c0-0.516,0.421-0.938,0.936-0.938h1.993
				c0.515,0,0.936,0.422,0.936,0.938v1.992C117.782,123.464,117.361,123.886,116.847,123.886z"/>
		</g>
		<g>
			<path fill="#FFFFFF" d="M65.21,128.686h-1.993c-0.515,0-0.936-0.422-0.936-0.937v-1.992c0-0.516,0.421-0.936,0.936-0.936h1.993
				c0.515,0,0.936,0.42,0.936,0.936v1.992C66.146,128.265,65.726,128.686,65.21,128.686z"/>
		</g>
		<g>
			<path fill="#FFFFFF" d="M69.904,128.686h-1.992c-0.516,0-0.936-0.422-0.936-0.937v-1.992c0-0.516,0.42-0.936,0.936-0.936h1.992
				c0.515,0,0.937,0.42,0.937,0.936v1.992C70.841,128.265,70.419,128.686,69.904,128.686z"/>
		</g>
		<g>
			<path fill="#FFFFFF" d="M74.599,128.686h-1.993c-0.514,0-0.936-0.422-0.936-0.937v-1.992c0-0.516,0.421-0.936,0.936-0.936h1.993
				c0.514,0,0.936,0.42,0.936,0.936v1.992C75.535,128.265,75.113,128.686,74.599,128.686z"/>
		</g>
		<g>
			<path fill="#FFFFFF" d="M79.293,128.686H77.3c-0.515,0-0.936-0.422-0.936-0.937v-1.992c0-0.516,0.421-0.936,0.936-0.936h1.993
				c0.515,0,0.936,0.42,0.936,0.936v1.992C80.229,128.265,79.808,128.686,79.293,128.686z"/>
		</g>
		<g>
			<path fill="#FFFFFF" d="M83.987,128.686h-1.993c-0.514,0-0.936-0.422-0.936-0.937v-1.992c0-0.516,0.422-0.936,0.936-0.936h1.993
				c0.515,0,0.936,0.42,0.936,0.936v1.992C84.923,128.265,84.502,128.686,83.987,128.686z"/>
		</g>
		<g>
			<path fill="#FFFFFF" d="M88.682,128.686h-1.993c-0.516,0-0.936-0.422-0.936-0.937v-1.992c0-0.516,0.42-0.936,0.936-0.936h1.993
				c0.514,0,0.936,0.42,0.936,0.936v1.992C89.618,128.265,89.196,128.686,88.682,128.686z"/>
		</g>
		<g>
			<path fill="#FFFFFF" d="M93.375,128.686h-1.992c-0.515,0-0.937-0.422-0.937-0.937v-1.992c0-0.516,0.421-0.936,0.937-0.936h1.992
				c0.515,0,0.936,0.42,0.936,0.936v1.992C94.311,128.265,93.891,128.686,93.375,128.686z"/>
		</g>
		<g>
			<path fill="#FFFFFF" d="M98.069,128.686h-1.993c-0.515,0-0.936-0.422-0.936-0.937v-1.992c0-0.516,0.421-0.936,0.936-0.936h1.993
				c0.515,0,0.936,0.42,0.936,0.936v1.992C99.005,128.265,98.584,128.686,98.069,128.686z"/>
		</g>
		<g>
			<path fill="#FFFFFF" d="M102.763,128.686h-1.992c-0.515,0-0.936-0.422-0.936-0.937v-1.992c0-0.516,0.421-0.936,0.936-0.936h1.992
				c0.515,0,0.937,0.42,0.937,0.936v1.992C103.7,128.265,103.278,128.686,102.763,128.686z"/>
		</g>
		<g>
			<path fill="#FFFFFF" d="M107.457,128.686h-1.992c-0.515,0-0.936-0.422-0.936-0.937v-1.992c0-0.516,0.421-0.936,0.936-0.936h1.992
				c0.516,0,0.937,0.42,0.937,0.936v1.992C108.394,128.265,107.973,128.686,107.457,128.686z"/>
		</g>
		<g>
			<path fill="#FFFFFF" d="M112.152,128.686h-1.993c-0.515,0-0.936-0.422-0.936-0.937v-1.992c0-0.516,0.421-0.936,0.936-0.936h1.993
				c0.514,0,0.936,0.42,0.936,0.936v1.992C113.088,128.265,112.666,128.686,112.152,128.686z"/>
		</g>
		<g>
			<path fill="#FFFFFF" d="M116.847,128.686h-1.993c-0.515,0-0.936-0.422-0.936-0.937v-1.992c0-0.516,0.421-0.936,0.936-0.936h1.993
				c0.515,0,0.936,0.42,0.936,0.936v1.992C117.782,128.265,117.361,128.686,116.847,128.686z"/>
		</g>
		<g>
			<path fill="#FFFFFF" d="M65.21,133.485h-1.993c-0.515,0-0.936-0.422-0.936-0.936v-1.992c0-0.516,0.421-0.938,0.936-0.938h1.993
				c0.515,0,0.936,0.422,0.936,0.938v1.992C66.146,133.064,65.726,133.485,65.21,133.485z"/>
		</g>
		<g>
			<path fill="#FFFFFF" d="M69.904,133.485h-1.992c-0.516,0-0.936-0.422-0.936-0.936v-1.992c0-0.516,0.42-0.938,0.936-0.938h1.992
				c0.515,0,0.937,0.422,0.937,0.938v1.992C70.841,133.064,70.419,133.485,69.904,133.485z"/>
		</g>
		<g>
			<path fill="#FFFFFF" d="M74.599,133.485h-1.993c-0.514,0-0.936-0.422-0.936-0.936v-1.992c0-0.516,0.421-0.938,0.936-0.938h1.993
				c0.514,0,0.936,0.422,0.936,0.938v1.992C75.535,133.064,75.113,133.485,74.599,133.485z"/>
		</g>
		<g>
			<path fill="#FFFFFF" d="M79.293,133.485H77.3c-0.515,0-0.936-0.422-0.936-0.936v-1.992c0-0.516,0.421-0.938,0.936-0.938h1.993
				c0.515,0,0.936,0.422,0.936,0.938v1.992C80.229,133.064,79.808,133.485,79.293,133.485z"/>
		</g>
		<g>
			<path fill="#FFFFFF" d="M83.987,133.485h-1.993c-0.514,0-0.936-0.422-0.936-0.936v-1.992c0-0.516,0.422-0.938,0.936-0.938h1.993
				c0.515,0,0.936,0.422,0.936,0.938v1.992C84.923,133.064,84.502,133.485,83.987,133.485z"/>
		</g>
		<g>
			<path fill="#FFFFFF" d="M88.682,133.485h-1.993c-0.516,0-0.936-0.422-0.936-0.936v-1.992c0-0.516,0.42-0.938,0.936-0.938h1.993
				c0.514,0,0.936,0.422,0.936,0.938v1.992C89.618,133.064,89.196,133.485,88.682,133.485z"/>
		</g>
		<g>
			<path fill="#FFFFFF" d="M93.375,133.485h-1.992c-0.515,0-0.937-0.422-0.937-0.936v-1.992c0-0.516,0.421-0.938,0.937-0.938h1.992
				c0.515,0,0.936,0.422,0.936,0.938v1.992C94.311,133.064,93.891,133.485,93.375,133.485z"/>
		</g>
		<g>
			<path fill="#FFFFFF" d="M98.069,133.485h-1.993c-0.515,0-0.936-0.422-0.936-0.936v-1.992c0-0.516,0.421-0.938,0.936-0.938h1.993
				c0.515,0,0.936,0.422,0.936,0.938v1.992C99.005,133.064,98.584,133.485,98.069,133.485z"/>
		</g>
		<g>
			<path fill="#FFFFFF" d="M102.763,133.485h-1.992c-0.515,0-0.936-0.422-0.936-0.936v-1.992c0-0.516,0.421-0.938,0.936-0.938h1.992
				c0.515,0,0.937,0.422,0.937,0.938v1.992C103.7,133.064,103.278,133.485,102.763,133.485z"/>
		</g>
		<g>
			<path fill="#FFFFFF" d="M107.457,133.485h-1.992c-0.515,0-0.936-0.422-0.936-0.936v-1.992c0-0.516,0.421-0.938,0.936-0.938h1.992
				c0.516,0,0.937,0.422,0.937,0.938v1.992C108.394,133.064,107.973,133.485,107.457,133.485z"/>
		</g>
		<g>
			<path fill="#FFFFFF" d="M112.152,133.485h-1.993c-0.515,0-0.936-0.422-0.936-0.936v-1.992c0-0.516,0.421-0.938,0.936-0.938h1.993
				c0.514,0,0.936,0.422,0.936,0.938v1.992C113.088,133.064,112.666,133.485,112.152,133.485z"/>
		</g>
		<g>
			<path fill="#FFFFFF" d="M116.847,133.485h-1.993c-0.515,0-0.936-0.422-0.936-0.936v-1.992c0-0.516,0.421-0.938,0.936-0.938h1.993
				c0.515,0,0.936,0.422,0.936,0.938v1.992C117.782,133.064,117.361,133.485,116.847,133.485z"/>
		</g>
		<g>
			<path fill="#FFFFFF" d="M65.21,138.477h-1.993c-0.515,0-0.936-0.422-0.936-0.935v-1.994c0-0.514,0.421-0.936,0.936-0.936h1.993
				c0.515,0,0.936,0.422,0.936,0.936v1.994C66.146,138.056,65.726,138.477,65.21,138.477z"/>
		</g>
		<g>
			<path fill="#FFFFFF" d="M69.904,138.477h-1.992c-0.516,0-0.936-0.422-0.936-0.935v-1.994c0-0.514,0.42-0.936,0.936-0.936h1.992
				c0.515,0,0.937,0.422,0.937,0.936v1.994C70.841,138.056,70.419,138.477,69.904,138.477z"/>
		</g>
		<g>
			<path fill="#FFFFFF" d="M74.599,138.477h-1.993c-0.514,0-0.936-0.422-0.936-0.935v-1.994c0-0.514,0.421-0.936,0.936-0.936h1.993
				c0.514,0,0.936,0.422,0.936,0.936v1.994C75.535,138.056,75.113,138.477,74.599,138.477z"/>
		</g>
		<g>
			<path fill="#FFFFFF" d="M79.293,138.477H77.3c-0.515,0-0.936-0.422-0.936-0.935v-1.994c0-0.514,0.421-0.936,0.936-0.936h1.993
				c0.515,0,0.936,0.422,0.936,0.936v1.994C80.229,138.056,79.808,138.477,79.293,138.477z"/>
		</g>
		<g>
			<path fill="#FFFFFF" d="M102.763,138.477H81.995c-0.514,0-0.936-0.422-0.936-0.935v-1.994c0-0.514,0.422-0.936,0.936-0.936
				h20.769c0.515,0,0.937,0.422,0.937,0.936v1.994C103.7,138.056,103.278,138.477,102.763,138.477z"/>
		</g>
		<g>
			<path fill="#FFFFFF" d="M107.457,138.477h-1.992c-0.515,0-0.936-0.422-0.936-0.935v-1.994c0-0.514,0.421-0.936,0.936-0.936h1.992
				c0.516,0,0.937,0.422,0.937,0.936v1.994C108.394,138.056,107.973,138.477,107.457,138.477z"/>
		</g>
		<g>
			<path fill="#FFFFFF" d="M112.152,138.477h-1.993c-0.515,0-0.936-0.422-0.936-0.935v-1.994c0-0.514,0.421-0.936,0.936-0.936h1.993
				c0.514,0,0.936,0.422,0.936,0.936v1.994C113.088,138.056,112.666,138.477,112.152,138.477z"/>
		</g>
		<g>
			<path fill="#FFFFFF" d="M116.847,138.477h-1.993c-0.515,0-0.936-0.422-0.936-0.935v-1.994c0-0.514,0.421-0.936,0.936-0.936h1.993
				c0.515,0,0.936,0.422,0.936,0.936v1.994C117.782,138.056,117.361,138.477,116.847,138.477z"/>
		</g>
	</g>
	<g>
		<g>
			<path fill="#333333" d="M137.065,111.333h-0.96c-0.264,0-0.48-0.215-0.48-0.48c0-0.264,0.216-0.479,0.48-0.479h0.96
				c0.266,0,0.48,0.215,0.48,0.479C137.545,111.118,137.331,111.333,137.065,111.333z M134.186,111.333h-1.92
				c-0.265,0-0.48-0.215-0.48-0.48c0-0.264,0.215-0.479,0.48-0.479h1.92c0.265,0,0.48,0.215,0.48,0.479
				C134.665,111.118,134.451,111.333,134.186,111.333z M130.346,111.333h-1.92c-0.265,0-0.48-0.215-0.48-0.48
				c0-0.264,0.215-0.479,0.48-0.479h1.92c0.265,0,0.48,0.215,0.48,0.479C130.826,111.118,130.611,111.333,130.346,111.333z
				 M126.505,111.333h-1.92c-0.264,0-0.48-0.215-0.48-0.48c0-0.264,0.216-0.479,0.48-0.479h1.92c0.266,0,0.48,0.215,0.48,0.479
				C126.985,111.118,126.771,111.333,126.505,111.333z"/>
		</g>
		<g>
			<path fill="#333333" d="M126.669,114.534h-1.763c-0.265,0-0.48-0.217-0.48-0.48c0-0.266,0.215-0.481,0.48-0.481h1.763
				c0.265,0,0.48,0.215,0.48,0.481C127.149,114.317,126.934,114.534,126.669,114.534z M122.986,114.534h-1.92
				c-0.266,0-0.48-0.217-0.48-0.48c0-0.266,0.214-0.481,0.48-0.481h1.92c0.265,0,0.48,0.215,0.48,0.481
				C123.466,114.317,123.251,114.534,122.986,114.534z M119.146,114.534h-1.92c-0.265,0-0.48-0.217-0.48-0.48
				c0-0.266,0.215-0.481,0.48-0.481h1.92c0.266,0,0.48,0.215,0.48,0.481C119.626,114.317,119.412,114.534,119.146,114.534z"/>
		</g>
	</g>
	<g>
		<g>
			<path fill="#333333" d="M67.542,115.94h-0.96c-0.265,0-0.48-0.215-0.48-0.479c0-0.266,0.215-0.48,0.48-0.48h0.96
				c0.266,0,0.48,0.215,0.48,0.48C68.022,115.726,67.808,115.94,67.542,115.94z M64.662,115.94h-1.92
				c-0.265,0-0.48-0.215-0.48-0.479c0-0.266,0.215-0.48,0.48-0.48h1.92c0.266,0,0.48,0.215,0.48,0.48
				C65.142,115.726,64.928,115.94,64.662,115.94z M60.822,115.94h-1.92c-0.265,0-0.48-0.215-0.48-0.479
				c0-0.266,0.215-0.48,0.48-0.48h1.92c0.266,0,0.48,0.215,0.48,0.48C61.302,115.726,61.088,115.94,60.822,115.94z M56.982,115.94
				h-1.92c-0.265,0-0.48-0.215-0.48-0.479c0-0.266,0.215-0.48,0.48-0.48h1.92c0.266,0,0.48,0.215,0.48,0.48
				C57.462,115.726,57.248,115.94,56.982,115.94z"/>
		</g>
		<g>
			<path fill="#333333" d="M57.144,119.142h-1.762c-0.265,0-0.48-0.215-0.48-0.48c0-0.266,0.215-0.48,0.48-0.48h1.762
				c0.265,0,0.48,0.215,0.48,0.48C57.625,118.927,57.41,119.142,57.144,119.142z M53.462,119.142h-1.92
				c-0.264,0-0.48-0.215-0.48-0.48c0-0.266,0.216-0.48,0.48-0.48h1.92c0.265,0,0.48,0.215,0.48,0.48
				C53.942,118.927,53.727,119.142,53.462,119.142z M49.622,119.142h-1.92c-0.264,0-0.48-0.215-0.48-0.48
				c0-0.266,0.216-0.48,0.48-0.48h1.92c0.265,0,0.48,0.215,0.48,0.48C50.102,118.927,49.887,119.142,49.622,119.142z"/>
		</g>
	</g>
</g>
</svg>
