<?xml version="1.0" encoding="utf-8"?>
<!-- Generator: Adobe Illustrator 24.3.0, SVG Export Plug-In . SVG Version: 6.00 Build 0)  -->
<svg version="1.1" id="Layer_1" xmlns="http://www.w3.org/2000/svg" xmlns:xlink="http://www.w3.org/1999/xlink" x="0px" y="0px"
	 viewBox="0 0 180 180" enable-background="new 0 0 180 180" xml:space="preserve">
<g>
	<path id="XMLID_1352_" fill="#FFDB76" d="M153.612,90.001c0,35.131-28.48,63.612-63.613,63.612
		c-35.131,0-63.611-28.481-63.611-63.612c0-35.133,28.48-63.613,63.611-63.613C125.133,26.387,153.612,54.868,153.612,90.001z"/>
	<g>
		<g>
			<g>
				<polygon fill="#333333" points="92.872,68.245 91.172,68.245 91.172,67.11 91.738,67.11 91.738,66.544 92.872,66.544 				"/>
			</g>
			<g>
				<path fill="#333333" d="M89.102,68.245h-2.068V67.11h2.068V68.245z M84.964,68.245h-2.068V67.11h2.068V68.245z M80.826,68.245
					h-2.069V67.11h2.069V68.245z M76.688,68.245h-2.07V67.11h2.07V68.245z M72.55,68.245h-2.068V67.11h2.068V68.245z"/>
			</g>
			<g>
				<polygon fill="#333333" points="68.412,68.245 66.71,68.245 66.71,66.544 67.845,66.544 67.845,67.11 68.412,67.11 				"/>
			</g>
			<g>
				<path fill="#333333" d="M67.845,64.227H66.71v-2.314h1.135V64.227z M67.845,59.595H66.71v-2.315h1.135V59.595z M67.845,54.964
					H66.71v-2.315h1.135V54.964z M67.845,50.332H66.71v-2.316h1.135V50.332z"/>
			</g>
			<g>
				<polygon fill="#333333" points="67.845,45.7 66.71,45.7 66.71,43.999 68.412,43.999 68.412,45.134 67.845,45.134 				"/>
			</g>
			<g>
				<path fill="#333333" d="M89.102,45.134h-2.068v-1.135h2.068V45.134z M84.964,45.134h-2.068v-1.135h2.068V45.134z M80.826,45.134
					h-2.069v-1.135h2.069V45.134z M76.688,45.134h-2.07v-1.135h2.07V45.134z M72.55,45.134H70.48v-1.135h2.069V45.134z"/>
			</g>
			<g>
				<polygon fill="#333333" points="92.872,45.7 91.738,45.7 91.738,45.134 91.172,45.134 91.172,43.999 92.872,43.999 				"/>
			</g>
			<g>
				<path fill="#333333" d="M92.872,64.227h-1.134v-2.314h1.134V64.227z M92.872,59.595h-1.134v-2.315h1.134V59.595z M92.872,54.964
					h-1.134v-2.315h1.134V54.964z M92.872,50.332h-1.134v-2.316h1.134V50.332z"/>
			</g>
		</g>
		<g>
			<g>
				<polygon fill="#333333" points="127.985,115.624 126.284,115.624 126.284,114.489 126.851,114.489 126.851,113.923 
					127.985,113.923 				"/>
			</g>
			<g>
				<path fill="#333333" d="M124.215,115.624h-2.068v-1.135h2.068V115.624z M120.077,115.624h-2.068v-1.135h2.068V115.624z
					 M115.938,115.624h-2.068v-1.135h2.068V115.624z M111.801,115.624h-2.069v-1.135h2.069V115.624z M107.663,115.624h-2.069v-1.135
					h2.069V115.624z"/>
			</g>
			<g>
				<polygon fill="#333333" points="103.524,115.624 101.823,115.624 101.823,113.923 102.958,113.923 102.958,114.489 
					103.524,114.489 				"/>
			</g>
			<g>
				<path fill="#333333" d="M102.958,111.606h-1.135v-2.314h1.135V111.606z M102.958,106.975h-1.135v-2.314h1.135V106.975z
					 M102.958,102.344h-1.135v-2.316h1.135V102.344z M102.958,97.712h-1.135v-2.316h1.135V97.712z"/>
			</g>
			<g>
				<polygon fill="#333333" points="102.958,93.079 101.823,93.079 101.823,91.378 103.524,91.378 103.524,92.512 102.958,92.512 
									"/>
			</g>
			<g>
				<path fill="#333333" d="M124.215,92.512h-2.068v-1.135h2.068V92.512z M120.077,92.512h-2.068v-1.135h2.068V92.512z
					 M115.938,92.512h-2.068v-1.135h2.068V92.512z M111.801,92.512h-2.068v-1.135h2.068V92.512z M107.663,92.512h-2.069v-1.135
					h2.069V92.512z"/>
			</g>
			<g>
				<polygon fill="#333333" points="127.985,93.079 126.851,93.079 126.851,92.512 126.284,92.512 126.284,91.378 127.985,91.378 
									"/>
			</g>
			<g>
				<path fill="#333333" d="M127.985,111.606h-1.135v-2.314h1.135V111.606z M127.985,106.975h-1.135v-2.316h1.135V106.975z
					 M127.985,102.344h-1.135v-2.316h1.135V102.344z M127.985,97.712h-1.135v-2.316h1.135V97.712z"/>
			</g>
		</g>
		<g>
			<g>
				<polygon fill="#333333" points="77.724,130.587 76.022,130.587 76.022,129.454 76.59,129.454 76.59,128.886 77.724,128.886 				
					"/>
			</g>
			<g>
				<path fill="#333333" d="M73.954,130.587h-2.068v-1.133h2.068V130.587z M69.815,130.587h-2.068v-1.133h2.068V130.587z
					 M65.679,130.587h-2.07v-1.133h2.07V130.587z M61.539,130.587H59.47v-1.133h2.069V130.587z M57.401,130.587h-2.068v-1.133h2.068
					V130.587z"/>
			</g>
			<g>
				<polygon fill="#333333" points="53.263,130.587 51.561,130.587 51.561,128.886 52.696,128.886 52.696,129.454 53.263,129.454 
									"/>
			</g>
			<g>
				<path fill="#333333" d="M52.696,126.571h-1.135v-2.319h1.135V126.571z M52.696,121.938h-1.135v-2.316h1.135V121.938z
					 M52.696,117.305h-1.135v-2.312h1.135V117.305z M52.696,112.675h-1.135v-2.315h1.135V112.675z"/>
			</g>
			<g>
				<polygon fill="#333333" points="52.696,108.044 51.561,108.044 51.561,106.342 53.263,106.342 53.263,107.475 52.696,107.475 
									"/>
			</g>
			<g>
				<path fill="#333333" d="M73.954,107.475h-2.068v-1.133h2.068V107.475z M69.815,107.475h-2.068v-1.133h2.068V107.475z
					 M65.679,107.475h-2.07v-1.133h2.07V107.475z M61.54,107.475h-2.07v-1.133h2.07V107.475z M57.401,107.475h-2.068v-1.133h2.068
					V107.475z"/>
			</g>
			<g>
				<polygon fill="#333333" points="77.724,108.044 76.59,108.044 76.59,107.475 76.022,107.475 76.022,106.342 77.724,106.342 				
					"/>
			</g>
			<g>
				<path fill="#333333" d="M77.724,126.571H76.59v-2.319h1.134V126.571z M77.724,121.938H76.59v-2.316h1.134V121.938z
					 M77.724,117.305H76.59v-2.314h1.134V117.305z M77.724,112.675H76.59v-2.315h1.134V112.675z"/>
			</g>
		</g>
		<g>
			<rect x="71.679" y="49.45" fill="#FFFFFF" width="62.074" height="51.973"/>
			<rect x="74.9" y="52.147" fill="#ADEBF6" width="55.631" height="46.576"/>
			<path fill="#70E0E5" d="M115.61,67.676c0,0.74-2.322,1.34-5.189,1.34c-2.865,0-5.188-0.6-5.188-1.34
				c0-0.738,2.323-1.338,5.188-1.338C113.288,66.339,115.61,66.938,115.61,67.676z"/>
			<polygon fill="#FFFFFF" points="130.531,72.01 130.531,75.579 99.276,52.147 103.953,52.147 			"/>
			<polygon fill="#FFFFFF" points="120.532,52.145 126.508,52.147 74.835,78.534 74.9,74.684 			"/>
			<polygon fill="#FFFFFF" points="125.727,71.975 128.714,74.216 76.88,100.62 76.944,96.772 			"/>
		</g>
		<g>
			<g>
				<g>
					<path fill="#FFFFFF" d="M110.616,98.149c0,12.373-10.029,22.402-22.399,22.402c-12.372,0-22.401-10.029-22.401-22.402
						c0-12.371,10.029-22.398,22.401-22.398C100.587,75.751,110.616,85.778,110.616,98.149z"/>
					<path fill="#333333" d="M88.217,69.434c-15.86,0-28.717,12.855-28.717,28.715c0,15.861,12.856,28.717,28.717,28.717
						c15.858,0,28.715-12.856,28.715-28.717C116.932,82.29,104.075,69.434,88.217,69.434z M88.217,120.569
						c-12.383,0-22.421-10.037-22.421-22.42c0-12.381,10.038-22.418,22.421-22.418c12.381,0,22.418,10.037,22.418,22.418
						C110.635,110.532,100.598,120.569,88.217,120.569z"/>
				</g>
				<g>
					<g>
						<path fill="#2C3C47" d="M86.661,83.323l-0.004-3.227l0.562-0.002l2.179,2.531l-0.003-2.533l0.525-0.002l0.004,3.226
							l-0.562,0.002l-2.179-2.533l0.003,2.535L86.661,83.323z"/>
					</g>
					<g>
						<path fill="#2C3C47" d="M86.685,115.561l0.517-0.037c0.025,0.162,0.082,0.295,0.172,0.398c0.09,0.104,0.229,0.186,0.418,0.25
							c0.188,0.062,0.4,0.096,0.635,0.094c0.209,0,0.395-0.023,0.555-0.072c0.16-0.049,0.279-0.115,0.358-0.199
							c0.077-0.086,0.116-0.178,0.116-0.277c0-0.102-0.038-0.189-0.113-0.266c-0.075-0.074-0.2-0.139-0.373-0.189
							c-0.112-0.033-0.357-0.086-0.737-0.156c-0.381-0.07-0.648-0.137-0.801-0.199c-0.197-0.082-0.346-0.182-0.442-0.301
							c-0.097-0.119-0.146-0.252-0.147-0.4c0-0.164,0.06-0.316,0.178-0.459c0.118-0.141,0.292-0.248,0.52-0.322
							c0.228-0.074,0.481-0.111,0.76-0.111c0.308,0,0.578,0.039,0.813,0.115c0.234,0.076,0.415,0.189,0.542,0.338
							c0.126,0.15,0.193,0.32,0.204,0.51l-0.526,0.031c-0.028-0.205-0.123-0.357-0.287-0.463c-0.163-0.104-0.404-0.154-0.722-0.154
							c-0.331,0-0.573,0.047-0.726,0.143c-0.15,0.096-0.227,0.209-0.227,0.344c0,0.115,0.055,0.211,0.162,0.285
							c0.105,0.074,0.381,0.15,0.826,0.229c0.445,0.078,0.752,0.146,0.918,0.205c0.24,0.086,0.419,0.195,0.533,0.328
							c0.115,0.133,0.174,0.285,0.174,0.459c0,0.172-0.062,0.332-0.189,0.484c-0.125,0.152-0.307,0.271-0.543,0.355
							c-0.236,0.084-0.502,0.127-0.797,0.127c-0.375,0.002-0.689-0.041-0.943-0.125c-0.254-0.086-0.452-0.213-0.597-0.385
							C86.77,115.969,86.694,115.776,86.685,115.561z"/>
					</g>
					<g>
						<path fill="#2C3C47" d="M69.965,99.311l-1.103-3.225h0.561l0.634,2.113c0.067,0.223,0.126,0.441,0.176,0.66
							c0.104-0.346,0.167-0.545,0.186-0.598l0.786-2.18h0.66l0.596,1.631c0.15,0.406,0.258,0.787,0.324,1.143
							c0.053-0.203,0.121-0.438,0.205-0.703l0.646-2.072l0.551-0.002l-1.131,3.229h-0.528l-0.876-2.457
							c-0.074-0.205-0.117-0.33-0.131-0.377c-0.043,0.146-0.084,0.273-0.121,0.377l-0.875,2.461H69.965z"/>
					</g>
					<g>
						<path fill="#2C3C47" d="M103.052,99.264l-0.004-3.227l2.994-0.004l0.001,0.381l-2.446,0.004l0.001,0.988l2.292-0.004v0.379
							l-2.291,0.002l0.001,1.1l2.543-0.004l0.001,0.381L103.052,99.264z"/>
					</g>
				</g>
				<g>
					<g>
						<g>
							<polygon fill="#ADEBF6" points="79.77,89.382 85.388,97.76 79.729,106.53 88.227,100.909 96.845,106.409 91.218,97.848 
								96.739,89.44 88.063,95.014 							"/>
						</g>
					</g>
					<g>
						<g>
							<polygon fill="#ADEBF6" points="88.345,83.485 85.997,95.382 73.733,98.024 85.738,100.473 88.386,112.467 90.88,100.413 
								102.716,97.958 90.605,95.321 							"/>
						</g>
					</g>
					<g>
						<path fill="#565656" d="M91.612,97.999c0.004,1.873-1.512,3.393-3.383,3.395c-1.871,0.002-3.392-1.512-3.395-3.385
							c-0.001-1.871,1.514-3.391,3.385-3.393C90.091,94.614,91.612,96.13,91.612,97.999z"/>
					</g>
					<g>
						<path fill="#FF916E" d="M85.915,95.516l2.389-11.666l2.488,11.953C90.792,95.803,88.76,93.614,85.915,95.516z"/>
						<path fill="#333333" d="M85.685,100.259l2.703,12.15l2.556-12.4C90.944,100.009,88.556,102.628,85.685,100.259z"/>
					</g>
				</g>
				<g>
					<path fill="#333333" d="M88.187,55.565c-4.096,0.016-7.4,3.348-7.383,7.443c0.018,4.092,3.352,7.398,7.444,7.381
						c4.094-0.018,7.398-3.352,7.383-7.443C95.612,58.85,92.28,55.546,88.187,55.565z M88.239,68.143
						c-2.853,0.01-5.177-2.291-5.188-5.145c-0.013-2.854,2.29-5.176,5.145-5.188c2.851-0.013,5.176,2.292,5.186,5.144
						C93.395,65.807,91.093,68.13,88.239,68.143z"/>
				</g>
			</g>
			<rect x="46.247" y="82.003" fill="#333333" width="18.396" height="16.211"/>
			<g>
				<path fill="#FFFFFF" d="M87.854,129.72v-0.006c-17.201-0.193-31.098-14.143-31.204-31.364h-8.866
					c0.107,21.943,17.691,39.747,39.545,40.217v0.014h24.757v-8.861H87.854z"/>
				<rect x="109.917" y="129.72" fill="#333333" width="0.705" height="2.475"/>
				<rect x="107.89" y="129.72" fill="#333333" width="0.705" height="2.475"/>
				<rect x="105.861" y="129.72" fill="#333333" width="0.706" height="4.373"/>
				<rect x="103.835" y="129.72" fill="#333333" width="0.705" height="2.475"/>
				<rect x="101.808" y="129.72" fill="#333333" width="0.705" height="2.475"/>
				<rect x="99.78" y="129.72" fill="#333333" width="0.705" height="4.373"/>
				<rect x="97.754" y="129.72" fill="#333333" width="0.705" height="2.475"/>
				<rect x="95.726" y="129.72" fill="#333333" width="0.707" height="2.475"/>
				<rect x="93.698" y="129.72" fill="#333333" width="0.706" height="4.373"/>
				<rect x="89.645" y="129.72" fill="#333333" width="0.705" height="2.475"/>
				<rect x="91.673" y="129.72" fill="#333333" width="0.704" height="2.475"/>
				<rect x="87.618" y="129.72" fill="#333333" width="0.705" height="4.373"/>
			</g>
			<path fill="#565656" d="M57.508,89.579c0,2.355-1.91,4.266-4.267,4.266c-2.355,0-4.264-1.91-4.264-4.266
				c0-2.357,1.908-4.266,4.264-4.266C55.598,85.313,57.508,87.221,57.508,89.579z"/>
		</g>
		<g>
			<path fill="#FF916E" d="M114.837,52.645c0.018-0.163,0.027-0.326,0.027-0.493c0-2.454-1.989-4.443-4.443-4.443
				c-2.453,0-4.442,1.989-4.442,4.443c0,0.167,0.026,0.493,0.026,0.493l4.416,14.826L114.837,52.645z"/>
			<path fill="#FFFFFF" d="M112.843,52.152c0,1.336-1.084,2.42-2.422,2.42c-1.336,0-2.42-1.084-2.42-2.42
				c0-1.339,1.084-2.421,2.42-2.421C111.759,49.731,112.843,50.813,112.843,52.152z"/>
		</g>
		<g>
			<g>
				<rect x="46.313" y="72.79" fill="#333333" width="7.522" height="1.135"/>
			</g>
			<g>
				<rect x="50.436" y="75.501" fill="#333333" width="9.765" height="1.133"/>
			</g>
			<path fill="#333333" d="M64.577,76.069c0,0.797-0.647,1.445-1.446,1.445c-0.799,0-1.446-0.648-1.446-1.445
				c0-0.801,0.647-1.447,1.446-1.447C63.93,74.622,64.577,75.268,64.577,76.069z"/>
		</g>
		<g>
			<g>
				<rect x="116.514" y="122.141" fill="#333333" width="7.523" height="1.133"/>
			</g>
			<g>
				<rect x="110.147" y="124.852" fill="#333333" width="9.766" height="1.135"/>
			</g>
			<path fill="#333333" d="M105.772,125.419c0,0.799,0.647,1.448,1.446,1.448c0.799,0,1.446-0.649,1.446-1.448
				c0-0.799-0.647-1.447-1.446-1.447C106.42,123.971,105.772,124.62,105.772,125.419z"/>
		</g>
		<g>
			<g>
				<rect x="110.274" y="40.854" fill="#333333" width="7.523" height="1.133"/>
			</g>
			<g>
				<rect x="103.909" y="43.566" fill="#333333" width="9.766" height="1.134"/>
			</g>
			<path fill="#333333" d="M99.533,44.133c0,0.8,0.647,1.446,1.446,1.446c0.799,0,1.447-0.646,1.447-1.446
				c0-0.799-0.648-1.446-1.447-1.446C100.181,42.686,99.533,43.334,99.533,44.133z"/>
		</g>
		<g>
			<g>
				<rect x="51.477" y="53.709" fill="#333333" width="7.522" height="1.134"/>
			</g>
			<path fill="#333333" d="M63.538,54.048c0,0.798-0.646,1.446-1.447,1.446c-0.799,0-1.445-0.648-1.445-1.446
				c0-0.799,0.646-1.446,1.445-1.446C62.892,52.601,63.538,53.249,63.538,54.048z"/>
		</g>
	</g>
</g>
</svg>
