<?xml version="1.0" encoding="utf-8"?>
<!-- Generator: Adobe Illustrator 24.3.0, SVG Export Plug-In . SVG Version: 6.00 Build 0)  -->
<svg version="1.1" id="Layer_1" xmlns="http://www.w3.org/2000/svg" xmlns:xlink="http://www.w3.org/1999/xlink" x="0px" y="0px"
	 viewBox="0 0 180 180" enable-background="new 0 0 180 180" xml:space="preserve">
<g>
	<g id="XMLID_978_">
		<path fill="#333333" d="M154.622,90.001c0,35.689-28.932,64.621-64.621,64.621c-35.691,0-64.623-28.932-64.623-64.621
			c0-35.691,28.932-64.623,64.623-64.623C125.69,25.378,154.622,54.31,154.622,90.001z"/>
	</g>
	<g>
		<g>
			<g>
				<g>
					<path fill="#ADEBF6" d="M111.028,63.601v10.16c4.732,0.328,8.482,4.283,8.476,9.098c-0.002,1.068-0.189,2.094-0.531,3.049
						l0.678,0.209l9.074,2.639c0.598-1.857,0.932-3.832,0.936-5.887C129.671,72.435,121.384,63.938,111.028,63.601z"/>
				</g>
				<g>
					<path fill="#FFFFFF" d="M110.013,63.593c-5.154,0.102-9.805,2.228-13.205,5.617l7.275,7.082
						c1.553-1.496,3.631-2.449,5.93-2.545V63.593z"/>
				</g>
				<g>
					<path fill="#FF916E" d="M110.013,91.95c-4.852-0.201-8.736-4.211-8.732-9.111c0.004-2.205,0.795-4.23,2.105-5.807l-7.287-7.098
						c-3.086,3.412-4.967,7.932-4.973,12.893c-0.01,10.52,8.412,19.074,18.887,19.277V91.95z"/>
				</g>
				<g>
					<path fill="#FFDB76" d="M118.569,86.858c-1.398,2.84-4.227,4.85-7.541,5.078v10.166c7.943-0.258,14.67-5.324,17.365-12.387
						L118.569,86.858z"/>
				</g>
			</g>
			<g>
				<g>
					<g>
						<rect x="43.786" y="51.05" fill="#FFFFFF" width="49.752" height="65.793"/>
					</g>
				</g>
				<g>
					<g>
						<rect x="43.786" y="107.659" fill="#ADEBF6" width="49.752" height="0.6"/>
					</g>
				</g>
				<g>
					<g>
						<polygon fill="#FFDB76" points="93.538,106.669 43.786,106.669 43.786,96.968 47.177,100.028 51.999,98.169 55.481,99.235 
							61.966,92.048 67.593,95.657 70.552,93.032 75.147,95.095 83.103,88.882 87.526,90.903 93.538,84.616 						"/>
					</g>
					<g>
						<polygon fill="#ADEBF6" points="93.538,106.669 43.786,106.669 43.786,103.634 47.337,101.995 51.839,99.153 55.536,100.575 
							61.886,97.513 67.11,99.263 70.552,96.364 74.585,100.464 82.142,95.642 87.565,93.491 93.538,96.53 						"/>
					</g>
					<g>
						<polygon fill="#FF916E" points="93.538,106.669 43.786,106.669 43.786,104.399 47.017,105.11 51.839,102.323 55.618,102.267 
							61.565,100.079 67.351,103.034 70.108,98.169 74.585,101.776 82.222,99.808 87.526,97.187 93.538,98.786 						"/>
					</g>
				</g>
				<g>
					<rect x="49.319" y="70.276" fill="#FF916E" width="11.396" height="0.674"/>
				</g>
				<g>
					<rect x="49.319" y="68.731" fill="#FF916E" width="37.943" height="0.676"/>
				</g>
				<g>
					<rect x="49.319" y="67.188" fill="#FF916E" width="37.943" height="0.674"/>
				</g>
				<g>
					<rect x="49.319" y="65.646" fill="#FF916E" width="37.943" height="0.674"/>
				</g>
				<g>
					<rect x="49.319" y="86.552" fill="#FF916E" width="23.916" height="0.672"/>
				</g>
				<g>
					<rect x="49.319" y="85.007" fill="#FF916E" width="37.943" height="0.674"/>
				</g>
				<g>
					<rect x="49.319" y="83.464" fill="#FF916E" width="37.943" height="0.674"/>
				</g>
				<g>
					<rect x="49.319" y="78.083" fill="#FF916E" width="13.883" height="0.674"/>
				</g>
				<g>
					<rect x="49.319" y="76.54" fill="#FF916E" width="37.943" height="0.674"/>
				</g>
				<g>
					<rect x="49.319" y="74.997" fill="#FF916E" width="37.943" height="0.672"/>
				</g>
				<g>
					<rect x="62.317" y="58.522" fill="#ADEBF6" width="11.947" height="1.635"/>
				</g>
				<g>
					<rect x="50.212" y="111.815" fill="#FF916E" width="9.217" height="0.986"/>
				</g>
				<g>
					<rect x="46.952" y="111.323" fill="#FFDB76" width="1.973" height="1.973"/>
				</g>
				<g>
					<rect x="65.683" y="111.815" fill="#FF916E" width="9.215" height="0.986"/>
				</g>
				<g>
					<rect x="62.423" y="111.323" fill="#ADEBF6" width="1.973" height="1.973"/>
				</g>
				<g>
					<rect x="81.03" y="111.782" fill="#FF916E" width="9.219" height="0.986"/>
				</g>
				<g>
					<rect x="77.772" y="111.29" fill="#FF916E" width="1.973" height="1.973"/>
				</g>
			</g>
			<g>
				<g>
					<path fill="#FFFFFF" d="M61.415,125.856v1.547c0,0.856,0.678,1.547,1.512,1.547h59.301c0.834,0,1.51-0.691,1.51-1.547v-1.547
						H61.415z"/>
				</g>
				<g>
					<path fill="#686868" d="M120.854,125.856V93.14c0-1.818-1.441-3.295-3.219-3.295H67.519c-1.777,0-3.221,1.477-3.221,3.295
						v32.717H120.854z"/>
				</g>
				<g>
					<rect x="67.106" y="92.968" fill="#E6E6E6" width="50.939" height="30.359"/>
				</g>
				<g>
					<path fill="#FFFFFF" d="M93.407,91.421c0,0.471-0.371,0.852-0.83,0.852s-0.832-0.381-0.832-0.852
						c0-0.469,0.373-0.85,0.832-0.85S93.407,90.952,93.407,91.421z"/>
				</g>
				<g>
					<rect x="67.106" y="92.968" fill="#BAC0C4" width="50.939" height="2.549"/>
				</g>
				<g>
					<path fill="#FF916E" d="M69.538,94.243c0,0.383-0.305,0.697-0.68,0.697c-0.377,0-0.683-0.314-0.683-0.697
						c0-0.387,0.307-0.699,0.683-0.699C69.233,93.544,69.538,93.856,69.538,94.243z"/>
				</g>
				<g>
					<path fill="#FFDB76" d="M71.901,94.243c0,0.383-0.305,0.697-0.682,0.697c-0.377,0-0.682-0.314-0.682-0.697
						c0-0.387,0.305-0.699,0.682-0.699C71.597,93.544,71.901,93.856,71.901,94.243z"/>
				</g>
				<g>
					<path fill="#ADEBF6" d="M74.263,94.243c0,0.383-0.305,0.697-0.68,0.697c-0.377,0-0.682-0.314-0.682-0.697
						c0-0.387,0.305-0.699,0.682-0.699C73.958,93.544,74.263,93.856,74.263,94.243z"/>
				</g>
				<g>
					<path fill="#333333" d="M116.411,94.243l0.492-0.508c0.072-0.07,0.072-0.189,0-0.264c-0.07-0.072-0.186-0.072-0.258,0
						l-0.492,0.506l-0.494-0.506c-0.072-0.072-0.188-0.072-0.258,0c-0.072,0.074-0.072,0.193,0,0.264l0.494,0.508l-0.494,0.504
						c-0.072,0.072-0.072,0.191,0,0.264c0.07,0.074,0.186,0.074,0.258,0l0.494-0.504l0.492,0.504c0.072,0.074,0.188,0.074,0.258,0
						c0.072-0.072,0.072-0.191,0-0.264L116.411,94.243z"/>
				</g>
				<g>
					<g>
						<path fill="#D9DDE5" d="M112.597,113.696c0,0.439-0.355,0.795-0.795,0.795H86.56c-0.439,0-0.795-0.356-0.795-0.795V97.79
							c0-0.439,0.355-0.795,0.795-0.795h25.242c0.439,0,0.795,0.355,0.795,0.795V113.696z"/>
					</g>
					<g>
						<path fill="#333333" d="M112.597,113.696c0,0.439-0.355,0.795-0.795,0.795H86.56c-0.439,0-0.795-0.356-0.795-0.795V97.79
							c0-0.439,0.355-0.795,0.795-0.795h25.242c0.439,0,0.795,0.355,0.795,0.795V113.696z"/>
					</g>
					<g>
						<g>
							<path fill="none" d="M86.56,96.995c-0.439,0-0.797,0.357-0.797,0.795v1.242l2.039-2.037H86.56z"/>
						</g>
						<g>
							<polygon fill="none" points="92.495,96.995 85.763,103.726 85.763,105.487 94.257,96.995 							"/>
						</g>
						<g>
							<polygon fill="none" points="92.897,114.491 110.394,96.995 108.634,96.995 91.138,114.491 							"/>
						</g>
						<g>
							<polygon fill="none" points="89.271,96.995 85.763,100.499 85.763,102.261 91.028,96.995 							"/>
						</g>
						<g>
							<polygon fill="none" points="107.165,96.995 105.405,96.995 87.909,114.491 89.671,114.491 							"/>
						</g>
						<g>
							<polygon fill="none" points="102.579,114.491 112.597,104.474 112.597,102.714 100.817,114.491 							"/>
						</g>
						<g>
							<path fill="none" d="M96.124,114.491l16.473-16.471v-0.23c0-0.42-0.328-0.762-0.742-0.789l-17.49,17.49H96.124z"/>
						</g>
						<g>
							<polygon fill="none" points="109.034,114.491 112.597,110.929 112.597,109.169 107.272,114.491 							"/>
						</g>
						<g>
							<path fill="none" d="M102.179,96.995l-16.416,16.414v0.287c0,0.402,0.303,0.732,0.691,0.785l17.484-17.486H102.179z"/>
						</g>
						<g>
							<path fill="none" d="M111.802,114.491c0.439,0,0.795-0.356,0.795-0.795v-1.301l-2.096,2.096H111.802z"/>
						</g>
						<g>
							<polygon fill="none" points="105.808,114.491 112.597,107.702 112.597,105.942 104.046,114.491 							"/>
						</g>
						<g>
							<polygon fill="none" points="98.95,96.995 85.763,110.183 85.763,111.942 100.712,96.995 							"/>
						</g>
						<g>
							<polygon fill="none" points="95.724,96.995 85.763,106.954 85.763,108.714 97.483,96.995 							"/>
						</g>
						<g>
							<polygon fill="none" points="99.353,114.491 112.597,101.247 112.597,99.487 97.591,114.491 							"/>
						</g>
						<g>
							<polygon fill="#FF916E" points="87.802,96.995 85.763,99.032 85.763,100.499 89.271,96.995 							"/>
						</g>
						<g>
							<polygon fill="#ADEBF6" points="91.028,96.995 85.763,102.261 85.763,103.726 92.495,96.995 							"/>
						</g>
						<g>
							<polygon fill="#FF916E" points="94.257,96.995 85.763,105.487 85.763,106.954 95.724,96.995 							"/>
						</g>
						<g>
							<polygon fill="#ADEBF6" points="97.483,96.995 85.763,108.714 85.763,110.183 98.95,96.995 							"/>
						</g>
						<g>
							<polygon fill="#FF916E" points="100.712,96.995 85.763,111.942 85.763,113.409 102.179,96.995 							"/>
						</g>
						<g>
							<path fill="#ADEBF6" d="M103.938,96.995l-17.484,17.486c0.035,0.004,0.068,0.01,0.105,0.01h1.35l17.496-17.496H103.938z"/>
						</g>
						<g>
							<polygon fill="#FF916E" points="91.138,114.491 108.634,96.995 107.165,96.995 89.671,114.491 							"/>
						</g>
						<g>
							<path fill="#ADEBF6" d="M94.364,114.491l17.49-17.49c-0.018-0.002-0.035-0.006-0.053-0.006h-1.408l-17.496,17.496H94.364z"/>
						</g>
						<g>
							<polygon fill="#FF916E" points="97.591,114.491 112.597,99.487 112.597,98.021 96.124,114.491 							"/>
						</g>
						<g>
							<polygon fill="#ADEBF6" points="100.817,114.491 112.597,102.714 112.597,101.247 99.353,114.491 							"/>
						</g>
						<g>
							<polygon fill="#FF916E" points="104.046,114.491 112.597,105.942 112.597,104.474 102.579,114.491 							"/>
						</g>
						<g>
							<polygon fill="#ADEBF6" points="107.272,114.491 112.597,109.169 112.597,107.702 105.808,114.491 							"/>
						</g>
						<g>
							<polygon fill="#FF916E" points="110.501,114.491 112.597,112.396 112.597,110.929 109.034,114.491 							"/>
						</g>
					</g>
					<g>
						<rect x="86.911" y="98.028" fill="#FFFFFF" width="24.539" height="15.43"/>
					</g>
					<g>
						<rect x="88.538" y="99.487" fill="#BAC0C4" width="6.314" height="2.773"/>
					</g>
					<g>
						<rect x="105.093" y="98.89" fill="#F2F2F2" width="5.301" height="6.17"/>
					</g>
				</g>
				<g>
					<g>
						<rect x="72.017" y="105.208" fill="#FFFFFF" width="26.57" height="16.051"/>
					</g>
					<g>
						<polygon fill="#F2F2F2" points="85.374,112.884 72.017,121.259 72.017,105.208 						"/>
					</g>
					<g>
						<polygon fill="#F2F2F2" points="85.231,112.884 98.587,121.259 98.587,105.208 						"/>
					</g>
					<g>
						<polygon fill="#BAC0C4" points="85.358,115.321 72.017,105.208 98.587,105.208 						"/>
					</g>
					<g>
						<polygon fill="#FFFFFF" points="85.353,112.743 72.017,105.208 98.587,105.208 						"/>
					</g>
				</g>
			</g>
			<g>
				<g>
					<path fill="#A3A3A3" d="M108.866,104.413c-3.926,0-7.615-1.527-10.393-4.303c-5.729-5.73-5.729-15.053,0-20.783
						c2.777-2.775,6.467-4.303,10.393-4.303c3.924,0,7.615,1.527,10.389,4.303c2.775,2.777,4.305,6.467,4.305,10.391
						c0,3.926-1.529,7.615-4.305,10.393C116.481,102.886,112.79,104.413,108.866,104.413z M108.866,78.864
						c-2.9,0-5.627,1.129-7.676,3.178c-4.232,4.232-4.232,11.119,0,15.352c2.049,2.051,4.775,3.18,7.676,3.18
						c2.898,0,5.625-1.129,7.674-3.18c2.051-2.049,3.18-4.775,3.18-7.676c0-2.898-1.129-5.625-3.18-7.676
						C114.491,79.993,111.765,78.864,108.866,78.864z"/>
				</g>
				<g opacity="0.4">
					<path fill="#CCCBC9" d="M116.8,81.782c4.383,4.383,4.383,11.488,0,15.871c-4.383,4.383-11.488,4.383-15.871,0
						c-4.381-4.383-4.381-11.488,0-15.871C105.312,77.399,112.417,77.399,116.8,81.782z"/>
				</g>
				<g opacity="0.2">
					<path fill="#333333" d="M107.938,78.536c2.555,0.211,5.053,1.291,7.008,3.246c4.381,4.383,4.381,11.488,0,15.871
						c-1.955,1.955-4.453,3.037-7.008,3.246c3.172,0.262,6.436-0.818,8.861-3.246c4.383-4.383,4.383-11.488,0-15.871
						C114.374,79.354,111.11,78.274,107.938,78.536z"/>
				</g>
				<g>
					<path fill="#FFFFFF" d="M100.581,88.376c-0.111,0-0.223-0.016-0.334-0.049c-0.609-0.184-0.953-0.826-0.77-1.436
						c0.086-0.285,0.188-0.568,0.299-0.846c0.771-1.91,2.096-3.502,3.832-4.602c0.537-0.342,1.248-0.182,1.59,0.355
						c0.34,0.537,0.182,1.248-0.355,1.59c-1.328,0.84-2.34,2.059-2.932,3.52c-0.086,0.213-0.162,0.43-0.229,0.648
						C101.532,88.056,101.075,88.376,100.581,88.376z"/>
				</g>
				<g>
					<path fill="#FFFFFF" d="M101.696,95.712c-0.371,0-0.734-0.178-0.957-0.508c-0.809-1.197-1.35-2.586-1.568-4.012
						c-0.096-0.629,0.336-1.217,0.967-1.314c0.627-0.094,1.215,0.338,1.312,0.967c0.166,1.092,0.58,2.154,1.199,3.072
						c0.355,0.527,0.217,1.244-0.311,1.6C102.142,95.649,101.917,95.712,101.696,95.712z"/>
				</g>
				<g>
					
						<rect x="125.137" y="94.958" transform="matrix(0.7071 -0.7071 0.7071 0.7071 -39.0897 121.4574)" fill="#A3A3A3" width="3.84" height="25.905"/>
				</g>
			</g>
		</g>
		<g>
			<g>
				<path fill="#FFFFFF" d="M82.388,138.009h-10.17c-0.213,0-0.385-0.172-0.385-0.385c0-0.213,0.172-0.385,0.385-0.385h10.17
					c0.213,0,0.385,0.172,0.385,0.385C82.772,137.837,82.601,138.009,82.388,138.009z"/>
			</g>
			<g>
				<path fill="#FFFFFF" d="M85.923,135.237h-1.641c-0.213,0-0.385-0.172-0.385-0.385c0-0.211,0.172-0.383,0.385-0.383h1.641
					c0.213,0,0.385,0.172,0.385,0.383C86.308,135.065,86.136,135.237,85.923,135.237z"/>
			</g>
			<g>
				<path fill="#FFFFFF" d="M82.388,135.237h-6.191c-0.213,0-0.385-0.172-0.385-0.385c0-0.211,0.172-0.383,0.385-0.383h6.191
					c0.213,0,0.385,0.172,0.385,0.383C82.772,135.065,82.601,135.237,82.388,135.237z"/>
			</g>
			<g>
				<path fill="#FFFFFF" d="M95.427,135.237H87.95c-0.213,0-0.385-0.172-0.385-0.385c0-0.211,0.172-0.383,0.385-0.383h7.477
					c0.211,0,0.385,0.172,0.385,0.383C95.812,135.065,95.638,135.237,95.427,135.237z"/>
			</g>
			<g>
				<path fill="#FFFFFF" d="M102.638,141.19h-1.92c-0.213,0-0.385-0.172-0.385-0.385c0-0.213,0.172-0.383,0.385-0.383h1.92
					c0.211,0,0.383,0.17,0.383,0.383C103.021,141.019,102.849,141.19,102.638,141.19z M98.798,141.19h-1.92
					c-0.213,0-0.385-0.172-0.385-0.385c0-0.213,0.172-0.383,0.385-0.383h1.92c0.211,0,0.383,0.17,0.383,0.383
					C99.181,141.019,99.009,141.19,98.798,141.19z M94.958,141.19h-1.92c-0.213,0-0.385-0.172-0.385-0.385
					c0-0.213,0.172-0.383,0.385-0.383h1.92c0.211,0,0.383,0.17,0.383,0.383C95.341,141.019,95.169,141.19,94.958,141.19z
					 M91.118,141.19h-1.92c-0.213,0-0.385-0.172-0.385-0.385c0-0.213,0.172-0.383,0.385-0.383h1.92c0.211,0,0.383,0.17,0.383,0.383
					C91.501,141.019,91.329,141.19,91.118,141.19z M87.278,141.19h-1.92c-0.213,0-0.385-0.172-0.385-0.385
					c0-0.213,0.172-0.383,0.385-0.383h1.92c0.211,0,0.383,0.17,0.383,0.383C87.661,141.019,87.489,141.19,87.278,141.19z"/>
			</g>
		</g>
		<g>
			<g>
				<path fill="#FFFFFF" d="M106.501,55.448h-10.17c-0.213,0-0.383-0.172-0.383-0.385c0-0.211,0.17-0.383,0.383-0.383h10.17
					c0.215,0,0.385,0.172,0.385,0.383C106.886,55.276,106.716,55.448,106.501,55.448z"/>
			</g>
			<g>
				<path fill="#FFFFFF" d="M110.038,52.677h-1.643c-0.213,0-0.385-0.172-0.385-0.383c0-0.213,0.172-0.385,0.385-0.385h1.643
					c0.211,0,0.383,0.172,0.383,0.385C110.421,52.505,110.249,52.677,110.038,52.677z"/>
			</g>
			<g>
				<path fill="#FFFFFF" d="M111.995,59.062h-1.643c-0.215,0-0.385-0.172-0.385-0.385c0-0.213,0.17-0.383,0.385-0.383h1.643
					c0.211,0,0.383,0.17,0.383,0.383C112.378,58.89,112.206,59.062,111.995,59.062z"/>
			</g>
			<g>
				<path fill="#FFFFFF" d="M106.501,52.677h-6.193c-0.211,0-0.385-0.172-0.385-0.383c0-0.213,0.174-0.385,0.385-0.385h6.193
					c0.215,0,0.385,0.172,0.385,0.385C106.886,52.505,106.716,52.677,106.501,52.677z"/>
			</g>
			<g>
				<path fill="#FFFFFF" d="M115.733,49.86h-7.477c-0.213,0-0.385-0.172-0.385-0.383c0-0.213,0.172-0.385,0.385-0.385h7.477
					c0.211,0,0.383,0.172,0.383,0.385C116.116,49.688,115.944,49.86,115.733,49.86z"/>
			</g>
		</g>
		<g>
			<g>
				<path fill="#FFFFFF" d="M136.106,101.013h-10.172c-0.211,0-0.383-0.174-0.383-0.385c0-0.213,0.172-0.383,0.383-0.383h10.172
					c0.211,0,0.385,0.17,0.385,0.383C136.491,100.839,136.317,101.013,136.106,101.013z"/>
			</g>
			<g>
				<path fill="#FFFFFF" d="M139.642,98.241h-1.642c-0.211,0-0.385-0.17-0.385-0.383s0.174-0.385,0.385-0.385h1.642
					c0.213,0,0.383,0.172,0.383,0.385S139.854,98.241,139.642,98.241z"/>
			</g>
			<g>
				<path fill="#FFFFFF" d="M141.599,104.626h-1.643c-0.211,0-0.383-0.172-0.383-0.385c0-0.211,0.172-0.383,0.383-0.383h1.643
					c0.211,0,0.385,0.172,0.385,0.383C141.983,104.454,141.81,104.626,141.599,104.626z"/>
			</g>
			<g>
				<path fill="#FFFFFF" d="M136.106,98.241h-6.193c-0.213,0-0.383-0.17-0.383-0.383s0.17-0.385,0.383-0.385h6.193
					c0.211,0,0.385,0.172,0.385,0.385S136.317,98.241,136.106,98.241z"/>
			</g>
			<g>
				<g>
					<path fill="#FFFFFF" d="M145.337,95.425h-0.961c-0.211,0-0.383-0.17-0.383-0.383s0.172-0.385,0.383-0.385h0.961
						c0.213,0,0.383,0.172,0.383,0.385S145.55,95.425,145.337,95.425z"/>
				</g>
				<g>
					<path fill="#FFFFFF" d="M142.524,95.425h-1.852c-0.213,0-0.385-0.17-0.385-0.383s0.172-0.385,0.385-0.385h1.852
						c0.213,0,0.383,0.172,0.383,0.385S142.737,95.425,142.524,95.425z"/>
				</g>
				<g>
					<path fill="#FFFFFF" d="M138.821,95.425h-0.961c-0.213,0-0.385-0.17-0.385-0.383s0.172-0.385,0.385-0.385h0.961
						c0.211,0,0.383,0.172,0.383,0.385S139.032,95.425,138.821,95.425z"/>
				</g>
			</g>
			<g>
				<g>
					<path fill="#FFFFFF" d="M135.747,70.474h-0.959c-0.215,0-0.385-0.172-0.385-0.385c0-0.211,0.17-0.383,0.385-0.383h0.959
						c0.211,0,0.383,0.172,0.383,0.383C136.13,70.302,135.958,70.474,135.747,70.474z"/>
				</g>
				<g>
					<path fill="#FFFFFF" d="M133.603,70.474h-1.186c-0.211,0-0.385-0.172-0.385-0.385c0-0.211,0.174-0.383,0.385-0.383h1.186
						c0.211,0,0.383,0.172,0.383,0.383C133.985,70.302,133.813,70.474,133.603,70.474z"/>
				</g>
				<g>
					<path fill="#FFFFFF" d="M131.233,70.474h-0.961c-0.213,0-0.383-0.172-0.383-0.385c0-0.211,0.17-0.383,0.383-0.383h0.961
						c0.211,0,0.385,0.172,0.385,0.383C131.618,70.302,131.444,70.474,131.233,70.474z"/>
				</g>
			</g>
			<g>
				<path fill="#FFFFFF" d="M138.126,73.284h-4.76c-0.213,0-0.383-0.172-0.383-0.383c0-0.213,0.17-0.385,0.383-0.385h4.76
					c0.211,0,0.385,0.172,0.385,0.385C138.511,73.112,138.337,73.284,138.126,73.284z"/>
			</g>
		</g>
		<g>
			<g>
				<path fill="#FFFFFF" d="M71.22,47.487h-0.959c-0.213,0-0.385-0.172-0.385-0.383c0-0.213,0.172-0.385,0.385-0.385h0.959
					c0.211,0,0.385,0.172,0.385,0.385C71.604,47.315,71.431,47.487,71.22,47.487z"/>
			</g>
			<g>
				<path fill="#FFFFFF" d="M73.589,47.487h-1.186c-0.211,0-0.383-0.172-0.383-0.383c0-0.213,0.172-0.385,0.383-0.385h1.186
					c0.211,0,0.385,0.172,0.385,0.385C73.974,47.315,73.8,47.487,73.589,47.487z"/>
			</g>
			<g>
				<path fill="#FFFFFF" d="M75.733,47.487h-0.961c-0.213,0-0.383-0.172-0.383-0.383c0-0.213,0.17-0.385,0.383-0.385h0.961
					c0.211,0,0.385,0.172,0.385,0.385C76.118,47.315,75.944,47.487,75.733,47.487z"/>
			</g>
		</g>
		<g>
			<path fill="#FFFFFF" d="M72.64,44.677h-4.76c-0.211,0-0.385-0.172-0.385-0.385c0-0.211,0.174-0.383,0.385-0.383h4.76
				c0.213,0,0.385,0.172,0.385,0.383C73.024,44.505,72.853,44.677,72.64,44.677z"/>
		</g>
		<g>
			<g>
				<path fill="#FFFFFF" d="M54.972,122.784h-4.76c-0.213,0-0.383-0.174-0.383-0.385c0-0.211,0.17-0.385,0.383-0.385h4.76
					c0.211,0,0.385,0.174,0.385,0.385C55.356,122.61,55.183,122.784,54.972,122.784z"/>
			</g>
			<g>
				<path fill="#FFFFFF" d="M56.442,120.503h-4.758c-0.211,0-0.385-0.172-0.385-0.385c0-0.211,0.174-0.383,0.385-0.383h4.758
					c0.213,0,0.385,0.172,0.385,0.383C56.827,120.331,56.655,120.503,56.442,120.503z"/>
			</g>
		</g>
	</g>
</g>
</svg>
