<?xml version="1.0" encoding="utf-8"?>
<!-- Generator: Adobe Illustrator 24.3.0, SVG Export Plug-In . SVG Version: 6.00 Build 0)  -->
<svg version="1.1" id="Layer_1" xmlns="http://www.w3.org/2000/svg" xmlns:xlink="http://www.w3.org/1999/xlink" x="0px" y="0px"
	 viewBox="0 0 180 180" style="enable-background:new 0 0 180 180;" xml:space="preserve">
<style type="text/css">
	.st0{fill:#ADEBF6;}
	.st1{fill:#CFDBE5;}
	.st2{fill-rule:evenodd;clip-rule:evenodd;fill:#45525B;}
	.st3{fill-rule:evenodd;clip-rule:evenodd;fill:#FFD55C;}
	.st4{fill-rule:evenodd;clip-rule:evenodd;fill:#FFF5DC;}
	.st5{fill:#FFF5DC;}
	.st6{fill:#FCFFB6;}
	.st7{fill:#F4FF8F;}
	.st8{fill:#E9FF64;}
	.st9{fill:#DDFF4D;}
	.st10{fill:#BDFFCD;}
	.st11{fill:#97FFB4;}
	.st12{fill:#6CFF99;}
	.st13{fill:#50FF8A;}
	.st14{fill:#C2D3FF;}
	.st15{fill:#9FB6FF;}
	.st16{fill:#7D96FF;}
	.st17{fill:#4D67FF;}
	.st18{fill:#FFB0B0;}
	.st19{fill:#FF9292;}
	.st20{fill:#FF6969;}
	.st21{fill:#FF4D4D;}
	.st22{fill:#F2ABFF;}
	.st23{fill:#E98DFF;}
	.st24{fill:#E36EFF;}
	.st25{fill:#DC4AFF;}
	.st26{fill:#92ADBF;}
	.st27{fill:#FF9975;}
	.st28{fill:#45525B;}
	.st29{fill:#FFFFFF;}
</style>
<g>
	<g id="XMLID_152_">
		<path class="st0" d="M90,25.4c-35.7,0-64.6,28.9-64.6,64.6c0,35.7,28.9,64.6,64.6,64.6c35.7,0,64.6-28.9,64.6-64.6
			C154.6,54.3,125.7,25.4,90,25.4z"/>
	</g>
	<g>
		<g>
			<path class="st1" d="M67.1,123.1H50.7c-1.3,0-2.3,1-2.3,2.3v0.6c0,1.3,1,2.3,2.3,2.3h16.4c1.3,0,2.3-1,2.3-2.3v-0.6
				C69.4,124.1,68.3,123.1,67.1,123.1z"/>
		</g>
		<g>
			<path class="st1" d="M79.4,112.9H54.5c-1.4,0-2.6,1.2-2.6,2.6c0,1.4,1.2,2.6,2.6,2.6h24.9c1.4,0,2.6-1.2,2.6-2.6
				C82,114.1,80.8,112.9,79.4,112.9z"/>
		</g>
		<g>
			<path class="st1" d="M48.5,112.9h-3.8c-1.4,0-2.6,1.2-2.6,2.6c0,1.4,1.2,2.6,2.6,2.6h3.8c1.4,0,2.6-1.2,2.6-2.6
				C51.1,114.1,50,112.9,48.5,112.9z"/>
		</g>
		<g>
			<path class="st1" d="M66.4,118H53.8c1.3,0,2.3,1,2.3,2.3v0.6c0,1.3-1,2.3-2.3,2.3h12.6c-1.3,0-2.3-1-2.3-2.3v-0.6
				C64.1,119,65.1,118,66.4,118z"/>
		</g>
	</g>
	<g>
		<g>
			<path class="st1" d="M134.8,106H87.2c-1.5,0-2.8,1.3-2.8,2.8v0.4c0,1.5,1.3,2.8,2.8,2.8h47.6c1.5,0,2.8-1.3,2.8-2.8v-0.4
				C137.6,107.3,136.3,106,134.8,106z"/>
		</g>
		<g>
			<path class="st1" d="M132.6,117.6H79.7c-1.5,0-2.8,1.3-2.8,2.8v0.4c0,1.5,1.3,2.8,2.8,2.8h52.9c1.5,0,2.8-1.3,2.8-2.8v-0.4
				C135.4,118.9,134.2,117.6,132.6,117.6z"/>
		</g>
		<g>
			<path class="st1" d="M129,127.7h-4.8c-1.5,0-2.8,1.3-2.8,2.8v0.4c0,1.5,1.3,2.8,2.8,2.8h4.8c1.5,0,2.8-1.3,2.8-2.8v-0.4
				C131.8,128.9,130.5,127.7,129,127.7z"/>
		</g>
		<g>
			<path class="st1" d="M116.1,127.5h-14.2c-1.4,0-2.6,1.2-2.6,2.6v0.1c0,1.4,1.2,2.6,2.6,2.6h14.2c1.4,0,2.6-1.2,2.6-2.6v-0.1
				C118.7,128.6,117.5,127.5,116.1,127.5z"/>
		</g>
		<g>
			<path class="st1" d="M78.6,106h-4.8c-1.5,0-2.8,1.3-2.8,2.8v0.4c0,1.5,1.3,2.8,2.8,2.8h4.8c1.5,0,2.8-1.3,2.8-2.8v-0.4
				C81.3,107.3,80.1,106,78.6,106z"/>
		</g>
		<g>
			<path class="st1" d="M131.3,111.8H87.8c1.5,0,2.6,1.2,2.6,2.6v0.7c0,1.5-1.2,2.6-2.6,2.6h43.5c-1.5,0-2.6-1.2-2.6-2.6v-0.7
				C128.7,113,129.9,111.8,131.3,111.8z"/>
		</g>
		<g>
			<path class="st1" d="M115.6,123.6H102c0.9,0,1.7,0.8,1.7,1.7v0.4c0,0.9-0.8,1.7-1.7,1.7h13.6c-0.9,0-1.7-0.8-1.7-1.7v-0.4
				C113.9,124.4,114.7,123.6,115.6,123.6z"/>
		</g>
		<g>
			<path class="st1" d="M128.6,95.7h-16.4c-1.5,0-2.8,1.3-2.8,2.8v0.4c0,1.5,1.3,2.8,2.8,2.8h16.4c1.5,0,2.8-1.3,2.8-2.8v-0.4
				C131.4,96.9,130.1,95.7,128.6,95.7z"/>
		</g>
		<g>
			<path class="st1" d="M128.3,101.6h-15.4c1.1,0,1.9,0.9,1.9,1.9v0.5c0,1.1-0.9,1.9-1.9,1.9h15.4c-1.1,0-1.9-0.9-1.9-1.9v-0.5
				C126.3,102.5,127.2,101.6,128.3,101.6z"/>
		</g>
	</g>
	<g>
		<g>
			<path class="st1" d="M117.1,52.8H69.5c-1.5,0-2.8,1.3-2.8,2.8V56c0,1.5,1.3,2.8,2.8,2.8h47.6c1.5,0,2.8-1.3,2.8-2.8v-0.4
				C119.9,54.1,118.7,52.8,117.1,52.8z"/>
		</g>
		<g>
			<path class="st1" d="M115,64.5h-53c-1.5,0-2.8,1.3-2.8,2.8v0.4c0,1.5,1.3,2.8,2.8,2.8h53c1.5,0,2.8-1.3,2.8-2.8v-0.4
				C117.8,65.7,116.6,64.5,115,64.5z"/>
		</g>
		<g>
			<path class="st1" d="M127.9,58.7h-4.8c-1.5,0-2.8,1.3-2.8,2.8v0.4c0,1.5,1.3,2.8,2.8,2.8h4.8c1.5,0,2.8-1.3,2.8-2.8v-0.4
				C130.7,59.9,129.4,58.7,127.9,58.7z"/>
		</g>
		<g>
			<path class="st1" d="M98.5,74.3H84.2c-1.4,0-2.6,1.2-2.6,2.6V77c0,1.4,1.2,2.6,2.6,2.6h14.2c1.4,0,2.6-1.2,2.6-2.6v-0.1
				C101.1,75.5,99.9,74.3,98.5,74.3z"/>
		</g>
		<g>
			<path class="st1" d="M60.9,52.8h-4.8c-1.5,0-2.8,1.3-2.8,2.8V56c0,1.5,1.3,2.8,2.8,2.8h4.8c1.5,0,2.8-1.3,2.8-2.8v-0.4
				C63.7,54.1,62.5,52.8,60.9,52.8z"/>
		</g>
		<g>
			<path class="st1" d="M113.7,58.7H70.2c1.5,0,2.6,1.2,2.6,2.6V62c0,1.5-1.2,2.6-2.6,2.6h43.5c-1.5,0-2.6-1.2-2.6-2.6v-0.7
				C111.1,59.8,112.3,58.7,113.7,58.7z"/>
		</g>
		<g>
			<path class="st1" d="M98,70.4H84.4c0.9,0,1.7,0.8,1.7,1.7v0.4c0,0.9-0.8,1.7-1.7,1.7H98c-0.9,0-1.7-0.8-1.7-1.7v-0.4
				C96.3,71.2,97,70.4,98,70.4z"/>
		</g>
		<g>
			<path class="st1" d="M110.9,42.5H94.6c-1.5,0-2.8,1.3-2.8,2.8v0.4c0,1.5,1.3,2.8,2.8,2.8h16.4c1.5,0,2.8-1.3,2.8-2.8v-0.4
				C113.7,43.8,112.5,42.5,110.9,42.5z"/>
		</g>
		<g>
			<path class="st1" d="M110.6,48.5H95.2c1.1,0,1.9,0.9,1.9,1.9v0.5c0,1.1-0.9,1.9-1.9,1.9h15.4c-1.1,0-1.9-0.9-1.9-1.9v-0.5
				C108.7,49.3,109.6,48.5,110.6,48.5z"/>
		</g>
	</g>
	<g>
		<g id="XMLID_150_">
			<g id="XMLID_1291_">
				<rect x="41.2" y="90.2" class="st2" width="97.6" height="10.9"/>
			</g>
			<g id="XMLID_1290_">
				<rect x="41.2" y="90.2" class="st2" width="97.6" height="3.8"/>
			</g>
			<g id="XMLID_1288_">
				<rect x="41.8" y="90.1" class="st3" width="0.7" height="2.4"/>
			</g>
			<g id="XMLID_1286_">
				
					<rect x="43.1" y="90.9" transform="matrix(2.684226e-03 -1 1 2.684226e-03 -47.1145 135.3971)" class="st3" width="2.4" height="0.7"/>
			</g>
			<g id="XMLID_1284_">
				
					<rect x="44.6" y="91.7" transform="matrix(1.342101e-03 -1 1 1.342101e-03 -45.6312 138.3911)" class="st3" width="3.8" height="0.7"/>
			</g>
			<g id="XMLID_1282_">
				
					<rect x="47.5" y="91" transform="matrix(1.340302e-03 -1 1 1.340302e-03 -42.7214 139.8678)" class="st3" width="2.4" height="0.7"/>
			</g>
			<g id="XMLID_1280_">
				
					<rect x="49.6" y="91" transform="matrix(1.342101e-03 -1 1 1.342101e-03 -40.575 142.0209)" class="st3" width="2.4" height="0.7"/>
			</g>
			<g id="XMLID_1278_">
				
					<rect x="51.1" y="91.7" transform="matrix(1.342101e-03 -1 1 1.342101e-03 -39.1508 144.8923)" class="st3" width="3.8" height="0.7"/>
			</g>
			<g id="XMLID_1276_">
				<rect x="54.8" y="90.1" class="st3" width="0.7" height="2.4"/>
			</g>
			<g id="XMLID_1274_">
				
					<rect x="56.1" y="91" transform="matrix(2.546567e-03 -1 1 2.546567e-03 -34.1632 148.4108)" class="st3" width="2.4" height="0.7"/>
			</g>
			<g id="XMLID_1272_">
				
					<rect x="57.6" y="91.7" transform="matrix(1.342101e-03 -1 1 1.342101e-03 -32.6705 151.3935)" class="st3" width="3.8" height="0.7"/>
			</g>
			<g id="XMLID_1270_">
				
					<rect x="60.5" y="91" transform="matrix(1.340318e-03 -1 1 1.340318e-03 -29.76 152.8695)" class="st3" width="2.4" height="0.7"/>
			</g>
			<g id="XMLID_1268_">
				
					<rect x="62.6" y="91" transform="matrix(2.683834e-03 -1 1 2.683834e-03 -27.6997 154.8992)" class="st3" width="2.4" height="0.7"/>
			</g>
			<g id="XMLID_1266_">
				
					<rect x="64.1" y="91.7" transform="matrix(1.341920e-03 -1 1 1.341920e-03 -26.1902 157.8947)" class="st3" width="3.8" height="0.7"/>
			</g>
			<g id="XMLID_1264_">
				<rect x="67.8" y="90.2" class="st3" width="0.7" height="2.4"/>
			</g>
			<g id="XMLID_1262_">
				
					<rect x="69.1" y="91" transform="matrix(1.207891e-03 -1 1 1.207891e-03 -21.1244 161.5351)" class="st3" width="2.4" height="0.7"/>
			</g>
			<g id="XMLID_1260_">
				<rect x="72.1" y="90.2" class="st3" width="0.7" height="3.8"/>
			</g>
			<g id="XMLID_1258_">
				<rect x="72.1" y="90.2" class="st3" width="0.7" height="3.8"/>
			</g>
			<g id="XMLID_1256_">
				<rect x="74.3" y="90.2" class="st3" width="0.7" height="2.4"/>
			</g>
			<g id="XMLID_1254_">
				
					<rect x="75.6" y="91" transform="matrix(1.342101e-03 -1 1 1.342101e-03 -14.6538 168.0243)" class="st3" width="2.4" height="0.7"/>
			</g>
			<g id="XMLID_1252_">
				
					<rect x="77" y="91.7" transform="matrix(1.206288e-03 -1 1 1.206288e-03 -13.2184 170.9092)" class="st3" width="3.8" height="0.7"/>
			</g>
			<g id="XMLID_1250_">
				
					<rect x="77" y="91.7" transform="matrix(1.206288e-03 -1 1 1.206288e-03 -13.2184 170.9092)" class="st3" width="3.8" height="0.7"/>
			</g>
			<g id="XMLID_1248_">
				<rect x="80.8" y="90.2" class="st3" width="0.7" height="2.4"/>
			</g>
			<g id="XMLID_1246_">
				<polygon class="st3" points="82.9,92.5 83.7,92.5 83.7,90.2 82.9,90.2 				"/>
			</g>
			<g id="XMLID_1244_">
				
					<rect x="83.5" y="91.7" transform="matrix(1.340302e-03 -1 1 1.340302e-03 -6.749 177.3973)" class="st3" width="3.8" height="0.7"/>
			</g>
			<g id="XMLID_1242_">
				
					<rect x="83.5" y="91.7" transform="matrix(1.340302e-03 -1 1 1.340302e-03 -6.749 177.3973)" class="st3" width="3.8" height="0.7"/>
			</g>
			<g id="XMLID_1240_">
				<rect x="87.3" y="90.2" class="st3" width="0.7" height="2.4"/>
			</g>
			<g id="XMLID_1238_">
				
					<rect x="88.6" y="91" transform="matrix(1.340302e-03 -1 1 1.340302e-03 -1.6925 181.0264)" class="st3" width="2.4" height="0.7"/>
			</g>
			<g id="XMLID_1236_">
				<rect x="91.6" y="90.2" class="st3" width="0.7" height="3.8"/>
			</g>
			<g id="XMLID_1234_">
				<rect x="91.6" y="90.2" class="st3" width="0.7" height="3.8"/>
			</g>
			<g id="XMLID_1232_">
				<rect x="93.8" y="90.2" class="st3" width="0.7" height="2.4"/>
			</g>
			<g id="XMLID_1230_">
				
					<rect x="95.1" y="91" transform="matrix(1.340302e-03 -1 1 1.340302e-03 4.7885 187.5278)" class="st3" width="2.4" height="0.7"/>
			</g>
			<g id="XMLID_1228_">
				
					<rect x="96.5" y="91.7" transform="matrix(1.340283e-03 -1 1 1.340283e-03 6.212 190.3995)" class="st3" width="3.8" height="0.7"/>
			</g>
			<g id="XMLID_1226_">
				
					<rect x="96.5" y="91.7" transform="matrix(1.340283e-03 -1 1 1.340283e-03 6.212 190.3995)" class="st3" width="3.8" height="0.7"/>
			</g>
			<g id="XMLID_1224_">
				<rect x="100.3" y="90.2" class="st3" width="0.7" height="2.4"/>
			</g>
			<g id="XMLID_1222_">
				
					<rect x="101.6" y="91" transform="matrix(1.343724e-03 -1 1 1.343724e-03 11.2678 194.0285)" class="st3" width="2.4" height="0.7"/>
			</g>
			<g id="XMLID_1220_">
				<rect x="104.6" y="90.2" class="st3" width="0.7" height="3.8"/>
			</g>
			<g id="XMLID_1218_">
				<rect x="104.6" y="90.2" class="st3" width="0.7" height="3.8"/>
			</g>
			<g id="XMLID_1216_">
				<rect x="106.8" y="90.2" class="st3" width="0.7" height="2.4"/>
			</g>
			<g id="XMLID_1214_">
				
					<rect x="108.1" y="91" transform="matrix(1.340302e-03 -1 1 1.340302e-03 17.7496 200.5298)" class="st3" width="2.4" height="0.7"/>
			</g>
			<g id="XMLID_1212_">
				<rect x="111.1" y="90.2" class="st3" width="0.7" height="3.8"/>
			</g>
			<g id="XMLID_1210_">
				<rect x="111.1" y="90.2" class="st3" width="0.7" height="3.8"/>
			</g>
			<g id="XMLID_1208_">
				<rect x="113.2" y="90.2" class="st3" width="0.7" height="2.4"/>
			</g>
			<g id="XMLID_1206_">
				<rect x="115.4" y="90.2" class="st3" width="0.7" height="2.4"/>
			</g>
			<g id="XMLID_1204_">
				<rect x="117.5" y="90.2" class="st3" width="0.7" height="3.8"/>
			</g>
			<g id="XMLID_1202_">
				<rect x="117.5" y="90.2" class="st3" width="0.7" height="3.8"/>
			</g>
			<g id="XMLID_1200_">
				<rect x="119.7" y="90.2" class="st3" width="0.7" height="2.4"/>
			</g>
			<g id="XMLID_1198_">
				
					<rect x="121.1" y="91" transform="matrix(1.340282e-03 -1 1 1.340282e-03 30.7095 213.532)" class="st3" width="2.4" height="0.7"/>
			</g>
			<g id="XMLID_1196_">
				<rect x="124" y="90.2" class="st3" width="0.7" height="3.8"/>
			</g>
			<g id="XMLID_1194_">
				<rect x="124" y="90.2" class="st3" width="0.7" height="3.8"/>
			</g>
			<g id="XMLID_1192_">
				
					<rect x="125.4" y="91" transform="matrix(1.340302e-03 -1 1 1.340302e-03 35.044 217.8801)" class="st3" width="2.4" height="0.7"/>
			</g>
			<g id="XMLID_1190_">
				<rect x="128.4" y="90.2" class="st3" width="0.7" height="2.4"/>
			</g>
			<g id="XMLID_1183_">
				<rect x="130.5" y="90.2" class="st3" width="0.7" height="3.8"/>
			</g>
			<g id="XMLID_1180_">
				<rect x="130.5" y="90.2" class="st3" width="0.7" height="3.8"/>
			</g>
			<g id="XMLID_1173_">
				
					<rect x="131.9" y="91" transform="matrix(1.343724e-03 -1 1 1.343724e-03 41.5246 224.3802)" class="st3" width="2.4" height="0.7"/>
			</g>
			<g id="XMLID_689_">
				<rect x="134.9" y="90.2" class="st3" width="0.7" height="2.4"/>
			</g>
			<g id="XMLID_151_">
				<polygon class="st3" points="137,94 137.8,94 137.8,90.2 137,90.2 				"/>
			</g>
		</g>
		<g id="XMLID_148_">
			<g>
				<polygon class="st3" points="53.9,67.3 88.5,102 94.9,95.6 60.2,61 				"/>
			</g>
			<g>
				<g>
					<polygon class="st3" points="55.9,65.3 90.6,99.9 92.8,97.7 58.1,63 					"/>
				</g>
			</g>
			<g id="XMLID_1293_">
				<g id="XMLID_1295_">
					<path class="st4" d="M51.9,59.1c0,0,1.9,8.1,2,8.2l0,0c0.3,0.3,1,0.1,1.6-0.5c0.5-0.5,0.8-1.2,0.6-1.5c0.3,0.2,1,0,1.5-0.6
						c0.5-0.5,0.8-1.2,0.6-1.5c0.3,0.2,1,0,1.5-0.6c0.6-0.6,0.8-1.3,0.5-1.6C60.1,60.9,51.9,59.1,51.9,59.1z"/>
				</g>
				<g id="XMLID_1294_">
					<polygon class="st2" points="52.8,63 55.8,60 51.9,59.1 					"/>
				</g>
			</g>
		</g>
		<g>
			<g>
				<g>
					<g>
						<g>
							
								<rect x="99" y="100.7" transform="matrix(0.9004 -0.4351 0.4351 0.9004 -43.418 58.4387)" class="st5" width="13.8" height="46.7"/>
						</g>
						<g>
							<g>
								
									<rect x="107.9" y="135.1" transform="matrix(0.9004 -0.435 0.435 0.9004 -49.3174 63.1472)" class="st6" width="10.7" height="8.5"/>
							</g>
							<g>
								
									<rect x="103" y="124.9" transform="matrix(0.9003 -0.4352 0.4352 0.9003 -45.3918 60.0242)" class="st7" width="10.7" height="8.5"/>
							</g>
							<g>
								
									<rect x="98.1" y="114.7" transform="matrix(0.9003 -0.4352 0.4352 0.9003 -41.4493 56.865)" class="st8" width="10.7" height="8.5"/>
							</g>
							<g>
								
									<rect x="93.2" y="104.5" transform="matrix(0.9004 -0.435 0.435 0.9004 -37.4995 53.6882)" class="st9" width="10.7" height="8.5"/>
							</g>
						</g>
					</g>
					<g>
						<g>
							
								<rect x="91.7" y="103.1" transform="matrix(0.9823 -0.1873 0.1873 0.9823 -21.9364 20.7064)" class="st5" width="13.8" height="46.7"/>
						</g>
						<g>
							<g>
								
									<rect x="96.4" y="138.9" transform="matrix(0.9823 -0.1874 0.1874 0.9823 -25.0136 21.6089)" class="st10" width="10.7" height="8.5"/>
							</g>
							<g>
								
									<rect x="94.3" y="127.7" transform="matrix(0.9823 -0.1872 0.1872 0.9823 -22.9504 20.9945)" class="st11" width="10.7" height="8.5"/>
							</g>
							<g>
								
									<rect x="92.2" y="116.6" transform="matrix(0.9823 -0.1872 0.1872 0.9823 -20.9052 20.3988)" class="st12" width="10.7" height="8.5"/>
							</g>
							<g>
								
									<rect x="90.1" y="105.5" transform="matrix(0.9823 -0.1874 0.1874 0.9823 -18.8821 19.8304)" class="st13" width="10.7" height="8.5"/>
							</g>
						</g>
					</g>
					<g>
						<g>
							
								<rect x="67.6" y="120" transform="matrix(7.338355e-02 -0.9973 0.9973 7.338355e-02 -42.2688 208.2621)" class="st5" width="46.7" height="13.8"/>
						</g>
						<g>
							<g>
								
									<rect x="85.4" y="138.5" transform="matrix(7.340913e-02 -0.9973 0.9973 7.340913e-02 -60.2994 222.6977)" class="st14" width="8.5" height="10.7"/>
							</g>
							<g>
								
									<rect x="86.3" y="127.2" transform="matrix(7.341842e-02 -0.9973 0.9973 7.341842e-02 -48.2813 213.0703)" class="st15" width="8.5" height="10.7"/>
							</g>
							<g>
								
									<rect x="87.1" y="115.9" transform="matrix(7.323243e-02 -0.9973 0.9973 7.323243e-02 -36.2465 203.4686)" class="st16" width="8.5" height="10.7"/>
							</g>
							<g>
								
									<rect x="87.9" y="104.6" transform="matrix(7.331175e-02 -0.9973 0.9973 7.331175e-02 -24.2331 193.8313)" class="st17" width="8.5" height="10.7"/>
							</g>
						</g>
					</g>
					<g>
						<g>
							
								<rect x="60.1" y="118.4" transform="matrix(0.3289 -0.9444 0.9444 0.3289 -62.3626 162.8861)" class="st5" width="46.7" height="13.8"/>
						</g>
						<g>
							<g>
								
									<rect x="73.6" y="136" transform="matrix(0.3289 -0.9444 0.9444 0.3289 -81.2409 168.3627)" class="st18" width="8.5" height="10.7"/>
							</g>
							<g>
								
									<rect x="77.3" y="125.3" transform="matrix(0.3289 -0.9444 0.9444 0.3289 -68.6557 164.7105)" class="st19" width="8.5" height="10.7"/>
							</g>
							<g>
								
									<rect x="81" y="114.6" transform="matrix(0.329 -0.9443 0.9443 0.329 -56.0756 161.0385)" class="st20" width="8.5" height="10.7"/>
							</g>
							<g>
								
									<rect x="84.8" y="103.9" transform="matrix(0.3289 -0.9444 0.9444 0.3289 -43.4855 157.4012)" class="st21" width="8.5" height="10.7"/>
							</g>
						</g>
					</g>
					<g>
						<g>
							
								<rect x="53.2" y="114.9" transform="matrix(0.5622 -0.827 0.827 0.5622 -67.2667 116.6684)" class="st5" width="46.7" height="13.8"/>
						</g>
						<g>
							<g>
								
									<rect x="62.8" y="130.6" transform="matrix(0.5622 -0.827 0.827 0.5622 -83.0489 114.9335)" class="st22" width="8.5" height="10.7"/>
							</g>
							<g>
								
									<rect x="69.1" y="121.2" transform="matrix(0.5621 -0.827 0.827 0.5621 -72.5284 116.0994)" class="st23" width="8.5" height="10.7"/>
							</g>
							<g>
								
									<rect x="75.5" y="111.8" transform="matrix(0.5622 -0.827 0.827 0.5622 -62.0067 117.2558)" class="st24" width="8.5" height="10.7"/>
							</g>
							<g>
								
									<rect x="81.8" y="102.5" transform="matrix(0.5621 -0.8271 0.8271 0.5621 -51.4846 118.4298)" class="st25" width="8.5" height="10.7"/>
							</g>
						</g>
					</g>
				</g>
				<g>
					<path class="st5" d="M87.5,87.5c-5.6,2.7-7.9,9.4-5.2,15c2.7,5.6,9.4,7.9,15,5.2c5.6-2.7,7.9-9.4,5.2-15
						C99.8,87.2,93.1,84.8,87.5,87.5z"/>
				</g>
				<g>
					<path class="st26" d="M90.3,93.3c-2.4,1.1-3.3,4-2.2,6.3s4,3.4,6.3,2.2c2.4-1.1,3.3-4,2.2-6.3C95.5,93.2,92.7,92.2,90.3,93.3z"
						/>
				</g>
			</g>
		</g>
		<g>
			<g>
				<path class="st2" d="M102.2,35.3c0-2.3-0.8-4.3-2.1-5.9h-0.9c0.5,1,0.7,2,0.7,3.1c0.1,1.7-0.8,3.7-2,4.9c-1.3,1.3-3.1,2-4.9,2
					c-1.9,0-3.6-0.8-4.9-2c-1.4-1.3-2-3.1-2-4.9c0-1,0.3-2.1,0.8-3.1H86c-1.3,1.6-2.1,3.6-2.1,5.8c0,3.7,2.2,6.9,5.3,8.4L89.1,86
					c-3.2,1.4-5.4,4.6-5.4,8.3c0,2.4,0.9,4.6,2.4,6.2h0.8c-0.6-1.1-0.9-2.3-1-3.6c-0.1-1.7,0.8-3.7,2-4.9c1.3-1.3,3.1-2,4.9-2
					c1.9,0,3.6,0.8,4.9,2c1.4,1.3,2,3.1,2,4.9c0.1,1.2-0.4,2.5-1,3.6h0.8c1.5-1.6,2.4-3.8,2.4-6.1c0-3.7-2.2-6.9-5.3-8.4l0.1-42.4
					C100,42.2,102.2,39,102.2,35.3z"/>
			</g>
			<g>
				<g>
					<path class="st2" d="M86.3,92c-1.2,1.2-2.1,3.2-2,4.9c0,0.3,0,0.6,0.1,0.8c0.4,1,1,1.9,1.7,2.7h0.8c-0.6-1.1-0.9-2.3-1-3.6
						c-0.1-1.7,0.8-3.7,2-4.9c1.1-1.1,2.6-1.8,4.1-2c-0.3,0-0.5-0.1-0.8-0.1C89.4,90,87.5,90.8,86.3,92z"/>
				</g>
				<g>
					<path class="st2" d="M86,32.4c0-1,0.3-2.1,0.8-3.1H86c-0.7,0.9-1.3,1.9-1.7,2.9c0,0.1,0,0.1,0,0.2c0.1,1.8,0.7,3.7,2,4.9
						c1.4,1.3,3,2,4.9,2c0.3,0,0.5,0,0.8-0.1c-1.6-0.2-2.9-0.9-4.1-2C86.6,36.1,86,34.2,86,32.4z"/>
				</g>
				<g>
					<path class="st2" d="M102.2,35.3c0-2.3-0.8-4.3-2.1-5.9h-0.9c0.3,0.7,0.5,1.4,0.6,2.2c0.5,1.2,0.8,2.4,0.8,3.8
						c0,3.7-2.2,6.9-5.4,8.3L95,86c3.2,1.5,5.4,4.7,5.3,8.4c0,1.1-0.2,2.2-0.6,3.2c-0.1,1-0.4,2.1-1,3h0.8c1.5-1.6,2.4-3.8,2.4-6.1
						c0-3.7-2.2-6.9-5.3-8.4l0.1-42.4C100,42.2,102.2,39,102.2,35.3z"/>
				</g>
			</g>
		</g>
		<g>
			<g>
				<path class="st27" d="M121.4,68.4c-0.7-0.7-1.7-1-2.6-1l-0.3-0.3l-0.5,0.5c-0.5,0.2-1,0.4-1.4,0.8L90.4,94.5
					c-1.3,1.3-1.3,3.5,0,4.9L91,100c1.3,1.3,3.5,1.3,4.8,0L122,73.8c1.3-1.3,1.3-3.5,0-4.8L121.4,68.4z"/>
			</g>
			<g>
				<g>
					<path class="st28" d="M117.7,67.3c-0.4-0.4-1-0.4-1.3,0c-0.4,0.4-0.4,1,0,1.3l5.4,5.4c0.4,0.4,1,0.4,1.3,0c0.4-0.4,0.4-1,0-1.3
						L117.7,67.3z"/>
				</g>
			</g>
			<g>
				<g>
					<path class="st28" d="M117.8,68.7l3.8,3.8c0,0,3.3,0.1,4.8-1.9c1.5-2,1.6-8.4,1.6-8.4s-6.9,0.2-8.6,1.9
						C117.7,65.9,117.8,68.7,117.8,68.7z"/>
				</g>
			</g>
			<g>
				<g>
					<g>
						<path class="st29" d="M122.3,67.1c-0.3,0.3-0.3,0.8,0,1.1c0.3,0.3,0.8,0.3,1.1,0c0.3-0.3,0.3-0.8,0-1.1
							C123.1,66.8,122.6,66.8,122.3,67.1z"/>
					</g>
				</g>
				<g>
					<g>
						<g>
							<polygon class="st29" points="122.9,67.4 123.1,67.6 128.1,62.6 128,62.3 							"/>
						</g>
					</g>
				</g>
			</g>
		</g>
	</g>
</g>
</svg>
